<svg width="32" height="32" viewBox="0 0 32 32" fill="none" xmlns="http://www.w3.org/2000/svg">
<g clip-path="url(#clip0_1_7595)">
<path fill-rule="evenodd" clip-rule="evenodd" d="M19.8309 0.0934914C18.818 0.468518 18.1068 1.30114 17.9861 2.25347C17.7805 3.87486 18.8843 5.24496 20.4784 5.34722C21.7377 5.42807 22.832 4.6816 23.2129 3.48201C23.6158 2.2129 22.9965 0.789841 21.7983 0.231553C21.2885 -0.00600868 20.2892 -0.0761208 19.8309 0.0934914ZM21.6007 1.15204C21.8256 1.29107 22.0505 1.51625 22.1901 1.74203C22.3857 2.05835 22.4158 2.17755 22.4158 2.63507C22.4158 3.38616 22.0744 3.97638 21.4541 4.2971C21.0598 4.50103 20.3789 4.51065 19.9325 4.31866C19.2483 4.02434 18.8667 3.44076 18.863 2.68318C18.8596 1.96818 19.2282 1.3626 19.8628 1.04038C20.3395 0.798419 21.1086 0.847796 21.6007 1.15204ZM10.5039 1.26333C9.74415 1.44771 9.09017 1.98004 8.7088 2.72435C8.51972 3.09349 8.49869 3.20925 8.49869 3.88046C8.49869 4.55712 8.51897 4.66631 8.71693 5.0573C8.98664 5.59001 9.52389 6.10272 10.0861 6.36408C10.443 6.53004 10.616 6.56226 11.1465 6.56174C11.9706 6.56084 12.5347 6.32089 13.0879 5.73598C13.6615 5.12943 13.7944 4.78043 13.7944 3.88046C13.7944 3.20925 13.7734 3.09349 13.5843 2.72435C13.1946 1.96386 12.5482 1.44637 11.7542 1.25945C11.2481 1.14033 11.0074 1.14108 10.5039 1.26333ZM11.9663 2.27645C12.2921 2.44263 12.6901 2.87547 12.8341 3.21999C12.9708 3.5472 12.9642 4.22945 12.821 4.57278C12.5435 5.2381 11.889 5.66504 11.1465 5.66504C9.61265 5.66504 8.78264 3.89418 9.77384 2.73614C10.3377 2.07745 11.2154 1.89337 11.9663 2.27645ZM16.1694 5.43688C15.231 5.68988 14.3946 6.55741 14.2001 7.47931L14.1489 7.72172H11.3271C6.39778 7.72172 6.29537 7.72471 6.14918 7.8709C6.06713 7.95294 6 8.08914 6 8.17365C6 8.25808 7.62788 10.9288 9.6175 14.1085L13.235 19.8899V21.4368C13.235 22.5603 13.2605 23.0166 13.3282 23.1041C13.408 23.2072 17.0634 25.2547 18.1563 25.8085C18.602 26.0343 18.6392 26.0364 18.8291 25.8465C18.9731 25.7025 18.9782 25.5979 18.9782 22.7941V19.8908L22.6078 14.1233C24.6041 10.9511 26.252 8.28352 26.2699 8.1952C26.2897 8.09772 26.241 7.97323 26.146 7.87821C25.9944 7.72665 25.9229 7.72172 23.8778 7.72172H19.5593L19.4625 7.34438C19.1062 5.95385 17.5644 5.06081 16.1694 5.43688ZM17.3824 6.31768C17.8827 6.46753 18.4321 7.02798 18.5943 7.5539L18.6461 7.72172H19.0648H15.0698L15.1505 7.4588C15.1949 7.31418 15.3461 7.06155 15.4867 6.89745C15.9786 6.32268 16.6816 6.10772 17.3824 6.31768ZM24.9511 8.7473C24.9104 8.81913 24.4944 9.48199 24.0267 10.2204L23.1764 11.563H16.1439H9.11142L8.26112 10.2204C7.79346 9.48199 7.37748 8.81913 7.33676 8.7473C7.26642 8.62334 7.70716 8.61677 16.1439 8.61677C24.5807 8.61677 25.0214 8.62334 24.9511 8.7473ZM22.4864 12.6398C22.4439 12.7192 21.4358 14.3309 20.2462 16.2211L18.0832 19.6578V22.1928C18.0832 23.587 18.0646 24.7277 18.0419 24.7277C18.0191 24.7277 17.13 24.2494 16.066 23.6648L14.1315 22.602L14.1308 21.1004L14.1301 19.599L11.9297 16.0768C10.7195 14.1396 9.72938 12.5413 9.72938 12.5249C9.72938 12.5087 12.6171 12.4953 16.1465 12.4953C22.471 12.4953 22.5626 12.4974 22.4864 12.6398ZM15.6252 26.3724C14.7567 26.5507 13.9701 27.1794 13.5768 28.0093C13.37 28.4455 13.3469 28.5659 13.3469 29.2046C13.3469 29.8547 13.3673 29.9563 13.5886 30.4058C13.8798 30.9972 14.4133 31.521 15.0088 31.8001C15.3825 31.9752 15.5279 32 16.183 32C16.8769 32 16.9662 31.9825 17.4265 31.7558C18.0438 31.4518 18.6023 30.8628 18.8397 30.2656C18.9718 29.9335 19.0108 29.6855 19.0129 29.1641C19.0153 28.5509 18.9941 28.4483 18.7731 28.008C18.4946 27.453 18.3127 27.2318 17.8351 26.8673C17.2684 26.4346 16.3375 26.2262 15.6252 26.3724ZM17.0017 27.4097C17.8899 27.8075 18.3545 28.8707 18.0459 29.7996C17.5935 31.1618 15.8524 31.5914 14.8134 30.5972C14.3911 30.1932 14.2456 29.8371 14.2436 29.203C14.2422 28.7146 14.2709 28.5925 14.4701 28.2413C14.9849 27.3338 16.0506 26.9837 17.0017 27.4097Z" fill="#D1F960"/>
<path d="M17.0017 27.4097C17.8899 27.8075 18.3545 28.8707 18.0459 29.7996C17.5935 31.1618 15.8524 31.5914 14.8134 30.5972C14.3911 30.1932 14.2456 29.8371 14.2436 29.203C14.2422 28.7146 14.2709 28.5925 14.4701 28.2413C14.9849 27.3338 16.0506 26.9837 17.0017 27.4097Z" fill="#D1F960"/>
<path d="M24.9511 8.7473C24.9104 8.81913 24.4944 9.48199 24.0267 10.2204L23.1764 11.563H16.1439H9.11142L8.26112 10.2204C7.79346 9.48199 7.37748 8.81913 7.33676 8.7473C7.26642 8.62334 7.70716 8.61677 16.1439 8.61677C24.5807 8.61677 25.0214 8.62334 24.9511 8.7473Z" fill="#D1F960"/>
<path fill-rule="evenodd" clip-rule="evenodd" d="M19.8309 0.0934914C18.818 0.468518 18.1068 1.30114 17.9861 2.25347C17.7805 3.87486 18.8843 5.24496 20.4784 5.34722C21.7377 5.42807 22.832 4.6816 23.2129 3.48201C23.6158 2.2129 22.9965 0.789841 21.7983 0.231553C21.2885 -0.00600867 20.2892 -0.0761208 19.8309 0.0934914ZM21.6007 1.15204C21.8256 1.29107 22.0505 1.51625 22.1901 1.74203C22.3857 2.05835 22.4158 2.17755 22.4158 2.63507C22.4158 3.38616 22.0744 3.97638 21.4541 4.2971C21.0598 4.50103 20.3789 4.51065 19.9325 4.31866C19.2483 4.02434 18.8667 3.44076 18.863 2.68318C18.8596 1.96818 19.2282 1.3626 19.8628 1.04038C20.3395 0.798419 21.1086 0.847796 21.6007 1.15204ZM10.5039 1.26333C9.74415 1.44771 9.09017 1.98004 8.7088 2.72435C8.51972 3.09349 8.49869 3.20925 8.49869 3.88046C8.49869 4.55712 8.51897 4.66631 8.71693 5.0573C8.98664 5.59001 9.52389 6.10272 10.0861 6.36408C10.443 6.53004 10.616 6.56226 11.1465 6.56174C11.9706 6.56084 12.5347 6.32089 13.0879 5.73598C13.6615 5.12943 13.7944 4.78043 13.7944 3.88046C13.7944 3.20925 13.7734 3.09349 13.5843 2.72435C13.1946 1.96386 12.5482 1.44637 11.7542 1.25945C11.2481 1.14033 11.0074 1.14108 10.5039 1.26333ZM11.9663 2.27645C12.2921 2.44263 12.6901 2.87547 12.8341 3.21999C12.9708 3.5472 12.9642 4.22945 12.821 4.57278C12.5435 5.2381 11.889 5.66504 11.1465 5.66504C9.61265 5.66504 8.78264 3.89418 9.77384 2.73614C10.3377 2.07745 11.2154 1.89337 11.9663 2.27645ZM16.1694 5.43688C15.231 5.68988 14.3946 6.55741 14.2001 7.47931L14.1489 7.72172H11.3271C6.39778 7.72172 6.29537 7.72471 6.14918 7.8709C6.06713 7.95294 6 8.08914 6 8.17365C6 8.25808 7.62788 10.9288 9.6175 14.1085L13.235 19.8899V21.4368C13.235 22.5603 13.2605 23.0166 13.3282 23.1041C13.408 23.2072 17.0634 25.2547 18.1563 25.8085C18.602 26.0343 18.6392 26.0364 18.8291 25.8465C18.9731 25.7025 18.9782 25.5979 18.9782 22.7941V19.8908L22.6078 14.1233C24.6041 10.9511 26.252 8.28352 26.2699 8.1952C26.2897 8.09772 26.241 7.97323 26.146 7.87821C25.9944 7.72665 25.9229 7.72172 23.8778 7.72172H19.5593L19.4625 7.34438C19.1062 5.95385 17.5644 5.06081 16.1694 5.43688ZM17.3824 6.31768C17.8827 6.46753 18.4321 7.02798 18.5943 7.5539L18.6461 7.72172H19.0648H15.0698L15.1505 7.4588C15.1949 7.31418 15.3461 7.06155 15.4867 6.89745C15.9786 6.32268 16.6816 6.10772 17.3824 6.31768ZM24.9511 8.7473C24.9104 8.81913 24.4944 9.48199 24.0267 10.2204L23.1764 11.563H16.1439H9.11142L8.26112 10.2204C7.79346 9.48199 7.37748 8.81913 7.33676 8.7473C7.26642 8.62334 7.70716 8.61677 16.1439 8.61677C24.5807 8.61677 25.0214 8.62334 24.9511 8.7473ZM22.4864 12.6398C22.4439 12.7192 21.4358 14.3309 20.2462 16.2211L18.0832 19.6578V22.1928C18.0832 23.587 18.0646 24.7277 18.0419 24.7277C18.0191 24.7277 17.13 24.2494 16.066 23.6648L14.1315 22.602L14.1308 21.1004L14.1301 19.599L11.9297 16.0768C10.7195 14.1396 9.72938 12.5413 9.72938 12.5249C9.72938 12.5087 12.6171 12.4953 16.1465 12.4953C22.471 12.4953 22.5626 12.4974 22.4864 12.6398ZM15.6252 26.3724C14.7567 26.5507 13.9701 27.1794 13.5768 28.0093C13.37 28.4455 13.3469 28.5659 13.3469 29.2046C13.3469 29.8547 13.3673 29.9563 13.5886 30.4058C13.8798 30.9972 14.4133 31.521 15.0088 31.8001C15.3825 31.9752 15.5279 32 16.183 32C16.8769 32 16.9662 31.9825 17.4265 31.7558C18.0438 31.4518 18.6023 30.8628 18.8397 30.2656C18.9718 29.9335 19.0108 29.6855 19.0129 29.1641C19.0153 28.5509 18.9941 28.4483 18.7731 28.008C18.4946 27.453 18.3127 27.2318 17.8351 26.8673C17.2684 26.4346 16.3375 26.2262 15.6252 26.3724ZM17.0017 27.4097C17.8899 27.8075 18.3545 28.8707 18.0459 29.7996C17.5935 31.1618 15.8524 31.5914 14.8134 30.5972C14.3911 30.1932 14.2456 29.8371 14.2436 29.203C14.2422 28.7146 14.2709 28.5925 14.4701 28.2413C14.9849 27.3338 16.0506 26.9837 17.0017 27.4097Z" fill="#112235"/>
</g>
<defs>
<clipPath id="clip0_1_7595">
<rect width="32" height="32" fill="white"/>
</clipPath>
</defs>
</svg>
