<svg width="32" height="32" viewBox="0 0 32 32" fill="none" xmlns="http://www.w3.org/2000/svg">
<path d="M28.4749 19.4325C28.2874 19.2519 28.0842 19.086 27.8664 18.9362L27.8578 26.8607C28.0703 26.7117 28.2743 26.5424 28.4698 26.3529L28.4749 19.4325Z" fill="#D1F960"/>
<path fill-rule="evenodd" clip-rule="evenodd" d="M3.04834 0.194567C2.57496 0.421301 2.3315 0.659413 2.13958 1.08342C2.00217 1.38696 2.00163 1.4456 2.00081 15.9824L2 30.5765L2.15942 30.9189C2.35466 31.3382 2.78307 31.717 3.24413 31.8779C3.57096 31.992 4.23559 31.9987 15.2384 31.9987C16.3162 31.9987 17.2986 31.9991 18.1944 31.9994C26.6802 32.0027 27.389 32.003 27.7448 31.6487C27.7772 31.6165 27.8067 31.5812 27.8389 31.5428C27.8762 31.4982 27.9171 31.4494 27.9703 31.3958C28.3289 31.035 28.4368 30.8399 28.4671 30.1026L28.4692 27.2479L28.4487 27.2273L28.4692 27.2067L28.4698 26.3529C28.2743 26.5424 28.0703 26.7117 27.8578 26.8607L27.8566 27.9706C27.8644 28.1963 27.8631 28.5615 27.8553 29.1288C27.8364 30.5213 27.8238 30.6588 27.6993 30.8234C27.4886 31.1021 27.1847 31.2796 26.7899 31.3544C26.292 31.4489 4.18479 31.4489 3.6869 31.3544C3.24413 31.2705 2.93118 31.0651 2.74718 30.7378C2.74572 30.7352 2.74426 30.7326 2.74283 30.73C2.7413 30.7273 2.73978 30.7246 2.73828 30.7218C2.60815 30.4835 2.60815 30.1741 2.60815 15.9867C2.60815 15.0629 2.60807 14.1969 2.60799 13.3852C2.60691 1.77331 2.60686 1.26065 2.8589 1.05087C2.87055 1.04118 2.88273 1.03214 2.89547 1.02267C2.91475 1.00836 2.93531 0.993086 2.95726 0.973171C2.98437 0.948555 3.00608 0.925623 3.02631 0.90426C3.04121 0.888519 3.0553 0.87363 3.07016 0.859546C3.32996 0.61329 3.82314 0.613244 12.9394 0.612402C13.6478 0.612337 14.4083 0.612266 15.2248 0.612075C25.8721 0.609637 26.9468 0.619254 27.144 0.718874C27.2632 0.779079 27.4321 0.893394 27.5195 0.972833C27.5377 0.989342 27.5549 1.00386 27.5712 1.01763C27.5922 1.03538 27.6118 1.05188 27.63 1.06978C27.8695 1.30572 27.8695 1.78494 27.8687 8.57963C27.8687 8.97928 27.8686 9.40077 27.8686 9.84535V16.8629V18.2077L27.8672 18.2069L27.8664 18.9362C28.0842 19.086 28.2874 19.2519 28.4749 19.4325L28.4776 15.6439L28.4766 9.98005C28.4751 1.48265 28.4737 1.38486 28.3372 1.08342C28.1453 0.659413 27.9018 0.421301 27.4284 0.194567L27.0221 0H15.2384H3.45468L3.04834 0.194567ZM23.3336 1.48529C23.2867 1.57292 23.2635 3.69189 23.2635 7.88025C23.2635 13.4844 23.2747 14.1554 23.3699 14.2506C23.4579 14.3386 23.6666 14.357 24.5753 14.357C25.3399 14.357 25.6991 14.3323 25.7557 14.2758C25.8735 14.1579 25.8735 1.55342 25.7557 1.43558C25.6989 1.37883 25.3318 1.35431 24.539 1.35431C23.4859 1.35431 23.3986 1.36379 23.3336 1.48529ZM25.2274 7.85567V13.7475H24.5502H23.873V7.85567V1.96382H24.5502H25.2274V7.85567ZM10.2384 2.60535C10.1371 2.70673 10.1253 2.96604 10.1253 5.10417C10.1253 6.86949 10.1465 7.5111 10.2066 7.57123C10.2668 7.63144 10.9173 7.6525 12.7138 7.6525H15.1397L15.2164 7.48421C15.3272 7.24109 15.1764 6.2606 14.9303 5.62401C14.2588 3.88646 12.7144 2.73328 10.7971 2.5377C10.4299 2.50024 10.3316 2.51216 10.2384 2.60535ZM11.9236 3.41876C13.1792 3.89133 14.2584 5.11453 14.5238 6.36577C14.5673 6.57063 14.6168 6.80685 14.634 6.89062L14.6653 7.043H12.7001H10.7348V5.08927V3.13562L11.1089 3.19426C11.3147 3.2265 11.6813 3.32754 11.9236 3.41876ZM8.77814 3.53233C7.78248 3.67469 6.91678 4.10147 6.15423 4.82583C5.56179 5.38861 5.12654 6.05825 4.86716 6.80597C4.69725 7.29574 4.6789 7.43884 4.67646 8.29586C4.67409 9.11368 4.69542 9.30913 4.83188 9.71803C5.1174 10.5736 5.43786 11.0955 6.0601 11.7184C7.02155 12.6808 8.11283 13.138 9.44811 13.138C11.9595 13.138 13.9429 11.3732 14.2664 8.85058C14.2729 8.79964 14.2795 8.75171 14.2858 8.70661C14.3195 8.46262 14.3417 8.3015 14.2757 8.19521C14.1474 7.98857 13.6854 7.98913 12.3253 7.99079C12.196 7.99094 12.0585 7.99111 11.9125 7.99111H9.78673V5.82785C9.78673 3.66913 9.78639 3.66433 9.63618 3.55915C9.471 3.44342 9.4127 3.44159 8.77814 3.53233ZM9.17722 6.28451C9.17722 7.86921 9.19869 8.45955 9.25849 8.51935C9.31829 8.57915 9.90863 8.60061 11.4933 8.60061H13.6469L13.6461 8.82071C13.6439 9.44166 13.1705 10.5181 12.6376 11.1143C12.1903 11.6148 11.4958 12.0822 10.8687 12.3048C10.2652 12.5192 9.26818 12.5895 8.61459 12.464C7.10986 12.1751 5.7439 10.8565 5.35192 9.31441C5.22203 8.80351 5.22169 7.87971 5.35118 7.33055C5.6967 5.86503 6.89715 4.63377 8.36455 4.23983C8.56942 4.18484 8.83611 4.13784 8.95713 4.1354L9.17722 4.13093V6.28451ZM20.0941 4.27992C20.0324 4.34162 20.0128 5.53848 20.0128 9.25271C20.0128 13.6092 20.0245 14.1558 20.1192 14.2506C20.2072 14.3386 20.4159 14.357 21.3247 14.357C22.0892 14.357 22.4485 14.3323 22.505 14.2758C22.6226 14.1582 22.6226 4.39749 22.505 4.27992C22.391 4.16588 20.2081 4.16588 20.0941 4.27992ZM21.9768 9.27784V13.7475H21.2995H20.6223V9.27784V4.80816H21.2995H21.9768V9.27784ZM16.8685 6.47217C16.7743 6.56637 16.7621 7.01279 16.7621 10.3614C16.7621 13.71 16.7743 14.1564 16.8685 14.2506C16.9566 14.3386 17.1652 14.357 18.074 14.357C18.8385 14.357 19.1978 14.3323 19.2543 14.2758C19.3716 14.1585 19.3716 6.56434 19.2543 6.44704C19.1978 6.39049 18.8385 6.36577 18.074 6.36577C17.1652 6.36577 16.9566 6.38419 16.8685 6.47217ZM18.7261 10.3614V13.7475H18.0489H17.3716V10.3614V6.97528H18.0489H18.7261V10.3614ZM5.0194 17.8988C4.93936 17.9574 4.90671 18.0537 4.92182 18.1867L4.94457 18.3865L11.683 18.404C17.9578 18.4203 25.8766 18.4136 25.9555 18.3064C26.0696 18.1512 26.063 18.1046 25.9047 17.9463C25.771 17.8127 18.2295 17.8109 11.7297 17.8109C6.43128 17.8109 5.11618 17.8281 5.0194 17.8988ZM4.99198 21.0751C4.88748 21.1796 4.88748 21.4176 4.99198 21.5221C5.05408 21.5842 6.64204 21.6033 11.7265 21.6033H25.8293L25.9296 21.4601C26.0313 21.3149 26.0081 21.1362 25.8757 21.0456C25.8358 21.0183 15.3655 20.9954 11.7134 20.9948C6.63797 20.9941 5.05408 21.013 4.99198 21.0751ZM4.99198 24.1903C4.88748 24.2948 4.88748 24.5328 4.99198 24.6373C5.05408 24.6994 6.63797 24.7183 11.7134 24.7175C15.3655 24.7169 25.8358 24.6941 25.8757 24.6667C26.0081 24.5761 26.0313 24.3975 25.9296 24.2523L25.8293 24.1091H11.7265C6.64204 24.1091 5.05408 24.1282 4.99198 24.1903ZM4.95588 27.3372C4.85701 27.436 4.91376 27.7629 5.04169 27.8314C5.18431 27.9077 25.6024 27.9353 25.7994 27.8597C25.9723 27.7934 26.0562 27.584 25.9724 27.4275C25.9007 27.2934 18.3811 27.292 11.7257 27.292C8.02716 27.292 4.98067 27.3123 4.95588 27.3372Z" fill="#D1F960"/>
<path d="M9.17722 6.28451C9.17722 7.86921 9.19869 8.45955 9.25849 8.51935C9.31829 8.57915 9.90863 8.60061 11.4933 8.60061H13.6469L13.6461 8.82071C13.6439 9.44166 13.1705 10.5181 12.6376 11.1143C12.1903 11.6148 11.4958 12.0822 10.8687 12.3048C10.2652 12.5192 9.26818 12.5895 8.61459 12.464C7.10986 12.1751 5.7439 10.8565 5.35192 9.31441C5.22203 8.80351 5.22169 7.87971 5.35118 7.33055C5.6967 5.86503 6.89715 4.63377 8.36455 4.23983C8.56942 4.18484 8.83611 4.13784 8.95713 4.1354L9.17722 4.13093V6.28451Z" fill="#D1F960"/>
<path d="M18.7261 10.3614V13.7475H18.0489H17.3716V10.3614V6.97528H18.0489H18.7261V10.3614Z" fill="#D1F960"/>
<path d="M21.9768 9.27784V13.7475H21.2995H20.6223V9.27784V4.80816H21.2995H21.9768V9.27784Z" fill="#D1F960"/>
<path d="M25.2274 7.85567V13.7475H24.5502H23.873V7.85567V1.96382H24.5502H25.2274V7.85567Z" fill="#D1F960"/>
<path d="M28.4749 19.4325C28.2874 19.2519 28.0842 19.086 27.8664 18.9362L27.8578 26.8607C28.0703 26.7117 28.2743 26.5424 28.4698 26.3529L28.4749 19.4325Z" fill="#112235"/>
<path fill-rule="evenodd" clip-rule="evenodd" d="M3.04834 0.194567C2.57496 0.421301 2.3315 0.659413 2.13958 1.08342C2.00217 1.38696 2.00163 1.4456 2.00081 15.9824L2 30.5765L2.15942 30.9189C2.35466 31.3382 2.78307 31.717 3.24413 31.8779C3.57096 31.992 4.23559 31.9987 15.2384 31.9987C16.3162 31.9987 17.2986 31.9991 18.1944 31.9994C26.6802 32.0027 27.389 32.003 27.7448 31.6487C27.7772 31.6165 27.8067 31.5812 27.8389 31.5428C27.8762 31.4982 27.9171 31.4494 27.9703 31.3958C28.3289 31.035 28.4368 30.8399 28.4671 30.1026L28.4692 27.2479L28.4487 27.2273L28.4692 27.2067L28.4698 26.3529C28.2743 26.5424 28.0703 26.7117 27.8578 26.8607L27.8566 27.9706C27.8644 28.1963 27.8631 28.5615 27.8553 29.1288C27.8364 30.5213 27.8238 30.6588 27.6993 30.8234C27.4886 31.1021 27.1847 31.2796 26.7899 31.3544C26.292 31.4489 4.18479 31.4489 3.6869 31.3544C3.24413 31.2705 2.93118 31.0651 2.74718 30.7378C2.74572 30.7352 2.74426 30.7326 2.74283 30.73C2.7413 30.7273 2.73978 30.7246 2.73828 30.7218C2.60815 30.4835 2.60815 30.1741 2.60815 15.9867C2.60815 15.0629 2.60807 14.1969 2.60799 13.3852C2.60691 1.77331 2.60686 1.26065 2.8589 1.05087C2.87055 1.04118 2.88273 1.03214 2.89547 1.02267C2.91475 1.00836 2.93532 0.993086 2.95726 0.973171C2.98437 0.948555 3.00608 0.925623 3.02631 0.90426C3.04121 0.888519 3.0553 0.87363 3.07016 0.859546C3.32996 0.61329 3.82314 0.613244 12.9394 0.612402C13.6478 0.612337 14.4083 0.612266 15.2248 0.612075C25.8721 0.609637 26.9468 0.619254 27.144 0.718874C27.2632 0.779079 27.4321 0.893394 27.5195 0.972833C27.5377 0.989342 27.5549 1.00386 27.5712 1.01763C27.5922 1.03538 27.6118 1.05188 27.63 1.06978C27.8695 1.30572 27.8695 1.78494 27.8687 8.57963C27.8687 8.97928 27.8686 9.40077 27.8686 9.84535V16.8629V18.2077L27.8672 18.2069L27.8664 18.9362C28.0842 19.086 28.2874 19.2519 28.4749 19.4325L28.4776 15.6439L28.4766 9.98005C28.4751 1.48265 28.4737 1.38486 28.3372 1.08342C28.1453 0.659413 27.9018 0.421301 27.4284 0.194567L27.0221 0H15.2384H3.45468L3.04834 0.194567ZM23.3336 1.48529C23.2867 1.57292 23.2635 3.69189 23.2635 7.88025C23.2635 13.4844 23.2747 14.1554 23.3699 14.2506C23.4579 14.3386 23.6666 14.357 24.5753 14.357C25.3399 14.357 25.6991 14.3323 25.7557 14.2758C25.8735 14.1579 25.8735 1.55342 25.7557 1.43558C25.6989 1.37883 25.3318 1.35431 24.539 1.35431C23.4859 1.35431 23.3986 1.36379 23.3336 1.48529ZM25.2274 7.85567V13.7475H24.5502H23.873V7.85567V1.96382H24.5502H25.2274V7.85567ZM10.2384 2.60535C10.1371 2.70673 10.1253 2.96604 10.1253 5.10417C10.1253 6.86949 10.1465 7.5111 10.2066 7.57123C10.2668 7.63144 10.9173 7.6525 12.7138 7.6525H15.1397L15.2164 7.48421C15.3272 7.24109 15.1764 6.2606 14.9303 5.62401C14.2588 3.88646 12.7144 2.73328 10.7971 2.5377C10.4299 2.50024 10.3316 2.51216 10.2384 2.60535ZM11.9236 3.41876C13.1792 3.89133 14.2584 5.11453 14.5238 6.36577C14.5673 6.57063 14.6168 6.80685 14.634 6.89062L14.6653 7.043H12.7001H10.7348V5.08927V3.13562L11.1089 3.19426C11.3147 3.2265 11.6813 3.32754 11.9236 3.41876ZM8.77814 3.53233C7.78248 3.67469 6.91678 4.10147 6.15423 4.82583C5.56179 5.38861 5.12654 6.05825 4.86716 6.80597C4.69725 7.29574 4.6789 7.43884 4.67646 8.29586C4.67409 9.11368 4.69542 9.30913 4.83188 9.71803C5.1174 10.5736 5.43786 11.0955 6.0601 11.7184C7.02155 12.6808 8.11283 13.138 9.44811 13.138C11.9595 13.138 13.9429 11.3732 14.2664 8.85058C14.2729 8.79964 14.2795 8.75171 14.2858 8.70661C14.3195 8.46262 14.3417 8.3015 14.2757 8.19521C14.1474 7.98857 13.6854 7.98913 12.3253 7.99079C12.196 7.99095 12.0585 7.99111 11.9125 7.99111H9.78673V5.82785C9.78673 3.66913 9.78639 3.66433 9.63618 3.55915C9.471 3.44342 9.4127 3.44159 8.77814 3.53233ZM9.17722 6.28451C9.17722 7.86921 9.19869 8.45955 9.25849 8.51935C9.31829 8.57915 9.90863 8.60061 11.4933 8.60061H13.6469L13.6461 8.82071C13.6439 9.44166 13.1705 10.5181 12.6376 11.1143C12.1903 11.6148 11.4958 12.0822 10.8687 12.3048C10.2652 12.5192 9.26818 12.5895 8.61459 12.464C7.10986 12.1751 5.7439 10.8565 5.35192 9.31441C5.22203 8.80351 5.22169 7.87971 5.35118 7.33055C5.6967 5.86503 6.89715 4.63377 8.36455 4.23983C8.56942 4.18484 8.83611 4.13784 8.95713 4.1354L9.17722 4.13093V6.28451ZM20.0941 4.27992C20.0324 4.34162 20.0128 5.53848 20.0128 9.25271C20.0128 13.6092 20.0245 14.1558 20.1192 14.2506C20.2072 14.3386 20.4159 14.357 21.3247 14.357C22.0892 14.357 22.4485 14.3323 22.505 14.2758C22.6226 14.1582 22.6226 4.39749 22.505 4.27992C22.391 4.16588 20.2081 4.16588 20.0941 4.27992ZM21.9768 9.27784V13.7475H21.2995H20.6223V9.27784V4.80816H21.2995H21.9768V9.27784ZM16.8685 6.47217C16.7743 6.56637 16.7621 7.01279 16.7621 10.3614C16.7621 13.71 16.7743 14.1564 16.8685 14.2506C16.9566 14.3386 17.1652 14.357 18.074 14.357C18.8385 14.357 19.1978 14.3323 19.2543 14.2758C19.3716 14.1585 19.3716 6.56434 19.2543 6.44704C19.1978 6.39049 18.8385 6.36577 18.074 6.36577C17.1652 6.36577 16.9566 6.38419 16.8685 6.47217ZM18.7261 10.3614V13.7475H18.0489H17.3716V10.3614V6.97528H18.0489H18.7261V10.3614ZM5.0194 17.8988C4.93936 17.9574 4.90671 18.0537 4.92182 18.1867L4.94457 18.3865L11.683 18.404C17.9578 18.4203 25.8766 18.4136 25.9555 18.3064C26.0696 18.1512 26.063 18.1046 25.9047 17.9463C25.771 17.8127 18.2295 17.8109 11.7297 17.8109C6.43128 17.8109 5.11618 17.8281 5.0194 17.8988ZM4.99198 21.0751C4.88748 21.1796 4.88748 21.4176 4.99198 21.5221C5.05408 21.5842 6.64203 21.6033 11.7265 21.6033H25.8293L25.9296 21.4601C26.0313 21.3149 26.0081 21.1362 25.8757 21.0456C25.8358 21.0183 15.3655 20.9954 11.7134 20.9948C6.63797 20.9941 5.05408 21.013 4.99198 21.0751ZM4.99198 24.1903C4.88748 24.2948 4.88748 24.5328 4.99198 24.6373C5.05408 24.6994 6.63797 24.7183 11.7134 24.7175C15.3655 24.7169 25.8358 24.6941 25.8757 24.6667C26.0081 24.5761 26.0313 24.3975 25.9296 24.2523L25.8293 24.1091H11.7265C6.64203 24.1091 5.05408 24.1282 4.99198 24.1903ZM4.95588 27.3372C4.85701 27.436 4.91376 27.7629 5.04169 27.8314C5.18431 27.9077 25.6024 27.9353 25.7994 27.8597C25.9723 27.7934 26.0562 27.584 25.9724 27.4275C25.9007 27.2934 18.3811 27.292 11.7257 27.292C8.02716 27.292 4.98067 27.3123 4.95588 27.3372Z" fill="#112235"/>
</svg>
