<svg width="32" height="32" viewBox="0 0 32 32" fill="none" xmlns="http://www.w3.org/2000/svg">
<rect x="0.5" y="3.5" width="31" height="24" rx="1.5" stroke="#112235"/>
<path d="M13.0516 15.5606C13.0116 15.6144 12.9858 15.6501 12.9736 15.6903C12.943 15.2283 12.9714 14.5268 13.0069 13.9824C13.0195 14.0035 13.0359 14.0261 13.0561 14.0533C13.1804 14.2207 13.4804 14.2772 13.6297 14.1615C13.68 14.1224 13.7984 13.8571 13.8927 13.572C13.7818 13.9702 13.6155 14.9858 13.8301 15.8823C13.7413 15.5243 13.5918 15.3706 13.3534 15.3913C13.2229 15.4026 13.1304 15.4545 13.0516 15.5606Z" fill="#D1F960"/>
<path fill-rule="evenodd" clip-rule="evenodd" d="M24.649 14.7764L24.6169 15.092C24.4701 16.5354 24.1681 17.5115 23.5887 18.4154L23.4181 18.6815L23.8514 19.1196C24.2214 19.4937 24.3058 19.5536 24.429 19.5298C24.8184 19.4544 24.9045 19.5232 26.85 21.4634C27.5692 22.1806 28.0478 22.6589 28.3663 23.0064C28.3868 23.0287 28.4066 23.0505 28.4258 23.0718C28.7379 23.4182 28.8804 23.629 28.9455 23.828C28.9981 23.9891 29 24.1425 29 24.3538C29 24.8674 28.8674 25.2 28.5268 25.541C28.1589 25.9092 27.9217 26 27.3277 26C26.8864 26 26.7692 25.9802 26.5601 25.8704C26.4031 25.7879 25.6578 25.0891 24.5113 23.9496L24.3857 23.8247C24.1345 23.5747 23.9161 23.3566 23.7264 23.1651C23.6731 23.1113 23.6221 23.0597 23.5732 23.01C22.5763 21.9961 22.4839 21.8125 22.5111 21.4966C22.5259 21.3255 22.4864 21.2662 22.0964 20.8736L21.6655 20.4397L21.4074 20.5987C20.153 21.3712 18.6054 21.7366 17.1936 21.5934C16.1502 21.4876 15.1941 21.1846 14.3784 20.7013C14.1771 20.582 13.9947 20.4844 13.9731 20.4844C13.7517 20.3244 13.2724 19.963 13.126 19.7984L12.76 19.3867C11.672 18.163 11.095 16.7613 11.0091 15.1332C10.9137 13.3232 11.5687 11.5176 12.798 10.2023L13.1269 9.85029C13.39 9.56871 13.7758 9.29155 13.9358 9.18816L14.1511 9.0521C16.3176 7.68312 19.1168 7.64739 21.3001 8.96088C22.9449 9.9504 24.0944 11.5676 24.4676 13.417L24.5703 13.9257C24.6053 14.1229 24.67 14.5691 24.649 14.7764ZM13.0566 11.1652C13.8894 10.0723 15.1828 9.24672 16.5101 8.96077C17.1055 8.83251 17.957 8.78591 18.4935 8.85221C19.5365 8.98119 20.6433 9.44145 21.4901 10.0984C23.6214 11.7517 24.368 14.6588 23.3077 17.1753C22.7928 18.3976 21.698 19.5651 20.5014 20.168C18.1749 21.3404 15.3454 20.8617 13.5294 18.9885C13.004 18.4464 12.7025 18.0107 12.3771 17.3231C11.4362 15.3348 11.6999 12.9454 13.0566 11.1652ZM23.0214 20.6501L22.6672 20.2923L22.313 19.9346L22.6146 19.6327L22.9161 19.3309L23.2703 19.6886L23.6245 20.0463L23.323 20.3482L23.0214 20.6501ZM23.9201 20.9066C23.5929 21.2294 23.3252 21.5134 23.3252 21.5377C23.3252 21.6097 23.7163 22.0212 23.7848 22.0212L24.4217 22.6551C24.4217 22.6878 24.9719 23.2604 25.6443 23.9276C26.9599 25.2327 26.9945 25.2563 27.4914 25.1896C27.7686 25.1524 27.9586 25.009 28.0945 24.7344C28.2173 24.4865 28.2346 24.2473 28.1467 24.0143C28.0967 23.8819 25.7089 21.4175 25.6305 21.4175L25.049 20.8151L24.8062 20.5675C24.6726 20.4313 24.5525 20.3198 24.5392 20.3198C24.5259 20.3198 24.2473 20.5839 23.9201 20.9066Z" fill="#D1F960"/>
<path d="M18.8291 9.97702C20.3509 10.304 21.6181 11.3271 22.2841 12.7666C22.5793 13.4048 22.6755 13.8264 22.7071 14.619C22.7639 16.0495 22.3064 17.2596 21.3326 18.2545C19.8467 19.7726 17.6063 20.1784 15.7078 19.2734C14.9099 18.8931 14.2118 18.304 13.7325 17.6066C13.4802 17.2396 13.1425 16.5031 13.0334 16.082C13.0237 16.0446 13.015 16.011 13.0074 15.9806C12.9921 15.9021 12.9811 15.8033 12.9736 15.6903C12.9858 15.6501 13.0116 15.6144 13.0516 15.5606C13.1304 15.4545 13.2229 15.4026 13.3534 15.3913C13.5918 15.3706 13.7413 15.5243 13.8301 15.8823L13.8348 15.9016C14.0023 16.607 14.6219 17.5436 15.2531 18.0453C15.6426 18.355 16.3219 18.6869 16.8279 18.8147C17.279 18.9287 18.2735 18.9439 18.6896 18.8432C19.9432 18.5399 20.9922 17.6973 21.5189 16.5708C21.8094 15.9493 21.9154 15.3958 21.8881 14.6435C21.8471 13.5131 21.506 12.7362 20.6933 11.9221C19.8781 11.1056 19.1197 10.7724 17.9793 10.7298C17.1736 10.6997 16.7126 10.7863 16.0752 11.0877C14.9906 11.6003 14.2754 12.4144 13.8927 13.572C13.7984 13.8571 13.68 14.1224 13.6297 14.1615C13.4804 14.2772 13.1804 14.2207 13.0561 14.0533C13.0359 14.0261 13.0195 14.0035 13.0069 13.9824C13.0178 13.8143 13.0295 13.6613 13.0402 13.5348C13.4782 11.7899 14.9956 10.3541 16.8045 9.97323C17.2867 9.87164 18.348 9.87367 18.8291 9.97702Z" fill="#D1F960"/>
<path fill-rule="evenodd" clip-rule="evenodd" d="M13.0074 15.9806C13.015 16.0196 13.0236 16.0536 13.0334 16.082C13.0237 16.0446 13.015 16.011 13.0074 15.9806ZM12.9736 15.6903C12.943 15.2283 12.9714 14.5268 13.0069 13.9824C13.0195 14.0035 13.0359 14.0261 13.0561 14.0533C13.1804 14.2207 13.4804 14.2772 13.6297 14.1615C13.68 14.1224 13.7984 13.8571 13.8927 13.572C13.7818 13.9702 13.6155 14.9858 13.8301 15.8823C13.7413 15.5243 13.5918 15.3706 13.3534 15.3913C13.2229 15.4026 13.1304 15.4545 13.0516 15.5606C13.0116 15.6144 12.9858 15.6501 12.9736 15.6903ZM23.7848 22.0212L24.4217 22.6551C24.4217 22.6224 24.6874 22.3305 25.012 22.0065C25.3367 21.6826 25.615 21.4175 25.6305 21.4175L25.049 20.8151L24.4485 21.4182C24.1182 21.7499 23.8195 22.0212 23.7848 22.0212Z" fill="#D1F960"/>
<path fill-rule="evenodd" clip-rule="evenodd" d="M16.5101 8.96077C15.1828 9.24672 13.8894 10.0723 13.0566 11.1652C11.6999 12.9454 11.4362 15.3348 12.3771 17.3231C12.7025 18.0107 13.004 18.4464 13.5294 18.9885C15.3454 20.8617 18.1749 21.3404 20.5014 20.168C21.698 19.5651 22.7928 18.3976 23.3077 17.1753C24.368 14.6588 23.6214 11.7517 21.4901 10.0984C20.6433 9.44145 19.5365 8.98119 18.4935 8.85221C17.957 8.78591 17.1055 8.83251 16.5101 8.96077ZM22.2841 12.7666C21.6181 11.3271 20.3509 10.304 18.8291 9.97702C18.348 9.87367 17.2867 9.87164 16.8045 9.97323C14.9956 10.3541 13.4782 11.7899 13.0402 13.5348C12.9668 13.8276 12.9531 13.8924 13.0069 13.9824C12.9714 14.5268 12.943 15.2283 12.9736 15.6903C12.9552 15.7508 12.9673 15.8217 13.0074 15.9806C13.015 16.0196 13.0236 16.0536 13.0334 16.082C13.1425 16.5031 13.4802 17.2396 13.7325 17.6066C14.2118 18.304 14.9099 18.8931 15.7078 19.2734C17.6063 20.1784 19.8467 19.7726 21.3326 18.2545C22.3064 17.2596 22.7639 16.0495 22.7071 14.619C22.6755 13.8264 22.5793 13.4048 22.2841 12.7666Z" fill="#D1F960"/>
<path d="M24.4217 22.6551C24.4217 22.6224 24.6874 22.3305 25.012 22.0065C25.3367 21.6826 25.615 21.4175 25.6305 21.4175C25.7089 21.4175 28.0967 23.8819 28.1467 24.0143C28.2346 24.2473 28.2173 24.4865 28.0945 24.7344C27.9586 25.009 27.7686 25.1524 27.4914 25.1896C26.9945 25.2563 26.9599 25.2327 25.6443 23.9276C24.9719 23.2604 24.4217 22.6878 24.4217 22.6551Z" fill="#D1F960"/>
<path d="M23.3252 21.5377C23.3252 21.5134 23.5929 21.2294 23.9201 20.9066C24.2473 20.5839 24.5259 20.3198 24.5392 20.3198C24.5525 20.3198 24.6726 20.4313 24.8062 20.5675L25.049 20.8151L24.4485 21.4182C24.1182 21.7499 23.8195 22.0212 23.7848 22.0212C23.7163 22.0212 23.3252 21.6097 23.3252 21.5377Z" fill="#D1F960"/>
<path d="M22.6672 20.2923L23.0214 20.6501L23.323 20.3482L23.6245 20.0463L23.2703 19.6886L22.9161 19.3309L22.6146 19.6327L22.313 19.9346L22.6672 20.2923Z" fill="#D1F960"/>
<path d="M13.0516 15.5606C13.0116 15.6144 12.9858 15.6501 12.9736 15.6903C12.943 15.2283 12.9714 14.5268 13.0069 13.9824C13.0195 14.0035 13.0359 14.0261 13.0561 14.0533C13.1804 14.2207 13.4804 14.2772 13.6297 14.1615C13.68 14.1224 13.7984 13.8571 13.8927 13.572C13.7818 13.9702 13.6155 14.9858 13.8301 15.8823C13.7413 15.5243 13.5918 15.3706 13.3534 15.3913C13.2229 15.4026 13.1304 15.4545 13.0516 15.5606Z" fill="#112235"/>
<path fill-rule="evenodd" clip-rule="evenodd" d="M24.649 14.7764L24.6169 15.092C24.4701 16.5354 24.1681 17.5115 23.5887 18.4154L23.4181 18.6815L23.8514 19.1196C24.2214 19.4937 24.3058 19.5536 24.429 19.5298C24.8184 19.4544 24.9045 19.5232 26.85 21.4634C27.5692 22.1806 28.0478 22.6589 28.3663 23.0064C28.3868 23.0287 28.4066 23.0505 28.4258 23.0718C28.7379 23.4182 28.8804 23.629 28.9455 23.828C28.9981 23.9891 29 24.1425 29 24.3538C29 24.8674 28.8674 25.2 28.5268 25.541C28.1589 25.9092 27.9217 26 27.3277 26C26.8864 26 26.7692 25.9802 26.5601 25.8704C26.4031 25.7879 25.6578 25.0891 24.5113 23.9496L24.3857 23.8247C24.1345 23.5747 23.9161 23.3566 23.7264 23.1651C23.6731 23.1113 23.6221 23.0597 23.5732 23.01C22.5763 21.9961 22.4839 21.8125 22.5111 21.4966C22.5259 21.3255 22.4864 21.2662 22.0964 20.8736L21.6655 20.4397L21.4074 20.5987C20.153 21.3712 18.6054 21.7366 17.1936 21.5934C16.1502 21.4876 15.1941 21.1846 14.3784 20.7013C14.1771 20.582 13.9947 20.4844 13.9731 20.4844C13.7517 20.3244 13.2724 19.963 13.126 19.7984L12.76 19.3867C11.672 18.163 11.095 16.7613 11.0091 15.1332C10.9137 13.3232 11.5687 11.5176 12.798 10.2023L13.1269 9.85029C13.39 9.56871 13.7758 9.29155 13.9358 9.18816L14.1511 9.0521C16.3176 7.68312 19.1168 7.64739 21.3001 8.96088C22.9449 9.9504 24.0944 11.5676 24.4676 13.417L24.5703 13.9257C24.6053 14.1229 24.67 14.5691 24.649 14.7764ZM13.0566 11.1652C13.8894 10.0723 15.1828 9.24672 16.5101 8.96077C17.1055 8.83251 17.957 8.78591 18.4935 8.85221C19.5365 8.98119 20.6433 9.44145 21.4901 10.0984C23.6214 11.7517 24.368 14.6588 23.3077 17.1753C22.7928 18.3976 21.698 19.5651 20.5014 20.168C18.1749 21.3404 15.3454 20.8617 13.5294 18.9885C13.004 18.4464 12.7025 18.0107 12.3771 17.3231C11.4362 15.3348 11.6999 12.9454 13.0566 11.1652ZM23.0214 20.6501L22.6672 20.2923L22.313 19.9346L22.6146 19.6327L22.9161 19.3309L23.2703 19.6886L23.6245 20.0463L23.323 20.3482L23.0214 20.6501ZM23.9201 20.9066C23.5929 21.2294 23.3252 21.5134 23.3252 21.5377C23.3252 21.6097 23.7163 22.0212 23.7848 22.0212L24.4217 22.6551C24.4217 22.6878 24.9719 23.2604 25.6443 23.9276C26.9599 25.2327 26.9945 25.2563 27.4914 25.1896C27.7686 25.1524 27.9586 25.009 28.0945 24.7344C28.2173 24.4865 28.2346 24.2473 28.1467 24.0143C28.0967 23.8819 25.7089 21.4175 25.6305 21.4175L25.049 20.8151L24.8062 20.5675C24.6726 20.4313 24.5525 20.3198 24.5392 20.3198C24.5259 20.3198 24.2473 20.5839 23.9201 20.9066Z" fill="#112235"/>
<path d="M18.8291 9.97702C20.3509 10.304 21.6181 11.3271 22.2841 12.7666C22.5793 13.4048 22.6755 13.8264 22.7071 14.619C22.7639 16.0495 22.3064 17.2596 21.3326 18.2545C19.8467 19.7726 17.6063 20.1784 15.7078 19.2734C14.9099 18.8931 14.2118 18.304 13.7325 17.6066C13.4802 17.2396 13.1425 16.5031 13.0334 16.082C13.0237 16.0446 13.015 16.011 13.0074 15.9806C12.9921 15.9021 12.9811 15.8033 12.9736 15.6903C12.9858 15.6501 13.0116 15.6144 13.0516 15.5606C13.1304 15.4545 13.2229 15.4026 13.3534 15.3913C13.5918 15.3706 13.7413 15.5243 13.8301 15.8823L13.8348 15.9016C14.0023 16.607 14.6219 17.5436 15.2531 18.0453C15.6426 18.355 16.3219 18.6869 16.8279 18.8147C17.279 18.9287 18.2735 18.9439 18.6896 18.8432C19.9432 18.5399 20.9922 17.6973 21.5189 16.5708C21.8094 15.9493 21.9154 15.3958 21.8881 14.6435C21.8471 13.5131 21.506 12.7362 20.6933 11.9221C19.8781 11.1056 19.1197 10.7724 17.9793 10.7298C17.1736 10.6997 16.7126 10.7863 16.0752 11.0877C14.9906 11.6003 14.2754 12.4144 13.8927 13.572C13.7984 13.8571 13.68 14.1224 13.6297 14.1615C13.4804 14.2772 13.1804 14.2207 13.0561 14.0533C13.0359 14.0261 13.0195 14.0035 13.0069 13.9824C13.0178 13.8143 13.0295 13.6613 13.0402 13.5348C13.4782 11.7899 14.9956 10.3541 16.8045 9.97323C17.2867 9.87164 18.348 9.87367 18.8291 9.97702Z" fill="#112235"/>
<path fill-rule="evenodd" clip-rule="evenodd" d="M13.0074 15.9806C13.015 16.0196 13.0236 16.0536 13.0334 16.082C13.0237 16.0446 13.015 16.011 13.0074 15.9806ZM12.9736 15.6903C12.943 15.2283 12.9714 14.5268 13.0069 13.9824C13.0195 14.0035 13.0359 14.0261 13.0561 14.0533C13.1804 14.2207 13.4804 14.2772 13.6297 14.1615C13.68 14.1224 13.7984 13.8571 13.8927 13.572C13.7818 13.9702 13.6155 14.9858 13.8301 15.8823C13.7413 15.5243 13.5918 15.3706 13.3534 15.3913C13.2229 15.4026 13.1304 15.4545 13.0516 15.5606C13.0116 15.6144 12.9858 15.6501 12.9736 15.6903ZM23.7848 22.0212L24.4217 22.6551C24.4217 22.6224 24.6874 22.3305 25.012 22.0065C25.3367 21.6826 25.615 21.4175 25.6305 21.4175L25.049 20.8151L24.4485 21.4182C24.1182 21.7499 23.8195 22.0212 23.7848 22.0212Z" fill="#112235"/>
<circle cx="4" cy="7" r="1" fill="#112235"/>
<circle cx="7" cy="7" r="1" fill="#112235"/>
<circle cx="10" cy="7" r="1" fill="#112235"/>
</svg>
