<svg width="32" height="32" viewBox="0 0 32 32" fill="none" xmlns="http://www.w3.org/2000/svg">
<g clip-path="url(#clip0_1_7666)">
<path d="M23.8252 10.6539C23.7891 10.7167 23.4198 11.2967 23.0046 11.9429L22.2496 13.1176H16.006H9.7624L9.00748 11.9429C8.59228 11.2967 8.22296 10.7167 8.18681 10.6539C8.12436 10.5454 8.51566 10.5397 16.006 10.5397C23.4964 10.5397 23.8877 10.5454 23.8252 10.6539Z" fill="#D1F960"/>
<path fill-rule="evenodd" clip-rule="evenodd" d="M22.8724 9.75651H19.0383H18.5993H18.2275H15.0524H14.2348H11.7295C7.35316 9.75651 7.26223 9.75912 7.13244 9.88704C7.0596 9.95883 7 10.078 7 10.1519C7 10.2258 8.44527 12.5627 10.2117 15.3449L13.4234 20.4036V21.7572C13.4234 22.7403 13.4461 23.1395 13.5062 23.2161C13.577 23.3063 16.8223 25.0978 17.7927 25.5824C18.1883 25.78 18.2214 25.7819 18.39 25.6157C18.5178 25.4897 18.5224 25.3982 18.5224 22.9448V20.4045L21.7448 15.3579C23.5172 12.5823 24.9802 10.2481 24.9961 10.1708C25.0137 10.0855 24.9704 9.97658 24.8861 9.89343C24.7515 9.76081 24.688 9.75651 22.8724 9.75651ZM23.8252 10.6539C23.7891 10.7167 23.4198 11.2967 23.0046 11.9429L22.2496 13.1176H16.006H9.7624L9.00748 11.9429C8.59228 11.2967 8.22296 10.7167 8.18681 10.6539C8.12436 10.5454 8.51566 10.5397 16.006 10.5397C23.4964 10.5397 23.8877 10.5454 23.8252 10.6539ZM21.637 14.0598C21.5993 14.1293 20.7042 15.5395 19.6481 17.1934L17.7278 20.2006V22.4187C17.7278 23.6386 17.7113 24.6367 17.6911 24.6367C17.6709 24.6367 16.8815 24.2182 15.9368 23.7067L14.2194 22.7767L14.2187 21.4629L14.2181 20.1491L12.2645 17.0672C11.1901 15.3722 10.311 13.9736 10.311 13.9593C10.311 13.9451 12.8748 13.9334 16.0083 13.9334C21.6233 13.9334 21.7046 13.9352 21.637 14.0598Z" fill="#D1F960"/>
<path fill-rule="evenodd" clip-rule="evenodd" d="M18.5993 9.75651H19.0383H22.8724C24.688 9.75651 24.7515 9.76081 24.8861 9.89343C24.9704 9.97658 25.0137 10.0855 24.9961 10.1708C24.9802 10.2481 23.5172 12.5823 21.7448 15.3579L18.5224 20.4045V22.9448C18.5224 25.3982 18.5178 25.4897 18.39 25.6157C18.2214 25.7819 18.1883 25.78 17.7927 25.5824C16.8223 25.0978 13.577 23.3063 13.5062 23.2161C13.4461 23.1395 13.4234 22.7403 13.4234 21.7572V20.4036L10.2117 15.3449C8.44527 12.5627 7 10.2258 7 10.1519C7 10.078 7.0596 9.95883 7.13244 9.88704C7.26223 9.75912 7.35316 9.75651 11.7295 9.75651H14.2348H15.0524H18.2275H18.5993ZM23.8252 10.6539C23.7891 10.7167 23.4198 11.2967 23.0046 11.9429L22.2496 13.1176H16.006H9.7624L9.00748 11.9429C8.59228 11.2967 8.22296 10.7167 8.18681 10.6539C8.12436 10.5454 8.51566 10.5397 16.006 10.5397C23.4964 10.5397 23.8877 10.5454 23.8252 10.6539ZM21.637 14.0598C21.5993 14.1293 20.7042 15.5395 19.6481 17.1934L17.7278 20.2006V22.4187C17.7278 23.6386 17.7113 24.6367 17.6911 24.6367C17.6709 24.6367 16.8815 24.2182 15.9368 23.7067L14.2194 22.7767L14.2187 21.4629L14.2181 20.1491L12.2645 17.0672C11.1901 15.3722 10.311 13.9736 10.311 13.9593C10.311 13.9451 12.8748 13.9334 16.0083 13.9334C21.6233 13.9334 21.7046 13.9352 21.637 14.0598Z" fill="#112235"/>
<path d="M2.64359 8.28868L16 0.57735L29.3564 8.28868V23.7113L16 31.4227L2.64359 23.7113V8.28868Z" stroke="#112235"/>
</g>
<defs>
<clipPath id="clip0_1_7666">
<rect width="32" height="32" fill="white"/>
</clipPath>
</defs>
</svg>
