<svg width="16" height="16" viewBox="0 0 16 16" fill="none" xmlns="http://www.w3.org/2000/svg">
<path d="M2.64894 13.2447C2.28471 13.2447 1.97301 13.1151 1.71386 12.856C1.45426 12.5964 1.32446 12.2845 1.32446 11.9202V3.9734C1.32446 3.60917 1.45426 3.29748 1.71386 3.03832C1.97301 2.77872 2.28471 2.64893 2.64894 2.64893H13.2447C13.609 2.64893 13.9209 2.77872 14.1805 3.03832C14.4396 3.29748 14.5692 3.60917 14.5692 3.9734V11.9202C14.5692 12.2845 14.4396 12.5964 14.1805 12.856C13.9209 13.1151 13.609 13.2447 13.2447 13.2447H2.64894ZM7.94683 8.60905L2.64894 5.29787V11.9202H13.2447V5.29787L7.94683 8.60905ZM7.94683 7.28458L13.2447 3.9734H2.64894L7.94683 7.28458Z" fill="#112235"/>
</svg>
