<svg width="32" height="32" viewBox="0 0 32 32" fill="none" xmlns="http://www.w3.org/2000/svg">
<path d="M9.0259 20.9127C9.09939 20.8645 10.4532 20.3907 12.097 19.8369L6.13723 21.8409C6.6352 21.6749 7.07365 21.544 7.14414 21.5414C7.3805 21.5327 7.58631 21.7518 7.58631 22.0122C7.58631 22.1394 7.54884 22.2886 7.50299 22.3438C7.46102 22.3944 7.09985 22.538 6.67725 22.687L10.925 21.2627C9.50224 21.7339 9.18507 21.8026 9.02622 21.6747C8.98418 21.6408 8.95322 21.5932 8.9158 21.5357C8.91336 21.5319 8.91089 21.5281 8.9084 21.5243C8.90606 21.5207 8.9037 21.5171 8.90131 21.5134C8.77162 21.3155 8.82832 21.0422 9.0259 20.9127Z" fill="#D1F960"/>
<path d="M21.0623 13.0045L20.9018 12.844L20.9011 12.0205L20.899 14.5384H21.3141H21.8862L21.8829 12.8622L21.7423 13.0118C21.552 13.2143 21.2691 13.2113 21.0623 13.0045Z" fill="#D1F960"/>
<path fill-rule="evenodd" clip-rule="evenodd" d="M4.93623 0.902523C5.15925 0.416338 5.59423 0.0916924 6.12135 0.0180519C6.9346 -0.0956788 7.63 0.3357 7.85635 1.09428C7.92253 1.31624 7.95255 1.72493 7.95255 2.40509V3.39348L12.1444 1.99196C16.0979 0.670091 16.3466 0.595535 16.5184 0.681078C16.6185 0.730913 17.7789 1.81505 19.0971 3.09029C21.0892 5.01756 21.5237 5.47006 21.6719 5.77169L21.8501 6.13453L21.8682 9.49655L21.8809 11.857L21.8862 12.8586L21.8829 12.8622L21.7423 13.0118C21.552 13.2143 21.2691 13.2113 21.0623 13.0045L20.9018 12.844L20.9011 12.0205L20.899 9.62003C20.8965 6.7075 20.8855 6.37612 20.7846 6.18894C20.7232 6.07502 20.0696 5.40081 19.3322 4.69076C18.5948 3.98071 17.734 3.14751 17.4192 2.83922L16.847 2.27867V8.40856V14.5384H20.899H21.3141H21.8862H25.7811L26.1156 14.7051C26.2996 14.7968 26.5299 14.9764 26.6274 15.1042C26.9826 15.57 26.984 15.5888 26.984 20.0751V24.2177H27.4934C28.0892 24.2177 28.6402 24.3471 29.1037 24.5959C29.56 24.8408 30.1844 25.4829 30.4006 25.9296C30.7481 26.6475 30.7773 26.8881 30.7757 29.0219C30.7744 30.7993 30.7627 31.0122 30.6521 31.2557C30.5009 31.5886 30.1801 31.8408 29.7949 31.9296C29.4625 32.0061 8.98573 32.0203 1.21634 31.972V31.0193V29.9729V28.9265V27.9455V26.5721V25.1987L1.21405 24.2177L1.23152 15.4377L1.24904 6.65773L1.3888 6.35545C1.56597 5.97234 1.94588 5.54992 2.28995 5.35359C2.43684 5.26974 3.06475 5.03352 3.6852 4.82856L4.81335 4.45597L4.81479 2.81005C4.81603 1.35404 4.83009 1.13391 4.93623 0.902523ZM6.90157 1.34267C6.85782 1.21703 6.75017 1.10337 6.61375 1.03862C6.49394 0.981722 6.38563 0.939212 6.37307 0.944117C6.36052 0.949022 6.28459 0.965699 6.20441 0.981199C6.12416 0.996699 5.99912 1.08492 5.92646 1.17733C5.80331 1.3339 5.79435 1.43972 5.79435 2.73791V4.13054L6.38295 3.93316L6.97155 3.73572V2.63955C6.97155 2.02982 6.94049 1.4543 6.90157 1.34267ZM15.866 4.45591V3.1207C15.866 2.38632 15.8439 1.78771 15.8169 1.79046C15.7899 1.79327 15.2676 1.96684 14.6561 2.17625C14.0446 2.38567 11.1354 3.36575 8.1912 4.35427C5.24702 5.3428 2.76018 6.2083 2.66489 6.27769C2.5696 6.34701 2.42533 6.53354 2.3443 6.69213L2.19702 6.98048L2.2135 18.9835L2.23004 30.9866H3.50535H4.78065L4.81335 28.9592C4.84709 26.8678 4.85586 26.7998 5.13224 26.4836C5.19051 26.417 5.32236 26.319 5.42523 26.2657C5.57389 26.1888 9.69082 25.0112 10.3763 24.8495C10.8069 24.7479 11.4244 25.1366 11.5498 25.5882C11.5871 25.7223 11.6144 26.9156 11.6146 28.4205L11.615 31.0211L13.7241 31.0038L15.8333 30.9866L15.85 25.3131C15.8596 22.032 15.8422 19.6396 15.8085 19.6396C15.7765 19.6396 14.3005 20.128 12.5283 20.7248L12.3148 20.7967L12.3131 20.7973C11.7603 20.9835 11.3035 21.1373 10.925 21.2627C9.50224 21.7339 9.18507 21.8026 9.02622 21.6747C8.98418 21.6408 8.95322 21.5932 8.9158 21.5357L8.9084 21.5243L8.90131 21.5134C8.77162 21.3155 8.82832 21.0422 9.0259 20.9127C9.09939 20.8645 10.4532 20.3907 12.097 19.8369L12.3952 19.7366C14.1703 19.1408 15.6775 18.6241 15.7444 18.5883C15.8562 18.5285 15.866 18.4258 15.866 17.3157C15.866 16.6515 15.8454 16.108 15.8203 16.108C15.7952 16.108 13.453 16.8879 10.6156 17.8411C7.77806 18.7944 5.3718 19.5742 5.26827 19.5742C4.88895 19.5742 4.67673 19.093 4.9278 18.8021C5.00732 18.71 6.69491 18.1154 10.4541 16.8553L15.866 15.041V13.8088C15.866 13.131 15.8467 12.5764 15.8233 12.5764C15.7997 12.5764 13.4574 13.3563 10.618 14.3095C7.77859 15.2627 5.36984 16.0426 5.2652 16.0426C4.89915 16.0426 4.68006 15.5959 4.89922 15.2962C4.99091 15.1708 6.5543 14.6245 12.4161 12.6696L15.866 11.5191V10.282C15.866 9.60158 15.8482 9.04483 15.8265 9.04483C15.8047 9.04483 13.462 9.82473 10.6204 10.7779C7.77885 11.7311 5.36866 12.511 5.26448 12.511C4.89889 12.511 4.68032 12.064 4.89935 11.7644C4.98849 11.6425 6.78738 11.0151 12.7104 9.03986L15.866 7.98751V6.7504C15.866 6.06998 15.8439 5.51336 15.8169 5.51349C15.7899 5.51369 13.4479 6.29358 10.6124 7.24659C7.77695 8.19967 5.37108 8.97943 5.26598 8.97943C4.89883 8.97943 4.67987 8.53295 4.89961 8.23243C4.98555 8.11491 7.05801 7.39361 13.1028 5.37752L15.866 4.45591ZM26.003 15.9218L25.8337 15.7207L25.6643 15.5194H21.2557H16.847V21.7325V27.9455V28.9265V29.9729V31.0193H20.444H24.041V29.9729V28.9265V27.9455L24.0421 27.5694C24.0458 26.3445 24.6623 25.234 25.667 24.6428L26.0004 24.4466L26.0017 20.1842L26.003 15.9218ZM18.1559 19.4334C18.157 18.5326 18.2022 18.3825 18.5416 18.1538C18.7627 18.0048 18.7656 18.0046 21.343 18.0046C23.5955 18.0046 23.9517 18.0182 24.1484 18.1116C24.4916 18.2744 24.5871 18.5197 24.6154 19.3126C24.6454 20.148 24.5616 20.4535 24.2438 20.6673L24.0216 20.8168H21.3763C19.0449 20.8168 18.7096 20.8042 18.55 20.7099C18.2136 20.5112 18.1549 20.3209 18.1559 19.4334ZM23.6486 19.8358V19.4107V18.9856H21.3923H19.136V19.4107V19.8358H21.3923H23.6486ZM4.90445 22.3522C4.96004 22.2762 5.38691 22.095 5.9999 21.8871C6.04602 21.8715 6.09187 21.8561 6.13723 21.8409C6.6352 21.6749 7.07365 21.544 7.14414 21.5414C7.3805 21.5327 7.58631 21.7518 7.58631 22.0122C7.58631 22.1394 7.54884 22.2886 7.50299 22.3438C7.46102 22.3944 7.09985 22.538 6.67725 22.687C6.09826 22.8913 5.40397 23.1059 5.25728 23.1059C4.90425 23.1059 4.68922 22.6466 4.90445 22.3522ZM18.1559 23.6391C18.1549 22.7585 18.212 22.5688 18.5391 22.3658C18.6786 22.2791 18.905 22.2588 19.7442 22.2574C21.2914 22.2548 21.3596 22.3153 21.3596 23.6922V24.5465L21.1358 24.7909L20.9122 25.0352L19.8437 25.0557C18.8143 25.0755 18.767 25.0707 18.5479 24.9229C18.2018 24.6897 18.157 24.543 18.1559 23.6391ZM20.3786 24.0869V23.6618V23.2367H19.7573H19.136V23.6618V24.0869H19.7573H20.3786ZM29.7841 27.4059C29.7358 26.4881 29.3165 25.8183 28.5395 25.4171C28.2426 25.2639 28.1017 25.236 27.5399 25.2195C26.6298 25.1928 26.1937 25.3503 25.663 25.8976C25.3001 26.2719 25.0813 26.8076 25.0389 27.4259L25.0033 27.9455L25.0186 28.9265L25.0367 29.9565L25.0547 30.9866H27.3624C29.3426 30.9866 29.679 30.9726 29.7322 30.8885C29.7663 30.8345 29.7946 30.371 29.7952 29.8584L29.7962 28.9265L29.8126 27.9455L29.7841 27.4059ZM10.6013 30.9866L10.6184 28.44C10.6278 27.0394 10.6131 25.8732 10.5857 25.8485C10.5583 25.8237 10.1161 25.923 9.60312 26.0691L8.67032 26.3345L7.6092 26.6413C7.56427 26.6435 7.14486 26.7542 6.67725 26.8875L5.82705 27.1297L5.80972 29.0745L5.79239 31.0193H6.74167H7.69095L8.70465 30.9866H9.65296H10.6013Z" fill="#D1F960"/>
<path d="M10.6013 30.9866L10.6184 28.44C10.6278 27.0394 10.6131 25.8732 10.5857 25.8485C10.5583 25.8237 10.1161 25.923 9.60312 26.0691L8.67032 26.3345L8.68752 28.6605L8.70465 30.9866H9.65296H10.6013Z" fill="#D1F960"/>
<path d="M8.70465 30.9866L8.68752 28.6605L8.67032 26.3345L7.6092 26.6413C7.67303 26.6383 7.69095 27.1172 7.69095 28.8284V31.0193L8.70465 30.9866Z" fill="#D1F960"/>
<path d="M7.69095 31.0193V28.8284C7.69095 27.1172 7.67303 26.6383 7.6092 26.6413C7.56427 26.6435 7.14486 26.7542 6.67725 26.8875L5.82705 27.1297L5.80972 29.0745L5.79239 31.0193H6.74167H7.69095Z" fill="#D1F960"/>
<path d="M29.7841 27.4059C29.7358 26.4881 29.3165 25.8183 28.5395 25.4171C28.2426 25.2639 28.1017 25.236 27.5399 25.2195C26.6298 25.1928 26.1937 25.3503 25.663 25.8976C25.3001 26.2719 25.0813 26.8076 25.0389 27.4259L25.0033 27.9455H27.408H29.8126L29.7841 27.4059Z" fill="#D1F960"/>
<path d="M29.8126 27.9455H27.408H25.0033L25.0186 28.9265H27.4074H29.7962L29.8126 27.9455Z" fill="#D1F960"/>
<path d="M29.7322 30.8885C29.7663 30.8345 29.7946 30.371 29.7952 29.8584L29.7962 28.9265H27.4074H25.0186L25.0367 29.9565L25.0547 30.9866H27.3624C29.3426 30.9866 29.679 30.9726 29.7322 30.8885Z" fill="#D1F960"/>
<path d="M20.3786 23.6618V24.0869H19.7573H19.136V23.6618V23.2367H19.7573H20.3786V23.6618Z" fill="#D1F960"/>
<path d="M23.6486 19.4107V19.8358H21.3923H19.136V19.4107V18.9856H21.3923H23.6486V19.4107Z" fill="#D1F960"/>
<path d="M6.61375 1.03862C6.75017 1.10337 6.85782 1.21703 6.90157 1.34267C6.94049 1.4543 6.97155 2.02982 6.97155 2.63955V3.73572L6.38295 3.93316L5.79435 4.13054V2.73791C5.79435 1.43972 5.80331 1.3339 5.92646 1.17733C5.99912 1.08492 6.12416 0.996699 6.20441 0.981199C6.28459 0.965699 6.36052 0.949022 6.37307 0.944117C6.38563 0.939212 6.49394 0.981722 6.61375 1.03862Z" fill="#D1F960"/>
<path d="M9.0259 20.9127C9.09939 20.8645 10.4532 20.3907 12.097 19.8369L6.13723 21.8409C6.6352 21.6749 7.07365 21.544 7.14414 21.5414C7.3805 21.5327 7.58631 21.7518 7.58631 22.0122C7.58631 22.1394 7.54884 22.2886 7.50299 22.3438C7.46102 22.3944 7.09985 22.538 6.67725 22.687L10.925 21.2627C9.50224 21.7339 9.18507 21.8026 9.02622 21.6747C8.98418 21.6408 8.95322 21.5932 8.9158 21.5357C8.91336 21.5319 8.9109 21.5281 8.9084 21.5243C8.90606 21.5207 8.9037 21.5171 8.90131 21.5134C8.77162 21.3155 8.82832 21.0422 9.0259 20.9127Z" fill="#112235"/>
<path d="M21.0623 13.0045L20.9018 12.844L20.9011 12.0205L20.899 14.5384H21.3141H21.8862L21.8829 12.8622L21.7423 13.0118C21.552 13.2143 21.2691 13.2113 21.0623 13.0045Z" fill="#112235"/>
<path fill-rule="evenodd" clip-rule="evenodd" d="M4.93623 0.902523C5.15925 0.416338 5.59423 0.0916924 6.12135 0.0180519C6.9346 -0.0956788 7.63 0.3357 7.85635 1.09428C7.92253 1.31624 7.95255 1.72493 7.95255 2.40509V3.39348L12.1444 1.99196C16.0979 0.670091 16.3466 0.595535 16.5184 0.681078C16.6185 0.730913 17.7789 1.81505 19.0971 3.09029C21.0892 5.01756 21.5237 5.47006 21.6719 5.77169L21.8501 6.13453L21.8682 9.49655L21.8809 11.857L21.8862 12.8586L21.8829 12.8622L21.7423 13.0118C21.552 13.2143 21.2691 13.2113 21.0623 13.0045L20.9018 12.844L20.9011 12.0205L20.899 9.62003C20.8965 6.7075 20.8855 6.37612 20.7846 6.18894C20.7232 6.07502 20.0696 5.40081 19.3322 4.69076C18.5948 3.98071 17.734 3.14751 17.4192 2.83922L16.847 2.27867V8.40856V14.5384H20.899H21.3141H21.8862H25.7811L26.1156 14.7051C26.2996 14.7968 26.5299 14.9764 26.6274 15.1042C26.9826 15.57 26.984 15.5888 26.984 20.0751V24.2177H27.4934C28.0892 24.2177 28.6402 24.3471 29.1037 24.5959C29.56 24.8408 30.1844 25.4829 30.4006 25.9296C30.7481 26.6475 30.7773 26.8881 30.7757 29.0219C30.7744 30.7993 30.7627 31.0122 30.6521 31.2557C30.5009 31.5886 30.1801 31.8408 29.7949 31.9296C29.4625 32.0061 8.98573 32.0203 1.21634 31.972V31.0193V29.9729V28.9265V27.9455V26.5721V25.1987L1.21405 24.2177L1.23152 15.4377L1.24904 6.65773L1.3888 6.35545C1.56597 5.97234 1.94588 5.54992 2.28995 5.35359C2.43684 5.26974 3.06475 5.03352 3.6852 4.82856L4.81335 4.45597L4.81479 2.81005C4.81603 1.35404 4.83009 1.13391 4.93623 0.902523ZM6.90157 1.34267C6.85782 1.21703 6.75017 1.10337 6.61375 1.03862C6.49394 0.981722 6.38563 0.939212 6.37307 0.944117C6.36052 0.949022 6.28459 0.965699 6.20441 0.981199C6.12416 0.996699 5.99912 1.08492 5.92646 1.17733C5.80331 1.3339 5.79435 1.43972 5.79435 2.73791V4.13054L6.38295 3.93316L6.97155 3.73572V2.63955C6.97155 2.02982 6.94049 1.4543 6.90157 1.34267ZM15.866 4.45591V3.1207C15.866 2.38632 15.8439 1.78771 15.8169 1.79046C15.7899 1.79327 15.2676 1.96684 14.6561 2.17625C14.0446 2.38567 11.1354 3.36575 8.1912 4.35427C5.24702 5.3428 2.76018 6.2083 2.66489 6.27769C2.5696 6.34701 2.42533 6.53354 2.3443 6.69213L2.19702 6.98048L2.2135 18.9835L2.23004 30.9866H3.50535H4.78065L4.81335 28.9592C4.84709 26.8678 4.85586 26.7998 5.13224 26.4836C5.19051 26.417 5.32236 26.319 5.42523 26.2657C5.57389 26.1888 9.69082 25.0112 10.3763 24.8495C10.8069 24.7479 11.4244 25.1366 11.5498 25.5882C11.5871 25.7223 11.6144 26.9156 11.6146 28.4205L11.615 31.0211L13.7241 31.0038L15.8333 30.9866L15.85 25.3131C15.8596 22.032 15.8422 19.6396 15.8085 19.6396C15.7765 19.6396 14.3005 20.128 12.5283 20.7248L12.3148 20.7967L12.3131 20.7973C11.7603 20.9835 11.3035 21.1373 10.925 21.2627C9.50224 21.7339 9.18507 21.8026 9.02622 21.6747C8.98418 21.6408 8.95322 21.5932 8.9158 21.5357L8.9084 21.5243L8.90131 21.5134C8.77162 21.3155 8.82832 21.0422 9.0259 20.9127C9.09939 20.8645 10.4532 20.3907 12.097 19.8369L12.3952 19.7366C14.1703 19.1408 15.6775 18.6241 15.7444 18.5883C15.8562 18.5285 15.866 18.4258 15.866 17.3157C15.866 16.6515 15.8454 16.108 15.8203 16.108C15.7952 16.108 13.453 16.8879 10.6156 17.8411C7.77806 18.7944 5.3718 19.5742 5.26827 19.5742C4.88895 19.5742 4.67673 19.093 4.9278 18.8021C5.00732 18.71 6.69491 18.1154 10.4541 16.8553L15.866 15.041V13.8088C15.866 13.131 15.8467 12.5764 15.8233 12.5764C15.7997 12.5764 13.4574 13.3563 10.618 14.3095C7.77859 15.2627 5.36984 16.0426 5.2652 16.0426C4.89915 16.0426 4.68006 15.5959 4.89922 15.2962C4.99091 15.1708 6.5543 14.6245 12.4161 12.6696L15.866 11.5191V10.282C15.866 9.60158 15.8482 9.04483 15.8265 9.04483C15.8047 9.04483 13.462 9.82473 10.6204 10.7779C7.77885 11.7311 5.36866 12.511 5.26448 12.511C4.89889 12.511 4.68032 12.064 4.89935 11.7644C4.98849 11.6425 6.78738 11.0151 12.7104 9.03986L15.866 7.98751V6.7504C15.866 6.06998 15.8439 5.51336 15.8169 5.51349C15.7899 5.51369 13.4479 6.29358 10.6124 7.24659C7.77695 8.19967 5.37108 8.97943 5.26598 8.97943C4.89883 8.97943 4.67987 8.53295 4.89961 8.23243C4.98555 8.11491 7.05801 7.39361 13.1028 5.37752L15.866 4.45591ZM26.003 15.9218L25.8337 15.7207L25.6643 15.5194H21.2557H16.847V21.7325V27.9455V28.9265V29.9729V31.0193H20.444H24.041V29.9729V28.9265V27.9455L24.0421 27.5694C24.0458 26.3445 24.6623 25.234 25.667 24.6428L26.0004 24.4466L26.0017 20.1842L26.003 15.9218ZM18.1559 19.4334C18.157 18.5326 18.2022 18.3825 18.5416 18.1538C18.7627 18.0048 18.7656 18.0046 21.343 18.0046C23.5955 18.0046 23.9517 18.0182 24.1484 18.1116C24.4916 18.2744 24.5871 18.5197 24.6154 19.3126C24.6454 20.148 24.5616 20.4535 24.2438 20.6673L24.0216 20.8168H21.3763C19.0449 20.8168 18.7096 20.8042 18.55 20.7099C18.2136 20.5112 18.1549 20.3209 18.1559 19.4334ZM23.6486 19.8358V19.4107V18.9856H21.3923H19.136V19.4107V19.8358H21.3923H23.6486ZM4.90445 22.3522C4.96004 22.2762 5.38691 22.095 5.9999 21.8871C6.04602 21.8715 6.09187 21.8561 6.13723 21.8409C6.6352 21.6749 7.07365 21.544 7.14414 21.5414C7.3805 21.5327 7.58631 21.7518 7.58631 22.0122C7.58631 22.1394 7.54884 22.2886 7.50299 22.3438C7.46102 22.3944 7.09985 22.538 6.67725 22.687C6.09826 22.8913 5.40397 23.1059 5.25728 23.1059C4.90425 23.1059 4.68922 22.6466 4.90445 22.3522ZM18.1559 23.6391C18.1549 22.7585 18.212 22.5688 18.5391 22.3658C18.6786 22.2791 18.905 22.2588 19.7442 22.2574C21.2914 22.2548 21.3596 22.3153 21.3596 23.6922V24.5465L21.1358 24.7909L20.9122 25.0352L19.8437 25.0557C18.8143 25.0755 18.767 25.0707 18.5479 24.9229C18.2018 24.6897 18.157 24.543 18.1559 23.6391ZM20.3786 24.0869V23.6618V23.2367H19.7573H19.136V23.6618V24.0869H19.7573H20.3786ZM29.7841 27.4059C29.7358 26.4881 29.3165 25.8183 28.5395 25.4171C28.2426 25.2639 28.1017 25.236 27.5399 25.2195C26.6298 25.1928 26.1937 25.3503 25.663 25.8976C25.3001 26.2719 25.0813 26.8076 25.0389 27.4259L25.0033 27.9455L25.0186 28.9265L25.0367 29.9565L25.0547 30.9866H27.3624C29.3426 30.9866 29.679 30.9726 29.7322 30.8885C29.7663 30.8345 29.7946 30.371 29.7952 29.8584L29.7962 28.9265L29.8126 27.9455L29.7841 27.4059ZM10.6013 30.9866L10.6184 28.44C10.6278 27.0394 10.6131 25.8732 10.5857 25.8485C10.5583 25.8237 10.1161 25.923 9.60312 26.0691L8.67032 26.3345L7.6092 26.6413C7.56427 26.6435 7.14486 26.7542 6.67725 26.8875L5.82705 27.1297L5.80972 29.0745L5.79239 31.0193H6.74167H7.69095L8.70465 30.9866H9.65296H10.6013Z" fill="#112235"/>
</svg>
