<svg width="32" height="32" viewBox="0 0 32 32" fill="none" xmlns="http://www.w3.org/2000/svg">
<g clip-path="url(#clip0_1_15227)">
<path fill-rule="evenodd" clip-rule="evenodd" d="M1.30606 0.109191C1.18818 0.169254 1.03349 0.297818 0.962303 0.394882C0.833488 0.570509 0.832801 0.603447 0.816426 7.49492L0.799988 14.4185L0.803602 14.4231L0.930365 14.5842C1.1103 14.813 1.43006 14.8135 1.60956 14.5852C1.73881 14.4209 1.73913 14.4046 1.73913 7.67886V0.937202H11.0479H20.3567L20.3762 2.54822L20.3956 4.15918L20.5994 4.57275C20.8365 5.05407 21.1756 5.38476 21.6694 5.61633C22.0123 5.77708 22.0554 5.78152 23.4738 5.80171C24.53 5.81671 24.9268 5.84233 24.9262 5.89546C24.9258 5.93565 24.5039 7.37241 23.9887 9.08831C23.4735 10.8042 23.0519 12.2975 23.0519 12.4068C23.0519 12.7839 23.537 12.9822 23.802 12.7134C23.8506 12.6641 24.057 12.0539 24.4 10.9493C24.5953 10.3203 24.835 9.53092 25.1149 8.59356C25.7721 6.39353 26.3308 4.57219 26.3564 4.54613C26.3967 4.50519 28.8304 5.19482 28.9034 5.26782C28.9256 5.28995 23.4389 23.7366 23.3908 23.8016C23.3744 23.8238 20.8627 23.0817 20.8244 23.0434C20.8117 23.0306 21.3791 21.0883 22.0854 18.7271C22.5882 17.0462 22.8946 16.0151 23.0748 15.3733C23.3155 14.5159 23.331 14.3535 23.2887 14.2653C23.1464 13.9683 22.6364 13.9128 22.494 14.1787C22.4602 14.2419 21.8241 16.328 21.0803 18.8146L19.7281 23.3356L19.9226 25.0585C20.0296 26.006 20.1338 26.9009 20.1541 27.0469C20.1769 27.2104 20.1665 27.3126 20.1271 27.3126C20.0919 27.3126 19.9364 27.1202 19.7815 26.885C19.4118 26.3239 19.1731 26.125 18.8688 26.125C18.5335 26.125 18.2495 26.3422 17.9664 26.8151C17.6241 27.3869 17.4353 27.6251 17.3243 27.6251C17.2713 27.6251 17.0816 27.5 16.9026 27.3471C16.2633 26.8009 15.8266 26.7977 15.1865 27.3348C14.8651 27.6045 14.7859 27.6129 14.515 27.4063C14.2424 27.1984 13.974 27.2016 13.8064 27.4148C13.5439 27.7484 13.7047 28.0697 14.2731 28.3478C14.8341 28.6223 15.1887 28.5431 15.8784 27.9896L16.0488 27.8529L16.3472 28.1039C17.2523 28.8651 17.8463 28.7417 18.5499 27.6461L18.8374 27.1983L19.1478 27.6137C19.5431 28.1429 20.0018 28.4011 20.5523 28.4043C20.8267 28.4058 20.9474 28.3763 21.0548 28.2813C21.1326 28.2126 21.8145 27.411 22.5703 26.5001C23.3261 25.5891 23.9852 24.7966 24.035 24.739C24.0848 24.6813 24.4173 23.6581 24.774 22.4651C25.1306 21.2722 25.4375 20.281 25.4559 20.2626C25.4744 20.2442 25.4895 22.6667 25.4895 25.6459V31.0626H13.6143H1.73913V23.6847V16.3067L1.58569 16.1533C1.38993 15.9576 1.15049 15.9578 0.954302 16.154L0.800113 16.3082L0.816488 23.8683C0.832801 31.4037 0.833301 31.4291 0.962303 31.6049C1.03349 31.702 1.18818 31.8306 1.30606 31.8906C1.50793 31.9936 2.22388 31.9999 13.6153 32C25.1999 32.0001 25.7193 31.9953 25.928 31.8861C26.0632 31.8153 26.199 31.6682 26.2863 31.4979L26.427 31.2236V24.0801V16.9365L27.841 12.2025C28.6187 9.59882 29.2595 7.46285 29.2651 7.45598C29.2759 7.44242 30.3216 7.75461 30.3509 7.78017C30.3606 7.78861 29.9308 9.26132 29.3956 11.0528C28.4622 14.1778 28.4264 14.3175 28.5162 14.4912C28.6695 14.7875 29.0061 14.8438 29.2224 14.6093C29.4004 14.4162 31.456 7.5611 31.4012 7.34304C31.3466 7.12516 31.184 7.03991 30.3374 6.78484C29.9271 6.66122 29.581 6.54965 29.5683 6.53684C29.5554 6.52403 29.6169 6.26559 29.7048 5.96252C29.9018 5.2827 29.9021 5.2202 29.7098 4.84032L29.5551 4.53469L29.8418 3.57493C30.0826 2.76885 30.1243 2.55341 30.1024 2.22934C30.0081 0.833513 28.4796 0.153316 27.3223 0.992265C26.9957 1.22908 26.7987 1.62446 26.4865 2.67048L26.221 3.56005L25.9493 3.69155C25.7999 3.76387 25.6291 3.90531 25.5697 4.00574C25.5103 4.10625 25.444 4.18112 25.4223 4.17225C25.4006 4.16331 24.4576 3.27292 23.3267 2.19359C22.1958 1.11433 21.1863 0.179254 21.0831 0.115691C20.9029 0.00462673 20.5219 0.000126673 11.208 1.67105e-06C2.10819 -0.000123331 1.50737 0.00650176 1.30606 0.109191ZM23.6043 4.86238C22.8709 4.87451 22.3682 4.85538 22.2082 4.80944C21.856 4.70819 21.5863 4.48544 21.4333 4.16918C21.3141 3.92299 21.3019 3.78905 21.3019 2.72629V1.55484L23.0262 3.19917L24.7504 4.84351L23.6043 4.86238ZM28.9344 1.80484C29.1299 2.0004 29.177 2.09297 29.177 2.28178C29.177 2.50272 28.7662 4.04012 28.6805 4.13975C28.6309 4.19737 27.2213 3.78899 27.1947 3.7093C27.1841 3.67736 27.2881 3.27261 27.4259 2.80985C27.6409 2.08803 27.7075 1.93959 27.8945 1.76534C28.0755 1.59677 28.1619 1.56221 28.4022 1.56221C28.6552 1.56221 28.7223 1.59284 28.9344 1.80484ZM7.71214 6.1839C7.39039 6.39603 7.36883 6.4949 7.36639 7.76855C7.36464 8.69981 7.38389 8.98156 7.45902 9.12688C7.66071 9.51682 7.39308 9.49982 13.3215 9.49982H18.7225L18.8947 9.36432C19.1927 9.13 19.2394 8.91544 19.2394 7.78105C19.2394 6.60947 19.1867 6.39265 18.8525 6.1889C18.6492 6.06496 18.5519 6.06277 13.2705 6.0629C8.06246 6.06308 7.88977 6.06683 7.71214 6.1839ZM18.3019 7.78105V8.56231H13.3018H8.30172V7.78105V6.99978H13.3018H18.3019V7.78105ZM6.89263 12.3408C6.80826 12.4252 6.73919 12.567 6.73919 12.6561C6.73919 12.7452 6.80826 12.8871 6.89263 12.9714L7.04601 13.1249L13.5646 13.1229C20.5615 13.1207 20.2293 13.1363 20.3554 12.8046C20.4259 12.6194 20.3068 12.2891 20.1474 12.228C20.0893 12.2056 17.1176 12.1874 13.5438 12.1874H7.04601L6.89263 12.3408ZM7.00889 15.8748C6.71963 15.9924 6.65138 16.3957 6.88382 16.614L7.02851 16.7499H13.1855H19.3426L19.4785 16.6053C19.6462 16.4267 19.6526 16.186 19.4949 15.9912L19.3754 15.8437L13.2605 15.8315C9.8108 15.8247 7.08595 15.8435 7.00889 15.8748ZM6.86663 19.6368C6.60113 19.9217 6.77226 20.33 7.18883 20.4054C7.30245 20.426 9.87999 20.4345 12.9167 20.4245L18.4379 20.4062L18.5574 20.2587C18.7123 20.0673 18.7098 19.7829 18.5519 19.625C18.4287 19.5018 18.3435 19.5 12.7105 19.5H6.99407L6.86663 19.6368ZM6.86876 23.2897C6.69688 23.5081 6.70513 23.7216 6.89263 23.9091L7.04601 24.0625H10.9209C13.6678 24.0625 14.8411 24.042 14.9509 23.9919C15.268 23.8475 15.2962 23.3518 14.9964 23.1913C14.9129 23.1466 13.591 23.125 10.9354 23.125H6.99826L6.86876 23.2897ZM21.8693 24.3505C22.3994 24.5089 22.8426 24.6472 22.8541 24.6579C22.8657 24.6686 22.4726 25.1598 21.9806 25.7496C21.4887 26.3394 21.0799 26.7987 21.0721 26.7704C21.0644 26.742 21.0001 26.1985 20.9293 25.5625C20.8585 24.9266 20.7875 24.3289 20.7716 24.2344C20.7522 24.12 20.7698 24.0625 20.8239 24.0625C20.8687 24.0625 21.3391 24.1921 21.8693 24.3505Z" fill="#D1F960"/>
<path d="M23.802 12.7134C23.537 12.9822 23.0519 12.7839 23.0519 12.4068L22.494 14.1787C22.6364 13.9128 23.1464 13.9683 23.2887 14.2653C23.331 14.3535 23.3155 14.5159 23.0748 15.3733L24.4 10.9493C24.057 12.0539 23.8506 12.6641 23.802 12.7134Z" fill="#D1F960"/>
<path d="M0.930365 14.5842L0.803602 14.4231L0.800113 16.3082L0.954302 16.154C1.15049 15.9578 1.38993 15.9576 1.58569 16.1533L1.73913 16.3067V7.67886C1.73913 14.4046 1.73881 14.4209 1.60956 14.5852C1.43006 14.8135 1.1103 14.813 0.930365 14.5842Z" fill="#D1F960"/>
<path d="M26.3564 4.54613C26.3308 4.57219 25.7721 6.39353 25.1149 8.59356C24.835 9.53092 24.5953 10.3203 24.4 10.9493L23.0748 15.3733C22.8946 16.0151 22.5882 17.0462 22.0854 18.7271C21.3791 21.0883 20.8117 23.0306 20.8244 23.0434C20.8627 23.0817 23.3744 23.8238 23.3908 23.8016C23.4389 23.7366 28.9256 5.28995 28.9034 5.26782C28.8304 5.19482 26.3967 4.50519 26.3564 4.54613Z" fill="#D1F960"/>
<path d="M18.3019 7.78105V8.56231H13.3018H8.30172V7.78105V6.99978H13.3018H18.3019V7.78105Z" fill="#D1F960"/>
<path fill-rule="evenodd" clip-rule="evenodd" d="M1.30612 0.109191C1.18824 0.169254 1.03355 0.297818 0.962364 0.394882C0.833549 0.570509 0.832862 0.603447 0.816487 7.49492L0.800049 14.4185L0.803663 14.4231L0.930426 14.5842C1.11037 14.813 1.43012 14.8135 1.60962 14.5852C1.73887 14.4209 1.73919 14.4046 1.73919 7.67886V0.937202H11.048H20.3568L20.3763 2.54822L20.3957 4.15918L20.5994 4.57275C20.8366 5.05407 21.1756 5.38476 21.6695 5.61633C22.0123 5.77708 22.0555 5.78152 23.4739 5.80171C24.5301 5.81671 24.9268 5.84233 24.9263 5.89546C24.9259 5.93565 24.504 7.37242 23.9887 9.08831C23.4735 10.8042 23.052 12.2975 23.052 12.4068C23.052 12.7839 23.537 12.9822 23.8021 12.7134C23.8506 12.6641 24.0571 12.0539 24.4 10.9493C24.5954 10.3203 24.835 9.53092 25.115 8.59356C25.7722 6.39353 26.3308 4.57219 26.3565 4.54613C26.3967 4.50519 28.8304 5.19482 28.9034 5.26782C28.9256 5.28995 23.4389 23.7366 23.3909 23.8016C23.3745 23.8238 20.8628 23.0817 20.8245 23.0434C20.8118 23.0306 21.3792 21.0883 22.0855 18.7271C22.5883 17.0462 22.8946 16.0151 23.0748 15.3733C23.3156 14.5159 23.3311 14.3535 23.2888 14.2653C23.1465 13.9683 22.6365 13.9128 22.4941 14.1787C22.4603 14.2419 21.8241 16.328 21.0804 18.8146L19.7281 23.3356L19.9227 25.0585C20.0297 26.006 20.1339 26.9009 20.1542 27.0469C20.1769 27.2104 20.1666 27.3126 20.1272 27.3126C20.092 27.3126 19.9365 27.1202 19.7816 26.885C19.4119 26.3239 19.1731 26.125 18.8689 26.125C18.5335 26.125 18.2495 26.3422 17.9665 26.8151C17.6242 27.3869 17.4353 27.6251 17.3243 27.6251C17.2714 27.6251 17.0817 27.5 16.9027 27.3471C16.2633 26.8009 15.8267 26.7977 15.1866 27.3348C14.8651 27.6045 14.7859 27.6129 14.515 27.4063C14.2425 27.1984 13.974 27.2016 13.8064 27.4148C13.544 27.7484 13.7047 28.0697 14.2732 28.3478C14.8342 28.6223 15.1888 28.5431 15.8785 27.9896L16.0488 27.8529L16.3473 28.1039C17.2523 28.8651 17.8463 28.7417 18.5499 27.6461L18.8375 27.1983L19.1479 27.6137C19.5432 28.1429 20.0019 28.4011 20.5524 28.4043C20.8268 28.4058 20.9474 28.3763 21.0549 28.2813C21.1326 28.2126 21.8146 27.411 22.5704 26.5001C23.3262 25.5891 23.9853 24.7966 24.0351 24.739C24.0849 24.6813 24.4174 23.6581 24.7741 22.4651C25.1307 21.2722 25.4376 20.281 25.456 20.2626C25.4744 20.2442 25.4895 22.6667 25.4895 25.6459V31.0626H13.6143H1.73919V23.6847V16.3067L1.58575 16.1533C1.38999 15.9576 1.15055 15.9578 0.954363 16.154L0.800174 16.3082L0.816549 23.8683C0.832862 31.4037 0.833362 31.4291 0.962364 31.6049C1.03355 31.702 1.18824 31.8306 1.30612 31.8906C1.508 31.9936 2.22394 31.9999 13.6153 32C25.2 32.0001 25.7194 31.9953 25.928 31.8861C26.0633 31.8153 26.199 31.6682 26.2864 31.4979L26.427 31.2236V24.0801V16.9365L27.841 12.2025C28.6187 9.59882 29.2596 7.46285 29.2651 7.45598C29.2759 7.44242 30.3216 7.75461 30.351 7.78017C30.3607 7.78861 29.9308 9.26132 29.3957 11.0528C28.4622 14.1778 28.4265 14.3175 28.5163 14.4912C28.6696 14.7875 29.0062 14.8438 29.2224 14.6093C29.4004 14.4162 31.456 7.5611 31.4013 7.34304C31.3467 7.12516 31.184 7.03991 30.3375 6.78484C29.9272 6.66122 29.5811 6.54965 29.5683 6.53684C29.5555 6.52403 29.6169 6.26559 29.7048 5.96252C29.9019 5.2827 29.9022 5.2202 29.7098 4.84032L29.5551 4.53469L29.8418 3.57493C30.0826 2.76885 30.1244 2.55341 30.1024 2.22934C30.0082 0.833513 28.4797 0.153316 27.3224 0.992265C26.9957 1.22908 26.7988 1.62446 26.4865 2.67048L26.221 3.56005L25.9493 3.69155C25.8 3.76387 25.6291 3.9053 25.5698 4.00574C25.5104 4.10625 25.4441 4.18112 25.4223 4.17225C25.4006 4.16331 24.4576 3.27292 23.3268 2.19359C22.1959 1.11433 21.1863 0.179254 21.0832 0.115691C20.9029 0.00462673 20.5219 0.000126673 11.2081 1.67105e-06C2.10825 -0.000123331 1.50743 0.00650176 1.30612 0.109191ZM23.6044 4.86238C22.8709 4.87451 22.3682 4.85538 22.2082 4.80944C21.8561 4.70819 21.5864 4.48544 21.4333 4.16918C21.3141 3.92299 21.302 3.78905 21.302 2.72629V1.55484L23.0262 3.19917L24.7505 4.84351L23.6044 4.86238ZM28.9344 1.80484C29.13 2.0004 29.1771 2.09297 29.1771 2.28178C29.1771 2.50272 28.7662 4.04012 28.6806 4.13975C28.631 4.19737 27.2213 3.78899 27.1948 3.7093C27.1842 3.67736 27.2882 3.27261 27.426 2.80985C27.6409 2.08803 27.7075 1.93959 27.8946 1.76534C28.0756 1.59677 28.162 1.56221 28.4022 1.56221C28.6552 1.56221 28.7224 1.59284 28.9344 1.80484ZM7.71221 6.1839C7.39045 6.39603 7.36889 6.4949 7.36645 7.76855C7.3647 8.69981 7.38395 8.98156 7.45908 9.12688C7.66077 9.51682 7.39314 9.49982 13.3215 9.49982H18.7225L18.8948 9.36432C19.1927 9.13 19.2394 8.91544 19.2394 7.78105C19.2394 6.60947 19.1867 6.39265 18.8525 6.1889C18.6493 6.06496 18.5519 6.06277 13.2706 6.0629C8.06252 6.06308 7.88983 6.06683 7.71221 6.1839ZM18.3019 7.78105V8.56231H13.3018H8.30178V7.78105V6.99978H13.3018H18.3019V7.78105ZM6.89269 12.3408C6.80832 12.4252 6.73925 12.567 6.73925 12.6561C6.73925 12.7452 6.80832 12.8871 6.89269 12.9714L7.04607 13.1249L13.5647 13.1229C20.5616 13.1207 20.2294 13.1363 20.3555 12.8046C20.4259 12.6194 20.3068 12.2891 20.1475 12.228C20.0893 12.2056 17.1177 12.1874 13.5439 12.1874H7.04607L6.89269 12.3408ZM7.00895 15.8748C6.71969 15.9924 6.65144 16.3957 6.88388 16.614L7.02857 16.7499H13.1856H19.3426L19.4786 16.6053C19.6462 16.4267 19.6527 16.186 19.495 15.9912L19.3755 15.8437L13.2605 15.8315C9.81086 15.8247 7.08601 15.8435 7.00895 15.8748ZM6.86669 19.6368C6.60119 19.9217 6.77232 20.33 7.18889 20.4054C7.30251 20.426 9.88005 20.4345 12.9168 20.4245L18.438 20.4062L18.5575 20.2587C18.7124 20.0673 18.7099 19.7829 18.5519 19.625C18.4287 19.5018 18.3436 19.5 12.7105 19.5H6.99413L6.86669 19.6368ZM6.86882 23.2897C6.69694 23.5081 6.70519 23.7216 6.89269 23.9091L7.04607 24.0625H10.921C13.6678 24.0625 14.8411 24.042 14.9509 23.9919C15.2681 23.8475 15.2962 23.3518 14.9965 23.1913C14.9129 23.1466 13.5911 23.125 10.9354 23.125H6.99832L6.86882 23.2897ZM21.8693 24.3505C22.3995 24.5089 22.8427 24.6472 22.8542 24.6579C22.8657 24.6686 22.4727 25.1598 21.9807 25.7496C21.4888 26.3394 21.08 26.7987 21.0722 26.7704C21.0644 26.742 21.0001 26.1985 20.9294 25.5625C20.8586 24.9266 20.7876 24.3289 20.7716 24.2344C20.7523 24.12 20.7698 24.0625 20.824 24.0625C20.8688 24.0625 21.3392 24.1921 21.8693 24.3505Z" fill="#112235"/>
<path d="M23.8021 12.7134C23.537 12.9822 23.052 12.7839 23.052 12.4068L22.4941 14.1787C22.6365 13.9128 23.1465 13.9683 23.2888 14.2653C23.3311 14.3535 23.3156 14.5159 23.0748 15.3733L24.4 10.9493C24.0571 12.0539 23.8506 12.6641 23.8021 12.7134Z" fill="#112235"/>
<path d="M0.930426 14.5842L0.803663 14.4231L0.800174 16.3082L0.954363 16.154C1.15055 15.9578 1.38999 15.9576 1.58575 16.1533L1.73919 16.3067V7.67886C1.73919 14.4046 1.73887 14.4209 1.60962 14.5852C1.43012 14.8135 1.11037 14.813 0.930426 14.5842Z" fill="#112235"/>
</g>
<defs>
<clipPath id="clip0_1_15227">
<rect width="32" height="32" fill="white"/>
</clipPath>
</defs>
</svg>
