<svg width="32" height="32" viewBox="0 0 32 32" fill="none" xmlns="http://www.w3.org/2000/svg">
<g clip-path="url(#clip0_1_22941)">
<path fill-rule="evenodd" clip-rule="evenodd" d="M22.0701 0.0826926C22.0108 0.128207 21.7196 0.775656 21.423 1.52154C21.1263 2.26743 20.8758 2.88564 20.8664 2.89536C20.857 2.90509 20.6777 2.80976 20.468 2.68354C19.2275 1.93646 17.6927 2.4213 17.072 3.75636C16.9256 4.07132 16.8959 4.22896 16.8947 4.69833C16.8934 5.20348 16.9158 5.30794 17.1107 5.70367C17.4475 6.38764 18.0715 6.86752 18.8017 7.00393C18.9743 7.03615 19.1323 7.07928 19.1527 7.09972C19.1731 7.12016 18.9486 7.74432 18.6535 8.48684C18.3585 9.22928 18.1171 9.88262 18.1171 9.93872C18.1171 9.99488 18.1693 10.102 18.2329 10.1768C18.3789 10.3483 21.776 11.7093 22.0583 11.7093C22.3742 11.7093 22.5137 11.5144 22.4478 11.165C22.2719 10.2314 22.4893 9.65327 23.1458 9.30834C24.0654 8.82515 25.1359 9.38428 25.241 10.4026C25.3042 11.0145 25.039 11.5142 24.4554 11.8825C24.3168 11.97 24.1873 12.1139 24.1642 12.206C24.0758 12.5584 24.2213 12.6459 26.191 13.4258C27.2688 13.8525 28.101 14.1466 28.1694 14.1249C28.2343 14.1043 28.3331 14.0361 28.3889 13.9733C28.5627 13.778 31.9581 5.15479 31.9929 4.82045C32.0479 4.29274 31.7777 3.76145 31.339 3.53461C30.8837 3.29917 22.4816 0 22.3374 0C22.2496 0 22.1294 0.0372447 22.0701 0.0826926ZM26.7679 2.68334C29.0133 3.57702 30.9028 4.35565 30.9669 4.4136C31.0309 4.47155 31.0833 4.594 31.0833 4.68569C31.0833 4.91968 27.8464 13.0323 27.7529 13.0325C27.6908 13.0327 25.6743 12.2531 25.6057 12.2024C25.5947 12.1942 25.6776 12.0428 25.7899 11.8657C26.3271 11.0188 26.3036 10.0036 25.7274 9.16604C25.4668 8.78731 24.8621 8.37967 24.3944 8.26747C23.9532 8.16169 23.2605 8.21792 22.8631 8.39191C22.1962 8.68378 21.6267 9.40592 21.4885 10.1349C21.453 10.3221 21.4128 10.4864 21.3992 10.5C21.3857 10.5136 20.8812 10.3273 20.2783 10.086L19.1819 9.64738L19.3048 9.3387C20.4878 6.36733 20.4481 6.48191 20.3638 6.27835C20.2617 6.03193 20.0559 5.9796 19.5946 6.08287C19.1072 6.19195 18.6845 6.08889 18.3124 5.77042C17.7862 5.32004 17.6513 4.69198 17.9453 4.06073C18.4267 3.02681 19.8451 2.96165 20.4738 3.94457C20.7403 4.36107 20.9502 4.45005 21.2095 4.25642C21.3374 4.16096 21.5286 3.74902 21.9811 2.59443C22.3118 1.75017 22.6057 1.05919 22.634 1.05893C22.6622 1.05866 24.5225 1.78967 26.7679 2.68334ZM1.04939 4.91571C0.703269 5.0248 0.166296 5.59273 0.0677928 5.95387C0.00461569 6.18527 -0.00927664 8.96996 0.00527725 18.4622L0.0239988 30.6728L0.224181 30.9966C0.348286 31.1973 0.547542 31.3966 0.748253 31.5207L1.07208 31.7209H13.4533H25.8345L26.1583 31.5207C26.359 31.3966 26.5583 31.1973 26.6824 30.9966L26.8825 30.6729L26.9001 24.3776C26.9173 18.1961 26.9152 18.0802 26.7878 17.9649C26.6689 17.8574 26.4885 17.8484 24.6368 17.8578C23.5252 17.8634 22.6156 17.8554 22.6156 17.84C22.6156 17.8247 22.6587 17.6899 22.7114 17.5406C23.3888 15.6206 21.7572 13.5263 19.7314 13.7155C17.7647 13.8992 16.5658 15.8813 17.2928 17.747C17.3357 17.8572 17.2402 17.8629 15.6274 17.8462L13.9164 17.8285L13.9001 15.5793C13.8843 13.3797 13.8808 13.3275 13.744 13.2143C13.5356 13.0419 13.3792 13.0708 12.9427 13.3623C12.4555 13.6876 12.1152 13.7841 11.5997 13.7432C10.9 13.6877 10.3106 13.2865 9.97192 12.6354C9.7589 12.2258 9.75209 11.4201 9.95796 10.9717C10.5016 9.78743 11.972 9.46433 13.0558 10.291C13.3261 10.4972 13.5686 10.5181 13.7531 10.3511C13.8783 10.2379 13.8833 10.1349 13.8833 7.66362C13.8833 5.18205 13.8787 5.0893 13.751 4.96155C13.6204 4.83103 13.535 4.82931 7.44979 4.83599C3.15428 4.84069 1.2106 4.8649 1.04939 4.91571ZM13.0233 7.44233C13.0233 8.37014 12.9973 9.12926 12.9655 9.12926C12.9336 9.12926 12.7922 9.08904 12.6512 9.03982C11.352 8.5866 9.76267 9.26944 9.16219 10.5387C8.13131 12.7178 10.1035 15.1671 12.4279 14.5945C12.628 14.5452 12.8443 14.4828 12.9086 14.4557C13.0189 14.4093 13.0245 14.5035 13.0079 16.1175L12.9902 17.8285L10.7541 17.8378C8.71863 17.8464 8.50647 17.8577 8.38911 17.9639C8.20911 18.1267 8.22618 18.4305 8.42874 18.6713C8.88183 19.2097 9.03994 19.9854 8.82719 20.626C8.59161 21.3352 7.8704 21.8851 7.09395 21.9474C6.12115 22.0255 5.29694 21.4192 5.04641 20.4411C4.88738 19.8204 5.04694 19.1736 5.48118 18.679C5.5906 18.5544 5.68017 18.379 5.68017 18.2893C5.68017 18.1187 5.47489 17.864 5.33286 17.8583C5.28741 17.8564 4.27526 17.8579 3.08362 17.8615L0.917079 17.8679V12.0388C0.917079 8.18398 0.940034 6.16688 0.984886 6.08306C1.16191 5.75229 0.996728 5.76089 7.21825 5.75805L13.0233 5.7554V7.44233ZM20.8069 14.8236C21.9539 15.3789 22.2922 16.8176 21.5152 17.8357C21.2448 18.1899 21.2148 18.4087 21.41 18.6038C21.5397 18.7336 21.6148 18.7374 23.7667 18.726L25.9895 18.7143V24.5637C25.9895 30.3562 25.9881 30.4147 25.8542 30.5851C25.7797 30.6797 25.6085 30.7877 25.4738 30.8251C25.3147 30.8693 23.2503 30.8933 19.5891 30.8935L13.9494 30.8939V29.1739C13.9494 28.2279 13.9605 27.4539 13.9742 27.4539C13.9878 27.4539 14.1182 27.496 14.2639 27.5474C14.724 27.7098 15.203 27.7361 15.7208 27.6275C17.5754 27.2384 18.566 25.2728 17.7613 23.5785C17.1285 22.2461 15.5821 21.5797 14.2299 22.0568L13.9494 22.1557V20.4387V18.7216H16.1769C18.1568 18.7216 18.4179 18.7094 18.5254 18.6121C18.7126 18.4427 18.674 18.1635 18.4165 17.8263C17.8732 17.1144 17.8574 16.1477 18.3777 15.4402C18.9278 14.6923 19.9825 14.4246 20.8069 14.8236ZM4.29094 18.761C4.29094 18.7827 4.24291 18.9656 4.18423 19.1675C4.10835 19.4286 4.08526 19.711 4.10425 20.1459C4.128 20.6892 4.15836 20.8126 4.37694 21.2548C5.4532 23.4324 8.51653 23.4013 9.56083 21.2022C9.91291 20.4609 9.93434 19.5772 9.61812 18.8362C9.57109 18.726 9.66496 18.7203 11.2792 18.737L12.9902 18.7547L13.0077 20.9997C13.0229 22.9726 13.0382 23.2592 13.1337 23.3647C13.3011 23.5498 13.5819 23.5119 13.9124 23.2596C15.1978 22.2784 16.9977 23.0759 17.1082 24.6755C17.2005 26.0103 15.9251 27.0685 14.6655 26.7022C14.4672 26.6446 14.2027 26.5232 14.0776 26.4325C13.9525 26.3418 13.7844 26.2193 13.7041 26.1603C13.5221 26.0268 13.1842 26.0861 13.0864 26.2687C13.0446 26.347 13.013 27.2537 13.0043 28.6284L12.9902 30.8609L7.43325 30.8801C4.37694 30.8906 1.74493 30.8806 1.58437 30.8579C1.38922 30.8302 1.23025 30.7542 1.10476 30.6287L0.917079 30.4411V24.5813V18.7216H2.60401C3.53182 18.7216 4.29094 18.7393 4.29094 18.761Z" fill="#D1F960"/>
<path d="M26.7679 2.68334C29.0133 3.57702 30.9028 4.35565 30.9669 4.4136C31.0309 4.47155 31.0833 4.594 31.0833 4.68569C31.0833 4.91968 27.8464 13.0323 27.7529 13.0325C27.6908 13.0327 25.6743 12.2531 25.6057 12.2024C25.5947 12.1942 25.6776 12.0428 25.7899 11.8657C26.3271 11.0188 26.3036 10.0036 25.7274 9.16604C25.4668 8.78731 24.8621 8.37967 24.3944 8.26747C23.9532 8.16169 23.2605 8.21792 22.8631 8.39191C22.1962 8.68378 21.6267 9.40592 21.4885 10.1349C21.453 10.3221 21.4128 10.4864 21.3992 10.5C21.3857 10.5136 20.8812 10.3273 20.2783 10.086L19.1819 9.64738L19.3048 9.3387C20.4878 6.36733 20.4481 6.48191 20.3638 6.27835C20.2617 6.03193 20.0559 5.9796 19.5946 6.08287C19.1072 6.19195 18.6845 6.08889 18.3124 5.77042C17.7862 5.32004 17.6513 4.69198 17.9453 4.06073C18.4267 3.02681 19.8451 2.96165 20.4738 3.94457C20.7403 4.36107 20.9502 4.45005 21.2095 4.25642C21.3374 4.16096 21.5286 3.74902 21.9811 2.59443C22.3118 1.75017 22.6057 1.05919 22.634 1.05893C22.6622 1.05866 24.5225 1.78967 26.7679 2.68334Z" fill="#D1F960"/>
<path fill-rule="evenodd" clip-rule="evenodd" d="M22.0701 0.0826926C22.0108 0.128207 21.7196 0.775656 21.423 1.52154C21.1263 2.26743 20.8758 2.88564 20.8664 2.89536C20.857 2.90509 20.6777 2.80976 20.468 2.68354C19.2275 1.93646 17.6927 2.4213 17.072 3.75636C16.9256 4.07132 16.8959 4.22896 16.8947 4.69833C16.8934 5.20348 16.9158 5.30794 17.1107 5.70367C17.4475 6.38764 18.0715 6.86752 18.8017 7.00393C18.9743 7.03615 19.1323 7.07928 19.1527 7.09972C19.1731 7.12016 18.9486 7.74432 18.6535 8.48684C18.3585 9.22928 18.1171 9.88262 18.1171 9.93872C18.1171 9.99488 18.1693 10.102 18.2329 10.1768C18.3789 10.3483 21.776 11.7093 22.0583 11.7093C22.3742 11.7093 22.5137 11.5144 22.4478 11.165C22.2719 10.2314 22.4893 9.65327 23.1458 9.30834C24.0654 8.82515 25.1359 9.38428 25.241 10.4026C25.3042 11.0145 25.039 11.5142 24.4554 11.8825C24.3168 11.97 24.1873 12.1139 24.1642 12.206C24.0758 12.5584 24.2213 12.6459 26.191 13.4258C27.2688 13.8525 28.101 14.1466 28.1694 14.1249C28.2343 14.1043 28.3331 14.0361 28.3889 13.9733C28.5627 13.778 31.9581 5.15479 31.9929 4.82045C32.0479 4.29274 31.7777 3.76145 31.339 3.53461C30.8837 3.29917 22.4816 0 22.3374 0C22.2496 0 22.1294 0.0372447 22.0701 0.0826926ZM26.7679 2.68334C29.0133 3.57702 30.9028 4.35565 30.9669 4.4136C31.0309 4.47155 31.0833 4.594 31.0833 4.68569C31.0833 4.91968 27.8464 13.0323 27.7529 13.0325C27.6907 13.0327 25.6743 12.2531 25.6057 12.2024C25.5947 12.1942 25.6776 12.0428 25.7899 11.8657C26.3271 11.0188 26.3036 10.0036 25.7274 9.16604C25.4668 8.78731 24.8621 8.37967 24.3944 8.26747C23.9532 8.16169 23.2605 8.21792 22.8631 8.39191C22.1962 8.68378 21.6267 9.40592 21.4885 10.1349C21.453 10.3221 21.4128 10.4864 21.3992 10.5C21.3857 10.5136 20.8812 10.3273 20.2783 10.086L19.1819 9.64738L19.3048 9.3387C20.4878 6.36733 20.4481 6.48191 20.3638 6.27835C20.2617 6.03193 20.0559 5.9796 19.5946 6.08287C19.1072 6.19195 18.6845 6.08889 18.3124 5.77042C17.7862 5.32004 17.6513 4.69198 17.9453 4.06073C18.4267 3.02681 19.8451 2.96165 20.4738 3.94457C20.7403 4.36107 20.9502 4.45005 21.2095 4.25642C21.3374 4.16096 21.5286 3.74902 21.9811 2.59443C22.3118 1.75017 22.6057 1.05919 22.634 1.05893C22.6622 1.05866 24.5225 1.78967 26.7679 2.68334ZM1.04939 4.91571C0.703269 5.0248 0.166296 5.59273 0.0677928 5.95387C0.00461569 6.18527 -0.00927664 8.96996 0.00527725 18.4622L0.0239988 30.6728L0.224181 30.9966C0.348286 31.1973 0.547542 31.3966 0.748253 31.5207L1.07208 31.7209H13.4533H25.8345L26.1583 31.5207C26.359 31.3966 26.5583 31.1973 26.6824 30.9966L26.8825 30.6729L26.9001 24.3776C26.9173 18.1961 26.9152 18.0802 26.7878 17.9649C26.6689 17.8574 26.4885 17.8484 24.6368 17.8578C23.5252 17.8634 22.6156 17.8554 22.6156 17.84C22.6156 17.8247 22.6587 17.6899 22.7114 17.5406C23.3888 15.6206 21.7572 13.5263 19.7314 13.7155C17.7647 13.8992 16.5658 15.8813 17.2928 17.747C17.3357 17.8572 17.2402 17.8629 15.6274 17.8462L13.9164 17.8285L13.9001 15.5793C13.8843 13.3797 13.8808 13.3275 13.744 13.2143C13.5356 13.0419 13.3792 13.0708 12.9427 13.3623C12.4555 13.6876 12.1152 13.7841 11.5997 13.7432C10.9 13.6877 10.3106 13.2865 9.97192 12.6354C9.7589 12.2258 9.75209 11.4201 9.95796 10.9717C10.5016 9.78743 11.972 9.46433 13.0558 10.291C13.3261 10.4972 13.5686 10.5181 13.7531 10.3511C13.8783 10.2379 13.8833 10.1349 13.8833 7.66362C13.8833 5.18205 13.8787 5.0893 13.751 4.96155C13.6204 4.83103 13.535 4.82931 7.44979 4.83599C3.15428 4.84069 1.2106 4.8649 1.04939 4.91571ZM13.0233 7.44233C13.0233 8.37014 12.9973 9.12926 12.9655 9.12926C12.9336 9.12926 12.7922 9.08904 12.6512 9.03982C11.352 8.5866 9.76267 9.26944 9.16219 10.5387C8.13131 12.7178 10.1035 15.1671 12.4279 14.5945C12.628 14.5452 12.8443 14.4828 12.9086 14.4557C13.0189 14.4093 13.0245 14.5035 13.0079 16.1175L12.9902 17.8285L10.7541 17.8378C8.71863 17.8464 8.50647 17.8577 8.38911 17.9639C8.20911 18.1267 8.22618 18.4305 8.42874 18.6713C8.88183 19.2097 9.03994 19.9854 8.82719 20.626C8.59161 21.3352 7.8704 21.8851 7.09395 21.9474C6.12115 22.0255 5.29694 21.4192 5.04641 20.4411C4.88738 19.8204 5.04694 19.1736 5.48118 18.679C5.5906 18.5544 5.68017 18.379 5.68017 18.2893C5.68017 18.1187 5.47489 17.864 5.33286 17.8583C5.28741 17.8564 4.27526 17.8579 3.08362 17.8615L0.917079 17.8679V12.0388C0.917079 8.18398 0.940034 6.16688 0.984886 6.08306C1.16191 5.75229 0.996728 5.76089 7.21825 5.75805L13.0233 5.7554V7.44233ZM20.8069 14.8236C21.9539 15.3789 22.2922 16.8176 21.5152 17.8357C21.2448 18.1899 21.2148 18.4087 21.41 18.6038C21.5397 18.7336 21.6148 18.7374 23.7667 18.726L25.9895 18.7143V24.5637C25.9895 30.3562 25.9881 30.4147 25.8542 30.5851C25.7797 30.6797 25.6085 30.7877 25.4738 30.8251C25.3147 30.8693 23.2503 30.8933 19.5891 30.8935L13.9494 30.8939V29.1739C13.9494 28.2279 13.9605 27.4539 13.9742 27.4539C13.9878 27.4539 14.1182 27.496 14.2639 27.5474C14.724 27.7098 15.203 27.7361 15.7208 27.6275C17.5754 27.2384 18.566 25.2728 17.7613 23.5785C17.1285 22.2461 15.5821 21.5797 14.2299 22.0568L13.9494 22.1557V20.4387V18.7216H16.1769C18.1568 18.7216 18.4179 18.7094 18.5254 18.6121C18.7126 18.4427 18.674 18.1635 18.4165 17.8263C17.8732 17.1144 17.8574 16.1477 18.3777 15.4402C18.9278 14.6923 19.9825 14.4246 20.8069 14.8236ZM4.29094 18.761C4.29094 18.7827 4.24291 18.9656 4.18423 19.1675C4.10835 19.4286 4.08526 19.711 4.10425 20.1459C4.128 20.6892 4.15836 20.8126 4.37694 21.2548C5.4532 23.4324 8.51653 23.4013 9.56083 21.2022C9.91291 20.4609 9.93434 19.5772 9.61812 18.8362C9.57109 18.726 9.66496 18.7203 11.2792 18.737L12.9902 18.7547L13.0077 20.9997C13.0229 22.9726 13.0382 23.2592 13.1337 23.3647C13.3011 23.5498 13.5819 23.5119 13.9124 23.2596C15.1978 22.2784 16.9977 23.0759 17.1082 24.6755C17.2005 26.0103 15.9251 27.0685 14.6655 26.7022C14.4672 26.6446 14.2027 26.5232 14.0776 26.4325C13.9525 26.3418 13.7844 26.2193 13.7041 26.1603C13.5221 26.0268 13.1842 26.0861 13.0864 26.2687C13.0446 26.347 13.013 27.2537 13.0043 28.6284L12.9902 30.8609L7.43325 30.8801C4.37694 30.8906 1.74493 30.8806 1.58437 30.8579C1.38922 30.8302 1.23025 30.7542 1.10476 30.6287L0.917079 30.4411V24.5813V18.7216H2.60401C3.53182 18.7216 4.29094 18.7393 4.29094 18.761Z" fill="#112235"/>
</g>
<defs>
<clipPath id="clip0_1_22941">
<rect width="32" height="32" fill="white"/>
</clipPath>
</defs>
</svg>
