<svg width="32" height="32" viewBox="0 0 32 32" fill="none" xmlns="http://www.w3.org/2000/svg">
<path fill-rule="evenodd" clip-rule="evenodd" d="M24 9.72205V5L13 1L7 3L1 5V13.9795C1 15.8858 1.41583 18.291 2 20C2.58417 21.7102 3.50015 23.0924 4.5 24.5C4.85818 25.0045 5.20762 25.4594 5.58099 25.8682V27.2567C4.8531 26.5405 4.1691 25.7458 3.52898 24.8727C1.17633 21.6653 0 18.0342 0 13.9795V4.53881L13 0L25 4.5V9.5V9.72205H24Z" fill="#112235"/>
<path d="M24.7854 28.1715C24.7427 28.2557 24.6866 28.2774 23.9964 28.2829L25.7029 28.2787C25.67 28.2776 25.6333 28.2716 25.5926 28.2609C25.4088 28.2122 25.3493 27.97 25.4829 27.8143C25.5261 27.764 25.5898 27.721 25.64 27.7056L22.9284 27.7105C24.4364 27.722 24.7117 27.7452 24.7556 27.7915C24.857 27.8984 24.8659 28.0128 24.7854 28.1715Z" fill="#D1F960"/>
<path d="M26.5892 27.8184C26.6613 27.7343 26.7159 27.7097 27.3917 27.7025L25.7207 27.7055C25.8566 27.7405 25.9666 27.9255 25.9298 28.0801C25.8989 28.2101 25.8349 28.2742 25.7264 28.2787L29.0198 28.2707L26.5934 28.2554L26.5404 28.0963C26.4983 27.9702 26.5085 27.9125 26.5892 27.8184Z" fill="#D1F960"/>
<path d="M13.1608 12.0129L13.1596 12.6044L14.2488 12.6044C15.0244 12.512 19.5094 12.512 20.2873 12.6043L21.4591 12.6043L21.4587 12.0172L13.1608 12.0129Z" fill="#D1F960"/>
<path d="M22.0128 12.6043L23.1503 12.6043L22.5937 12.0177L22.0128 12.0174V12.6043Z" fill="#D1F960"/>
<path d="M21.8255 14.8969C21.7346 14.8074 21.6663 14.7333 21.6149 14.64L13.1556 14.5999L13.1544 15.1871L14.3952 15.1918C14.3139 15.1833 14.2662 15.1733 14.2442 15.1616C14.0891 15.0792 14.0345 14.8652 14.1358 14.7366C14.1924 14.6647 14.6626 14.652 17.2684 14.652L17.5169 14.652C19.9595 14.6518 20.3972 14.6518 20.4536 14.8063C20.4658 14.8401 20.46 14.8812 20.4528 14.9312C20.4522 14.935 20.4517 14.9388 20.4512 14.9426C20.4506 14.9465 20.4501 14.9505 20.4495 14.9545C20.428 15.113 20.3957 15.1821 19.7817 15.2122L24.1502 15.2288L23.8579 15.2246C22.2164 15.2009 22.1181 15.1851 21.8255 14.8969Z" fill="#D1F960"/>
<path d="M26.7619 15.1889L25.9526 15.1699V15.2159L27.2854 15.2012L26.7619 15.1889Z" fill="#D1F960"/>
<path fill-rule="evenodd" clip-rule="evenodd" d="M23.9284 12.0184L22.5937 12.0177L23.1503 12.6043L23.9284 12.6042L24.3338 12.6043L26.5081 12.6048L29.0878 12.6054L29.3652 12.7433C29.6958 12.9077 29.8466 13.0694 29.9987 13.4233C30.1106 13.6836 30.1119 13.7671 30.1131 20.6931L30.1144 27.6996H29.0198H28.4028C27.9637 27.6996 27.6369 27.6999 27.3917 27.7025C26.7159 27.7097 26.6613 27.7343 26.5892 27.8184C26.5085 27.9125 26.4983 27.9702 26.5404 28.0963L26.5934 28.2554L29.0198 28.2707L31.4461 28.2859L31.4458 29.2361C31.4456 29.7586 31.4196 30.2843 31.3881 30.4042C31.3002 30.7377 31.0074 31.0982 30.6758 31.2808L30.3791 31.4442H19.2938H8.20849L7.91185 31.2808C7.58029 31.0982 7.28742 30.7377 7.19958 30.4042C7.168 30.2843 7.14203 29.7584 7.14187 29.2355L7.14154 28.2847H11.9638H16.7861L16.8053 28.8356C16.8227 29.3364 16.8398 29.4097 16.9917 29.6401C17.0894 29.7882 17.2616 29.9484 17.4058 30.0253C17.6453 30.1531 17.7019 30.157 19.2969 30.157C20.911 30.157 20.9455 30.1545 21.1856 30.0208C21.3201 29.946 21.5051 29.7726 21.5967 29.6357C21.7481 29.4091 21.7648 29.3367 21.7824 28.8356L21.8016 28.2847H23.2647C23.5659 28.2847 23.8054 28.2844 23.9964 28.2829C24.6866 28.2774 24.7427 28.2557 24.7854 28.1715C24.8659 28.0128 24.857 27.8984 24.7556 27.7915C24.7117 27.7452 24.4364 27.722 22.9284 27.7105C21.7393 27.7014 19.7838 27.6996 16.5709 27.6996H8.47329L8.47451 20.6931C8.47573 13.7671 8.47701 13.6836 8.58893 13.4233C8.74109 13.0694 8.8918 12.9077 9.22241 12.7433C9.49297 12.6087 9.53798 12.6053 11.0397 12.6048L11.872 12.6045L12.5795 12.6042L13.1596 12.6044L13.1608 12.0129L12.5795 12.0127L10.9287 12.0305C9.37351 12.0473 9.26286 12.0557 9.01842 12.1748C8.6523 12.3532 8.29889 12.718 8.10883 13.1138L7.94614 13.4526L7.93121 20.5761L7.91623 27.6996H7.3433C7.30103 27.6996 7.26056 27.6993 7.2228 27.6991C6.96355 27.6976 6.80779 27.6966 6.71546 27.7769C6.57651 27.8976 6.58123 28.2022 6.59305 28.9651C6.5942 29.0393 6.59541 29.1177 6.59657 29.2008C6.61383 30.4399 6.61882 30.4888 6.7606 30.8076C6.95858 31.2527 7.23764 31.5632 7.65382 31.8011L8.00163 32H19.2938H30.586L30.9073 31.8285C31.2987 31.6195 31.6287 31.2538 31.8257 30.8108C31.9692 30.488 31.9738 30.4431 31.9911 29.2008C31.9917 29.1571 31.9923 29.1147 31.9929 29.0736C31.9934 29.0411 31.9939 29.0095 31.9944 28.9785L31.9945 28.9739L31.9945 28.9688L31.9946 28.9663L31.9946 28.9651C32.0064 28.2022 32.0111 27.8976 31.8722 27.7769C31.7799 27.6966 31.6241 27.6976 31.3648 27.6991C31.3269 27.6993 31.2868 27.6996 31.2443 27.6996H30.6714L30.6564 20.5761L30.6415 13.4526L30.4788 13.1138C30.2888 12.718 29.9353 12.3532 29.5692 12.1748C29.315 12.0509 29.2496 12.048 26.3384 12.0318L23.9284 12.0184ZM25.8127 14.5935L25.0093 14.6077C25.0093 14.6393 24.4968 14.6527 23.9284 14.651C23.8911 14.6509 23.8535 14.6507 23.8157 14.6505L21.6149 14.64C21.6663 14.7333 21.7346 14.8074 21.8255 14.8969C22.1181 15.1851 22.2164 15.2009 23.8579 15.2246L24.1502 15.2288L24.4276 15.2328L25.9526 15.2159V15.1699L26.7619 15.1889L27.2854 15.2012L27.5712 15.2078L27.733 15.3989L27.8948 15.59V20.4719C27.8948 24.1322 27.8782 25.3921 27.8284 25.5071C27.7126 25.7751 27.5295 25.8273 26.7045 25.8273H26.5404H25.9526H25.3977H24.3148H19.2654H13.1332H12.5795L11.8166 25.826C11.0013 25.8246 10.8995 25.7928 10.7549 25.4947C10.7107 25.4036 10.6929 23.9655 10.6929 20.4854V15.604L10.8115 15.4449C10.9848 15.2126 11.0906 15.1864 11.872 15.1823L12.5795 15.1786V15.185L13.1544 15.1871L13.1556 14.5999L11.809 14.5935C11.0739 14.5935 11.0249 14.601 10.7428 14.7564C10.5029 14.8886 10.4177 14.9786 10.2916 15.233L10.1362 15.5466L10.151 20.5942L10.1657 25.6417L10.3329 25.8954C10.4307 26.0437 10.6027 26.2038 10.747 26.2807L10.9939 26.4124H19.2969H27.5998L27.8444 26.2762C27.9789 26.2014 28.1639 26.028 28.2554 25.8909L28.4219 25.6417L28.4367 20.5942L28.4514 15.5466L28.2961 15.233C28.17 14.9786 28.0848 14.8886 27.8449 14.7564C27.5581 14.5984 27.5229 14.5935 26.6809 14.5935H25.8127ZM22.0128 12.0174V12.6043L21.4591 12.6043L21.4587 12.0172L22.0128 12.0174ZM14.2488 12.6044C15.0244 12.512 19.5094 12.512 20.2873 12.6043L14.2488 12.6044ZM14.2442 15.1616C14.0891 15.0792 14.0345 14.8652 14.1358 14.7366C14.1924 14.6647 14.6626 14.652 17.2684 14.652L17.5169 14.652C19.9595 14.6518 20.3972 14.6518 20.4536 14.8063C20.4658 14.8401 20.46 14.8812 20.4528 14.9312L20.4512 14.9426C20.4506 14.9465 20.4501 14.9505 20.4495 14.9545C20.428 15.113 20.3957 15.1821 19.7817 15.2122C19.3315 15.2343 18.5688 15.2354 17.2684 15.2354C15.5148 15.2354 14.7072 15.2245 14.3952 15.1918C14.3139 15.1833 14.2662 15.1733 14.2442 15.1616ZM25.5926 28.2609C25.4088 28.2122 25.3493 27.97 25.4829 27.8143C25.5261 27.764 25.5898 27.721 25.64 27.7056C25.6528 27.7017 25.6647 27.6996 25.6752 27.6996C25.6905 27.6996 25.7058 27.7016 25.7207 27.7055C25.8566 27.7405 25.9666 27.9255 25.9298 28.0801C25.8989 28.2101 25.8349 28.2742 25.7264 28.2787C25.7213 28.2789 25.7161 28.279 25.7108 28.2789C25.7082 28.2789 25.7056 28.2788 25.7029 28.2787C25.67 28.2776 25.6333 28.2716 25.5926 28.2609ZM21.1697 29.2517C21.2061 29.1673 21.236 28.9152 21.236 28.6915V28.2847H19.2938H17.3517V28.6981C17.3517 29.1386 17.4044 29.3063 17.594 29.4682C17.6997 29.5585 17.8772 29.5694 19.255 29.5706C20.9299 29.572 21.0391 29.5538 21.1697 29.2517Z" fill="#D1F960"/>
<path d="M12.5795 14.5935V13.5988V12.6042L11.872 12.6045L11.0397 12.6048C9.53798 12.6053 9.49297 12.6087 9.22241 12.7433C8.8918 12.9077 8.74109 13.0694 8.58893 13.4233C8.47701 13.6836 8.47573 13.7671 8.47451 20.6931L8.47329 27.6996H16.5709C19.7838 27.6996 21.7393 27.7014 22.9284 27.7105L25.64 27.7056C25.6528 27.7017 25.6647 27.6996 25.6752 27.6996C25.6905 27.6996 25.7058 27.7016 25.7207 27.7055L27.3917 27.7025C27.6369 27.6999 27.9637 27.6996 28.4028 27.6996H29.0198H30.1144L30.1131 20.6931C30.1119 13.7671 30.1106 13.6836 29.9987 13.4233C29.8466 13.0694 29.6958 12.9077 29.3652 12.7433L29.0878 12.6054L26.5081 12.6048L24.3338 12.6043L23.9284 12.6042L24.8706 13.5988L25.8127 14.5935H26.6809C27.5229 14.5935 27.5581 14.5984 27.8449 14.7564C28.0848 14.8886 28.17 14.9786 28.2961 15.233L28.4514 15.5466L28.4367 20.5942L28.4219 25.6417L28.2554 25.8909C28.1639 26.028 27.9789 26.2014 27.8444 26.2762L27.5998 26.4124H19.2969H10.9939L10.747 26.2807C10.6027 26.2038 10.4307 26.0437 10.3329 25.8954L10.1657 25.6417L10.151 20.5942L10.1362 15.5466L10.2916 15.233C10.4177 14.9786 10.5029 14.8886 10.7428 14.7564C11.0249 14.601 11.0739 14.5935 11.809 14.5935H12.5795Z" fill="#D1F960"/>
<path d="M12.5795 13.5988V14.5935H11.809L13.1556 14.5999L13.1596 12.6044L12.5795 12.6042V13.5988Z" fill="#D1F960"/>
<path d="M14.2442 13.0553C14.0891 12.9728 14.0345 12.7589 14.1358 12.6302C14.1431 12.6209 14.1823 12.6123 14.2488 12.6044L13.1596 12.6044L13.1556 14.5999L21.6149 14.64C21.4709 14.3787 21.4601 13.9675 21.4591 12.6481L21.4591 12.6043L20.2873 12.6043C20.3543 12.6123 20.3937 12.6209 20.4011 12.6302C20.5024 12.7589 20.4478 12.9728 20.2926 13.0553C20.0917 13.1621 14.4452 13.1621 14.2442 13.0553Z" fill="#D1F960"/>
<path d="M14.1358 12.6302C14.0345 12.7589 14.0891 12.9728 14.2442 13.0553C14.4452 13.1621 20.0917 13.1621 20.2926 13.0553C20.4478 12.9728 20.5024 12.7589 20.4011 12.6302C20.3937 12.6209 20.3543 12.6123 20.2873 12.6043L14.2488 12.6044C14.1823 12.6123 14.1431 12.6209 14.1358 12.6302Z" fill="#D1F960"/>
<path d="M22.4454 14.5912C22.3323 14.558 22.1888 14.4625 22.1263 14.3788C22.0191 14.2351 22.0128 14.1485 22.0128 12.8161V12.6043L21.4591 12.6043L21.4591 12.6481C21.4601 13.9675 21.4709 14.3787 21.6149 14.64L23.8157 14.6505C23.2041 14.6465 22.5629 14.6256 22.4454 14.5912Z" fill="#D1F960"/>
<path d="M22.1263 14.3788C22.1888 14.4625 22.3323 14.558 22.4454 14.5912C22.5629 14.6256 23.2041 14.6465 23.8157 14.6505L23.9284 14.651C24.4968 14.6527 25.0093 14.6393 25.0093 14.6077C25.0093 14.5834 24.3351 13.8529 23.5111 12.9845L23.1503 12.6043L22.0128 12.6043V12.8161C22.0128 14.1485 22.0191 14.2351 22.1263 14.3788Z" fill="#D1F960"/>
<path d="M23.5111 12.9845C24.3351 13.8529 25.0093 14.5834 25.0093 14.6077L25.8127 14.5935L24.8706 13.5988L23.9284 12.6042L23.1503 12.6043L23.5111 12.9845Z" fill="#D1F960"/>
<path d="M24.7854 28.1715C24.7427 28.2557 24.6866 28.2774 23.9964 28.2829L25.7029 28.2787C25.67 28.2776 25.6333 28.2716 25.5926 28.2609C25.4088 28.2122 25.3493 27.97 25.4829 27.8143C25.5261 27.764 25.5898 27.721 25.64 27.7056L22.9284 27.7105C24.4364 27.722 24.7117 27.7452 24.7556 27.7915C24.857 27.8984 24.8659 28.0128 24.7854 28.1715Z" fill="#112235"/>
<path d="M26.5892 27.8184C26.6613 27.7343 26.7159 27.7097 27.3917 27.7025L25.7207 27.7055C25.8566 27.7405 25.9666 27.9255 25.9298 28.0801C25.8989 28.2101 25.8349 28.2742 25.7264 28.2787L29.0198 28.2707L26.5934 28.2554L26.5404 28.0963C26.4983 27.9702 26.5085 27.9125 26.5892 27.8184Z" fill="#112235"/>
<path d="M13.1608 12.0129L13.1596 12.6044L14.2488 12.6044C15.0244 12.512 19.5094 12.512 20.2873 12.6043L21.4591 12.6043L21.4587 12.0172L13.1608 12.0129Z" fill="#112235"/>
<path d="M22.0128 12.6043L23.1503 12.6043L22.5937 12.0177L22.0128 12.0174V12.6043Z" fill="#112235"/>
<path d="M21.8255 14.8969C21.7346 14.8074 21.6663 14.7333 21.6149 14.64L13.1556 14.5999L13.1544 15.1871L14.3952 15.1918C14.3139 15.1833 14.2662 15.1733 14.2442 15.1616C14.0891 15.0792 14.0345 14.8652 14.1358 14.7366C14.1924 14.6647 14.6626 14.652 17.2684 14.652L17.5169 14.652C19.9595 14.6518 20.3972 14.6518 20.4536 14.8063C20.4658 14.8401 20.46 14.8812 20.4528 14.9312C20.4522 14.935 20.4517 14.9388 20.4512 14.9426C20.4506 14.9465 20.4501 14.9505 20.4495 14.9545C20.428 15.113 20.3957 15.1821 19.7817 15.2122L24.1502 15.2288L23.8579 15.2246C22.2164 15.2009 22.1181 15.1851 21.8255 14.8969Z" fill="#112235"/>
<path d="M26.7619 15.1889L25.9526 15.1699V15.2159L27.2854 15.2012L26.7619 15.1889Z" fill="#112235"/>
<path fill-rule="evenodd" clip-rule="evenodd" d="M23.9284 12.0184L22.5937 12.0177L23.1503 12.6043L23.9284 12.6042L24.3338 12.6043L26.5081 12.6048L29.0878 12.6054L29.3652 12.7433C29.6958 12.9077 29.8466 13.0694 29.9987 13.4233C30.1106 13.6836 30.1119 13.7671 30.1131 20.6931L30.1144 27.6996H29.0198H28.4028C27.9637 27.6996 27.6369 27.6999 27.3917 27.7025C26.7159 27.7097 26.6613 27.7343 26.5892 27.8184C26.5085 27.9125 26.4983 27.9702 26.5404 28.0963L26.5934 28.2554L29.0198 28.2707L31.4461 28.2859L31.4458 29.2361C31.4456 29.7586 31.4196 30.2843 31.3881 30.4042C31.3002 30.7377 31.0074 31.0982 30.6758 31.2808L30.3791 31.4442H19.2938H8.20849L7.91185 31.2808C7.58029 31.0982 7.28742 30.7377 7.19958 30.4042C7.168 30.2843 7.14203 29.7584 7.14187 29.2355L7.14154 28.2847H11.9638H16.7861L16.8053 28.8356C16.8227 29.3364 16.8398 29.4097 16.9917 29.6401C17.0894 29.7882 17.2616 29.9484 17.4058 30.0253C17.6453 30.1531 17.7019 30.157 19.2969 30.157C20.911 30.157 20.9455 30.1545 21.1856 30.0208C21.3201 29.946 21.5051 29.7726 21.5967 29.6357C21.7481 29.4091 21.7648 29.3367 21.7824 28.8356L21.8016 28.2847H23.2647C23.5659 28.2847 23.8054 28.2844 23.9964 28.2829C24.6866 28.2774 24.7427 28.2557 24.7854 28.1715C24.8659 28.0128 24.857 27.8984 24.7556 27.7915C24.7117 27.7452 24.4364 27.722 22.9284 27.7105C21.7393 27.7014 19.7838 27.6996 16.5709 27.6996H8.47329L8.47451 20.6931C8.47573 13.7671 8.47701 13.6836 8.58893 13.4233C8.74109 13.0694 8.8918 12.9077 9.22241 12.7433C9.49297 12.6087 9.53798 12.6053 11.0397 12.6048L11.872 12.6045L12.5795 12.6042L13.1596 12.6044L13.1608 12.0129L12.5795 12.0127L10.9287 12.0305C9.37351 12.0473 9.26286 12.0557 9.01842 12.1748C8.6523 12.3532 8.29889 12.718 8.10883 13.1138L7.94614 13.4526L7.93121 20.5761L7.91623 27.6996H7.3433C7.30103 27.6996 7.26056 27.6993 7.2228 27.6991C6.96355 27.6976 6.80779 27.6966 6.71546 27.7769C6.57651 27.8976 6.58123 28.2022 6.59305 28.9651C6.5942 29.0393 6.59541 29.1177 6.59657 29.2008C6.61383 30.4399 6.61882 30.4888 6.7606 30.8076C6.95858 31.2527 7.23764 31.5632 7.65382 31.8011L8.00163 32H19.2938H30.586L30.9073 31.8285C31.2987 31.6195 31.6287 31.2538 31.8257 30.8108C31.9692 30.488 31.9738 30.4431 31.9911 29.2008C31.9917 29.1571 31.9923 29.1147 31.9929 29.0736C31.9934 29.0411 31.9939 29.0095 31.9944 28.9785L31.9945 28.9739L31.9945 28.9688L31.9946 28.9663L31.9946 28.9651C32.0064 28.2022 32.0111 27.8976 31.8722 27.7769C31.7799 27.6966 31.6241 27.6976 31.3648 27.6991C31.3269 27.6993 31.2868 27.6996 31.2443 27.6996H30.6714L30.6564 20.5761L30.6415 13.4526L30.4788 13.1138C30.2888 12.718 29.9353 12.3532 29.5692 12.1748C29.315 12.0509 29.2496 12.048 26.3384 12.0318L23.9284 12.0184ZM25.8127 14.5935L25.0093 14.6077C25.0093 14.6393 24.4968 14.6527 23.9284 14.651C23.8911 14.6509 23.8535 14.6507 23.8157 14.6505L21.6149 14.64C21.6663 14.7333 21.7346 14.8074 21.8255 14.8969C22.1181 15.1851 22.2164 15.2009 23.8579 15.2246L24.1502 15.2288L24.4276 15.2328L25.9526 15.2159V15.1699L26.7619 15.1889L27.2854 15.2012L27.5712 15.2078L27.733 15.3989L27.8948 15.59V20.4719C27.8948 24.1322 27.8782 25.3921 27.8284 25.5071C27.7126 25.7751 27.5295 25.8273 26.7045 25.8273H26.5404H25.9526H25.3977H24.3148H19.2654H13.1332H12.5795L11.8166 25.826C11.0013 25.8246 10.8995 25.7928 10.7549 25.4947C10.7107 25.4036 10.6929 23.9655 10.6929 20.4854V15.604L10.8115 15.4449C10.9848 15.2126 11.0906 15.1864 11.872 15.1823L12.5795 15.1786V15.185L13.1544 15.1871L13.1556 14.5999L11.809 14.5935C11.0739 14.5935 11.0249 14.601 10.7428 14.7564C10.5029 14.8886 10.4177 14.9786 10.2916 15.233L10.1362 15.5466L10.151 20.5942L10.1657 25.6417L10.3329 25.8954C10.4307 26.0437 10.6027 26.2038 10.747 26.2807L10.9939 26.4124H19.2969H27.5998L27.8444 26.2762C27.9789 26.2014 28.1639 26.028 28.2554 25.8909L28.4219 25.6417L28.4367 20.5942L28.4514 15.5466L28.2961 15.233C28.17 14.9786 28.0848 14.8886 27.8449 14.7564C27.5581 14.5984 27.5229 14.5935 26.6809 14.5935H25.8127ZM22.0128 12.0174V12.6043L21.4591 12.6043L21.4587 12.0172L22.0128 12.0174ZM14.2488 12.6044C15.0244 12.512 19.5094 12.512 20.2873 12.6043L14.2488 12.6044ZM14.2442 15.1616C14.0891 15.0792 14.0345 14.8652 14.1358 14.7366C14.1924 14.6647 14.6626 14.652 17.2684 14.652L17.5169 14.652C19.9595 14.6518 20.3972 14.6518 20.4536 14.8063C20.4658 14.8401 20.46 14.8812 20.4528 14.9312L20.4512 14.9426C20.4506 14.9465 20.4501 14.9505 20.4495 14.9545C20.428 15.113 20.3957 15.1821 19.7817 15.2122C19.3315 15.2343 18.5688 15.2354 17.2684 15.2354C15.5148 15.2354 14.7072 15.2245 14.3952 15.1918C14.3139 15.1833 14.2662 15.1733 14.2442 15.1616ZM25.5926 28.2609C25.4088 28.2122 25.3493 27.97 25.4829 27.8143C25.5261 27.764 25.5898 27.721 25.64 27.7056C25.6528 27.7017 25.6647 27.6996 25.6752 27.6996C25.6905 27.6996 25.7058 27.7016 25.7207 27.7055C25.8566 27.7405 25.9666 27.9255 25.9298 28.0801C25.8989 28.2101 25.8349 28.2742 25.7264 28.2787C25.7213 28.2789 25.7161 28.279 25.7108 28.2789C25.7082 28.2789 25.7056 28.2788 25.7029 28.2787C25.67 28.2776 25.6333 28.2716 25.5926 28.2609ZM21.1697 29.2517C21.2061 29.1673 21.236 28.9152 21.236 28.6915V28.2847H19.2938H17.3517V28.6981C17.3517 29.1386 17.4044 29.3063 17.594 29.4682C17.6997 29.5585 17.8772 29.5694 19.255 29.5706C20.9299 29.572 21.0391 29.5538 21.1697 29.2517Z" fill="#112235"/>
<path fill-rule="evenodd" clip-rule="evenodd" d="M16.5625 17.6556C16.7176 17.8082 16.7176 18.0556 16.5625 18.2082L14.0638 20.6674L16.5625 23.1265C16.7176 23.2791 16.7176 23.5265 16.5625 23.6791C16.4074 23.8318 16.156 23.8318 16.001 23.6791L12.9407 20.6674L16.001 17.6556C16.156 17.503 16.4074 17.503 16.5625 17.6556Z" fill="#112235"/>
<path fill-rule="evenodd" clip-rule="evenodd" d="M21.957 23.679C21.8019 23.5264 21.8019 23.279 21.957 23.1264L24.4557 20.6672L21.957 18.2081C21.8019 18.0555 21.8019 17.808 21.957 17.6554C22.112 17.5028 22.3634 17.5028 22.5185 17.6554L25.5788 20.6672L22.5185 23.679C22.3634 23.8316 22.112 23.8316 21.957 23.679Z" fill="#112235"/>
<path fill-rule="evenodd" clip-rule="evenodd" d="M21.0181 16.5138C21.2217 16.594 21.3208 16.8214 21.2393 17.0218L18.3577 24.1117C18.2763 24.3121 18.0452 24.4096 17.8416 24.3294C17.638 24.2493 17.5389 24.0218 17.6204 23.8214L20.502 16.7315C20.5834 16.5311 20.8145 16.4336 21.0181 16.5138Z" fill="#112235"/>
</svg>
