<svg width="32" height="32" viewBox="0 0 32 32" fill="none" xmlns="http://www.w3.org/2000/svg">
<g clip-path="url(#clip0_1_7598)">
<path d="M3.8125 9.90625L5.21875 11.7812L8.03125 8.5" stroke="#112235" stroke-linecap="round"/>
<path d="M3.8125 16.4688L5.21875 18.3438L8.03125 15.0625" stroke="#112235" stroke-linecap="round"/>
<path d="M3.8125 23.0312L5.21875 24.9062L8.03125 21.625" stroke="#112235" stroke-linecap="round"/>
<line x1="10.875" y1="9.875" x2="17.375" y2="9.875" stroke="#112235" stroke-linecap="round"/>
<line x1="10.875" y1="16.4375" x2="17.375" y2="16.4375" stroke="#112235" stroke-linecap="round"/>
<line x1="10.875" y1="23" x2="17.375" y2="23" stroke="#112235" stroke-linecap="round"/>
<path d="M18.1804 12.779C16.4229 12.972 14.8 13.9388 13.8099 15.3826C11.9793 18.0519 12.5598 21.6991 15.1262 23.6519C16.6651 24.8231 18.5677 25.193 20.4533 24.6875C21.0108 24.5381 21.9624 24.0724 22.418 23.7261C22.611 23.5794 22.7831 23.4593 22.8006 23.4593C22.818 23.4593 23.0795 23.7076 23.3816 24.011C23.9279 24.5595 23.9307 24.5638 23.8646 24.7533C23.7641 25.0415 23.787 25.4532 23.9198 25.7479C24.0087 25.9453 24.6276 26.6025 26.3685 28.3487C27.6498 29.6339 28.817 30.7562 28.9622 30.8427C29.1821 30.9737 29.296 31 29.6417 31C30.0016 31 30.0954 30.9763 30.3443 30.8224C30.5224 30.7123 30.6991 30.5356 30.8092 30.3575C30.9631 30.1086 30.9868 30.0148 30.9868 29.6549C30.9868 29.3092 30.9604 29.1953 30.8295 28.9755C30.743 28.8302 29.6207 27.663 28.3354 26.3817C26.5893 24.6408 25.932 24.0219 25.7347 23.933C25.44 23.8002 25.0283 23.7774 24.7401 23.8778C24.5506 23.9439 24.5463 23.9411 23.9978 23.3949C23.6944 23.0927 23.4461 22.8312 23.4461 22.8138C23.4461 22.7964 23.5661 22.6242 23.7128 22.4312C24.0546 21.9817 24.5223 21.0293 24.674 20.4743C25.402 17.8097 24.2852 15.0295 21.9105 13.5947C20.869 12.9654 19.4027 12.6447 18.1804 12.779Z" fill="#D1F960"/>
<path d="M10.4479 1.06216C10.1108 1.17313 9.9556 1.26162 9.64218 1.52153C9.20599 1.8833 9.05946 1.9228 8.15329 1.9228C7.69515 1.9228 7.24776 1.95337 7.10979 1.99415C6.84731 2.07173 6.25209 2.61003 6.25209 2.76988C6.25209 3.53563 6.14 5.33701 6.27879 5.47573L6.4228 5.6198H11.2706C14.4279 5.6198 16.1572 5.59908 16.2294 5.56041C16.3949 5.47186 16.4621 5.13766 16.4625 4.40213L16.3748 2.84998L16.1988 2.5784C16.0027 2.27595 15.7328 2.07115 15.4135 1.98242C15.2967 1.94997 14.8504 1.92333 14.4218 1.92315C13.5304 1.92274 13.4034 1.88653 12.8954 1.48767C12.3836 1.08581 12.1957 1.02554 11.3868 1.00377C10.9147 0.991094 10.6053 1.01034 10.4479 1.06216Z" fill="#D1F960"/>
<path d="M6.25209 2.76988C6.25209 2.61003 6.84731 2.07173 7.10979 1.99415C7.24775 1.95337 7.69515 1.9228 8.15329 1.9228C9.05946 1.9228 9.20599 1.8833 9.64218 1.52153C9.9556 1.26162 10.1108 1.17313 10.4479 1.06216C10.6053 1.01034 10.9147 0.991094 11.3868 1.00377C12.1957 1.02554 12.3836 1.08581 12.8954 1.48767C13.4034 1.88653 13.5304 1.92274 14.4218 1.92315C14.8504 1.92333 15.2967 1.94997 15.4135 1.98242C15.7328 2.07115 16.0027 2.27595 16.1988 2.5784L16.3748 2.84998M6.25209 2.76988C6.25209 2.85127 6.04277 2.86172 4.41427 2.86172C2.92848 2.86172 2.51794 2.87909 2.27142 2.95227C1.84245 3.07966 1.39335 3.46339 1.17622 3.8879L1 4.23248V15.533V26.8335L1.12734 27.1091C1.28995 27.461 1.68113 27.8522 2.05629 28.0379L2.3497 28.1832H11.2694H20.1892L20.5159 28.03C20.9255 27.8379 21.2475 27.514 21.4425 27.0976C21.5704 26.8246 21.594 26.6905 21.5956 26.2271C21.5974 25.7211 21.5956 24.2199 21.5956 24.2199M6.25209 2.76988C6.25209 3.53563 6.14 5.33701 6.27879 5.47573L6.4228 5.6198H11.2706C14.4279 5.6198 16.1572 5.59908 16.2294 5.56041C16.3949 5.47186 16.4621 5.13766 16.4625 4.40213L16.3748 2.84998M16.3748 2.84998L18.3114 2.87052L20.2479 2.89106L20.554 3.05244C20.961 3.26698 21.2566 3.57236 21.4438 3.97164L21.5976 4.29944V8.12231C21.5976 11.7992 21.5976 13.4212 21.5976 13.4212M25.1311 27.0976L27.1333 25.192M18.1804 12.779C16.4229 12.972 14.8 13.9388 13.8099 15.3826C11.9793 18.0519 12.5598 21.6991 15.1262 23.6519C16.6651 24.8231 18.5677 25.193 20.4533 24.6875C21.0108 24.5381 21.9624 24.0724 22.418 23.7261C22.611 23.5794 22.7831 23.4593 22.8006 23.4593C22.818 23.4593 23.0795 23.7076 23.3816 24.011C23.9279 24.5595 23.9307 24.5638 23.8646 24.7533C23.7641 25.0416 23.787 25.4532 23.9198 25.7479C24.0087 25.9453 24.6276 26.6025 26.3685 28.3487C27.6498 29.6339 28.817 30.7562 28.9622 30.8427C29.1821 30.9737 29.296 31 29.6417 31C30.0016 31 30.0954 30.9763 30.3443 30.8224C30.5224 30.7123 30.6991 30.5356 30.8092 30.3575C30.9631 30.1086 30.9868 30.0148 30.9868 29.6549C30.9868 29.3092 30.9604 29.1953 30.8295 28.9755C30.743 28.8302 29.6207 27.663 28.3354 26.3817C26.5893 24.6408 25.932 24.0219 25.7347 23.933C25.44 23.8002 25.0283 23.7774 24.7401 23.8778C24.5506 23.9439 24.5463 23.9411 23.9978 23.3949C23.6944 23.0927 23.4461 22.8312 23.4461 22.8138C23.4461 22.7964 23.5661 22.6242 23.7128 22.4312C24.0546 21.9817 24.5223 21.0293 24.674 20.4743C25.402 17.8097 24.2852 15.0295 21.9105 13.5947C20.869 12.9654 19.4027 12.6447 18.1804 12.779Z" stroke="#112235"/>
</g>
<defs>
<clipPath id="clip0_1_7598">
<rect width="32" height="32" fill="white"/>
</clipPath>
</defs>
</svg>
