<svg width="32" height="32" viewBox="0 0 32 32" fill="none" xmlns="http://www.w3.org/2000/svg">
<g clip-path="url(#clip0_1_22946)">
<path d="M10.372 26.9951C10.4314 27.0705 10.469 27.1473 10.4859 27.2215L12.1235 26.8985C12.1453 26.8742 12.1679 26.8494 12.1913 26.8239H8.37754L10.2449 26.8334L10.372 26.9951Z" fill="#D1F960"/>
<path d="M10.1785 27.6961C10.0804 27.7303 9.03356 27.7518 7.75502 27.7602H11.5308C11.6049 27.5334 11.7675 27.2932 12.1235 26.8985L10.4859 27.2215C10.5325 27.4258 10.4225 27.611 10.1785 27.6961Z" fill="#D1F960"/>
<path d="M17.6585 26.8281C17.6028 26.8847 17.5446 26.9435 17.4839 27.0048L18.4455 27.2191C18.4522 27.1223 18.4909 27.0281 18.5669 26.9522C18.6653 26.8537 18.7404 26.8327 20.7009 26.8281H17.6585Z" fill="#D1F960"/>
<path d="M20.8573 27.7564C19.695 27.7563 18.8858 27.7489 18.8336 27.7358C18.5804 27.6722 18.4303 27.439 18.4455 27.2191L17.4839 27.0048C17.2675 27.223 17.0184 27.4716 16.7317 27.7564H20.8573Z" fill="#D1F960"/>
<path fill-rule="evenodd" clip-rule="evenodd" d="M9.02984 4.45259C9.28857 3.355 10.0597 2.50345 11.1231 2.14084C11.5236 2.00432 11.5899 2.00169 14.7231 2.00013C18.1802 1.99838 18.3199 2.00982 18.9385 2.34654C19.6333 2.72466 20.2069 3.41961 20.4504 4.17804C20.5578 4.51288 20.5899 4.80419 20.6151 5.67276L20.6465 6.75158L23.5311 6.75208C25.2023 6.75233 26.5867 6.7796 26.8222 6.81693C28.0952 7.01863 29.2121 8.08726 29.4823 9.36221C29.5388 9.62882 29.5723 10.1627 29.5729 10.8088L29.574 11.8327L29.9492 12.2338C31.3513 13.7326 32.0984 15.79 31.9896 17.8525C31.8917 19.7077 31.2335 21.305 29.9925 22.6994L29.575 23.1685L29.5734 23.9502C29.5725 24.3836 29.5319 24.9203 29.4823 25.1546C29.2389 26.303 28.3861 27.2213 27.1975 27.615C26.8825 27.7193 26.5222 27.7307 22.9159 27.7505C22.1715 27.7546 21.466 27.7565 20.8573 27.7564C19.695 27.7563 18.8858 27.7489 18.8336 27.7358C18.5804 27.6722 18.4303 27.439 18.4455 27.2191C18.4522 27.1223 18.4909 27.0281 18.5669 26.9522C18.6653 26.8537 18.7404 26.8327 20.7009 26.8281C21.1773 26.8269 21.7649 26.8268 22.4913 26.8267C24.6569 26.8265 26.4505 26.8002 26.6624 26.7655C27.4542 26.6358 28.179 26.0586 28.4504 25.3415C28.5832 24.9907 28.7016 23.9502 28.6088 23.9502C28.5841 23.9502 28.3761 24.0614 28.1465 24.1973C27.216 24.748 26.1255 25.0933 24.9353 25.2138C23.325 25.377 21.5597 24.9607 20.129 24.0804L19.8346 23.8992L19.343 24.3937C18.8982 24.841 18.8532 24.9086 18.87 25.1036C18.901 25.4636 18.7957 25.6727 17.6585 26.8281C17.6028 26.8847 17.5446 26.9435 17.4839 27.0048C17.2675 27.223 17.0184 27.4716 16.7317 27.7564C16.685 27.8029 16.6373 27.8503 16.5885 27.8987C15.2808 29.1972 14.4306 29.9934 14.2516 30.0874C14.0131 30.2126 13.8794 30.2352 13.376 30.2352C12.6985 30.2352 12.4279 30.1317 12.0083 29.7121C11.6198 29.3236 11.4685 28.9446 11.4685 28.3593C11.4685 28.1185 11.4707 27.9437 11.5308 27.7602C11.6049 27.5334 11.7675 27.2932 12.1235 26.8985C12.1453 26.8742 12.1679 26.8494 12.1913 26.8239C12.5546 26.428 13.1006 25.883 13.9209 25.0657C16.14 22.8549 16.2382 22.7765 16.6824 22.8624C16.8229 22.8896 16.9192 22.8213 17.3412 22.395L17.8354 21.8958L17.6409 21.5926C16.98 20.5626 16.6355 19.4504 16.4681 17.8056L16.4315 17.446H12.5323H8.63308L8.61213 18.5561C8.58874 19.7913 8.54108 19.9628 8.09773 20.4062C7.25475 21.2491 5.81682 21.0074 5.28122 19.9325C5.12769 19.6243 5.12068 19.5638 5.12068 18.5404V17.4704L4.64956 17.3912C3.21395 17.15 1.90654 16.359 1.07062 15.2258L0.93222 15.0382L0.946979 20.0414L0.961739 25.0447L1.14317 25.4375C1.37369 25.9367 1.90673 26.4453 2.41362 26.6496L2.77541 26.7954L6.51014 26.8144L8.37754 26.8239L10.2449 26.8334L10.372 26.9951C10.4314 27.0705 10.469 27.1473 10.4859 27.2215C10.5325 27.4258 10.4225 27.611 10.1785 27.6961C10.0804 27.7303 9.03356 27.7518 7.75502 27.7602C5.76795 27.7732 3.22121 27.7544 2.80668 27.7017C1.65294 27.555 0.604195 26.6984 0.166161 25.545L0.0236316 25.1697L0.00480693 17.4773C-0.00876436 11.9387 0.00574504 9.68141 0.0567155 9.41555C0.273293 8.28613 1.07994 7.35697 2.19904 6.94783L2.65033 6.78285L5.79299 6.76352L8.93565 6.7442L8.93659 5.79415C8.93715 5.17818 8.96998 4.70644 9.02984 4.45259ZM19.4625 4.24052C19.2234 3.73131 18.8561 3.35269 18.3885 3.13349L18.0353 2.96788L14.8457 2.95412C12.3339 2.9433 11.6076 2.95794 11.4275 3.02292C10.7151 3.28008 10.212 3.79335 10.0001 4.47942C9.89727 4.81232 9.87376 5.06211 9.87376 5.82004V6.75158H10.3686H10.8634L10.8845 5.76657C10.9083 4.6581 10.9517 4.52207 11.3961 4.16278L11.6364 3.96853L14.6943 3.9512C17.656 3.93438 17.7599 3.93782 17.9995 4.06002C18.2973 4.212 18.5303 4.50494 18.6229 4.84409C18.6605 4.98168 18.6914 5.46718 18.6916 5.92292L18.692 6.75158H19.1995H19.7071L19.6825 5.70403C19.6585 4.68549 19.6525 4.64496 19.4625 4.24052ZM17.7539 5.93442C17.7539 5.48501 17.7247 5.06286 17.6891 4.99632C17.6266 4.87949 17.5283 4.87536 14.7935 4.87536C12.6751 4.87536 11.9437 4.89425 11.8876 4.95041C11.8365 5.00151 11.8125 5.30064 11.8125 5.88852V6.75158H14.7832H17.7539V5.93442ZM27.9222 8.4034C27.6538 8.1351 27.4307 7.97818 27.1662 7.8718L26.791 7.72096L14.9083 7.70901C3.31101 7.69741 2.74446 7.68834 2.2937 7.9123C2.25347 7.93229 2.21416 7.95413 2.16802 7.978C1.80172 8.16737 1.32966 8.67551 1.14148 9.08296C0.962489 9.4704 0.961676 9.47828 0.941788 10.9016C0.918523 12.5734 0.98713 13.0495 1.36906 13.8659C1.66463 14.4977 2.08321 15.0411 2.61318 15.481C3.23258 15.9952 4.17901 16.4108 4.83925 16.4585L5.08941 16.4766L5.12462 16.0388C5.16546 15.5316 5.30618 15.2008 5.61069 14.8963C6.30463 14.2024 7.39434 14.2079 8.09542 14.909C8.46034 15.274 8.62295 15.6643 8.62295 16.1756V16.5088L12.5721 16.4927L16.5212 16.4766L16.6383 15.8969C17.064 13.7896 18.3753 11.9468 20.2513 10.8192C22.7416 9.32249 25.9346 9.36321 28.4058 10.9232L28.6514 11.0782L28.6218 10.3064C28.5827 9.28903 28.452 8.93324 27.9222 8.4034ZM29.6542 13.331C28.7042 12.0857 27.2289 11.1449 25.715 10.8191C25.0358 10.6729 24.0646 10.6198 23.4526 10.6954C22.263 10.8424 21.0005 11.3668 20.0346 12.1154C17.6036 13.9993 16.752 17.3119 17.9614 20.1795C18.5487 21.5722 19.7974 22.9026 21.1623 23.5897C23.8161 24.9256 27.0435 24.3801 29.1148 22.2455C29.7142 21.6279 30.0581 21.1314 30.4292 20.3479C31.5024 18.0823 31.2017 15.3595 29.6542 13.331ZM19.129 15.1558C19.8886 13.5155 21.334 12.3496 23.0698 11.9771C23.6186 11.8593 24.8291 11.857 25.3792 11.9728C27.4425 12.4068 29.1733 14.0428 29.6728 16.0311C29.7566 16.3648 29.7722 16.4387 29.7109 16.5412C29.6965 16.5653 29.6778 16.591 29.6547 16.622C29.5129 16.8127 29.1707 16.8771 29.0005 16.7452C28.943 16.7007 28.8081 16.3984 28.7005 16.0735C28.2639 14.7544 27.4482 13.8268 26.2111 13.2427C25.484 12.8992 24.9581 12.8006 24.0392 12.8348C22.7383 12.8834 21.8733 13.2631 20.9434 14.1935C20.0165 15.1211 19.6274 16.0064 19.5806 17.2945C19.5495 18.1518 19.6704 18.7825 20.0018 19.4907C20.6025 20.7743 21.7991 21.7345 23.229 22.0801C23.7036 22.1948 24.8379 22.1774 25.3525 22.0475C25.9296 21.9019 26.7045 21.5237 27.1488 21.1708C27.8687 20.5991 28.5754 19.5319 28.7665 18.7281C28.7683 18.7208 28.7701 18.7134 28.7718 18.7061C28.8732 18.2982 29.0438 18.123 29.3157 18.1466C29.4645 18.1595 29.57 18.2186 29.6599 18.3395C29.7055 18.4009 29.7349 18.4415 29.7488 18.4873C29.7699 18.5563 29.756 18.6371 29.7103 18.8181C29.7016 18.8528 29.6917 18.8911 29.6806 18.9336C29.5562 19.4135 29.171 20.2527 28.8832 20.6709C28.3365 21.4656 27.5402 22.1368 26.6301 22.5703C24.4646 23.6015 21.9091 23.1391 20.2142 21.4092C19.1035 20.2755 18.5817 18.8966 18.6465 17.2666C18.6825 16.3634 18.7923 15.883 19.129 15.1558ZM7.68459 16.805C7.68434 15.8114 7.62067 15.6066 7.25294 15.4165C6.88989 15.2288 6.49488 15.3113 6.22565 15.6312C6.06116 15.8267 6.05879 15.8428 6.05879 16.7629V17.6962H6.87181H7.68484L7.68459 16.805ZM6.8493 19.9684C7.36007 19.9684 7.68422 19.5903 7.68459 18.9939L7.68484 18.6343H6.87181H6.05879V19.0126C6.05879 19.6365 6.33334 19.9684 6.8493 19.9684ZM18.288 24.139L18.692 23.7313L19.096 23.3237L18.752 22.9797L18.408 22.6357L18.004 23.0434L17.6 23.451L17.944 23.795L18.288 24.139ZM17.9415 25.1504C17.9415 25.1227 17.6361 24.7991 17.2629 24.4313C16.8897 24.0635 16.5718 23.7626 16.5567 23.7626C16.5415 23.7626 16.4045 23.8896 16.2521 24.0448L15.9751 24.327L15.3119 25.0134C15.2225 25.0134 12.4989 27.8216 12.4419 27.9725C12.3416 28.2379 12.3614 28.5105 12.5014 28.793C12.6564 29.1059 12.8731 29.2693 13.1893 29.3117C13.7561 29.3877 13.7956 29.3608 15.2961 27.8736C16.0631 27.1134 16.6907 26.461 16.6907 26.4237L17.4172 25.7013C17.4953 25.7013 17.9415 25.2325 17.9415 25.1504Z" fill="#D1F960"/>
<path d="M29.6599 18.3395C29.7055 18.4009 29.7349 18.4415 29.7488 18.4873C29.7837 17.9609 29.7514 17.1615 29.7109 16.5412C29.6965 16.5653 29.6778 16.591 29.6547 16.622C29.5129 16.8127 29.1707 16.8771 29.0005 16.7452C28.943 16.7007 28.8081 16.3984 28.7005 16.0735C28.827 16.5272 29.0166 17.6846 28.7718 18.7061C28.8732 18.2982 29.0438 18.123 29.3157 18.1466C29.4645 18.1595 29.57 18.2186 29.6599 18.3395Z" fill="#D1F960"/>
<path fill-rule="evenodd" clip-rule="evenodd" d="M25.715 10.8191C27.2289 11.1449 28.7042 12.0857 29.6542 13.331C31.2017 15.3595 31.5024 18.0823 30.4292 20.3479C30.0581 21.1314 29.7142 21.6279 29.1148 22.2455C27.0435 24.3801 23.8161 24.9256 21.1623 23.5897C19.7974 22.9026 18.5487 21.5722 17.9614 20.1795C16.752 17.3119 17.6036 13.9993 20.0346 12.1154C21.0005 11.3668 22.263 10.8424 23.4526 10.6954C24.0646 10.6198 25.0358 10.6729 25.715 10.8191ZM19.129 15.1558C19.8886 13.5155 21.334 12.3496 23.0698 11.9771C23.6186 11.8593 24.8291 11.857 25.3792 11.9728C27.4425 12.4068 29.1733 14.0428 29.6728 16.0311C29.7566 16.3648 29.7722 16.4387 29.7109 16.5412C29.7514 17.1615 29.7837 17.9609 29.7488 18.4873C29.7699 18.5563 29.756 18.6371 29.7103 18.8181C29.7017 18.8626 29.6918 18.9013 29.6806 18.9336C29.5562 19.4135 29.171 20.2527 28.8832 20.6709C28.3365 21.4656 27.5402 22.1368 26.6301 22.5703C24.4646 23.6015 21.9091 23.1391 20.2142 21.4092C19.1035 20.2755 18.5817 18.8966 18.6465 17.2666C18.6825 16.3634 18.7923 15.883 19.129 15.1558Z" fill="#D1F960"/>
<path d="M18.3885 3.13349C18.8561 3.35269 19.2234 3.73131 19.4625 4.24052C19.6525 4.64496 19.6585 4.68549 19.6825 5.70403L19.7071 6.75158H19.1995H18.692L18.6916 5.92292C18.6914 5.46718 18.6605 4.98168 18.6229 4.84409C18.5303 4.50494 18.2973 4.212 17.9995 4.06002C17.7599 3.93782 17.656 3.93438 14.6943 3.9512L11.6364 3.96853L11.3961 4.16278C10.9517 4.52207 10.9083 4.6581 10.8845 5.76657L10.8634 6.75158H10.3686H9.87376V5.82004C9.87376 5.06211 9.89727 4.81232 10.0001 4.47942C10.212 3.79335 10.7151 3.28008 11.4275 3.02292C11.6076 2.95794 12.3339 2.9433 14.8457 2.95412L18.0353 2.96788L18.3885 3.13349Z" fill="#D1F960"/>
<path d="M7.25294 15.4165C7.62067 15.6066 7.68434 15.8114 7.68459 16.805L7.68484 17.6962H6.87181H6.05879V16.7629C6.05879 15.8428 6.06116 15.8267 6.22565 15.6312C6.49488 15.3113 6.88989 15.2288 7.25294 15.4165Z" fill="#D1F960"/>
<path d="M10.372 26.9951C10.4314 27.0705 10.469 27.1473 10.4859 27.2215L12.1235 26.8985C12.1453 26.8742 12.1679 26.8494 12.1913 26.8239H8.37754L10.2449 26.8334L10.372 26.9951Z" fill="#112235"/>
<path d="M10.1785 27.6961C10.0804 27.7303 9.03356 27.7518 7.75502 27.7602H11.5308C11.6049 27.5334 11.7675 27.2932 12.1235 26.8985L10.4859 27.2215C10.5325 27.4258 10.4225 27.611 10.1785 27.6961Z" fill="#112235"/>
<path d="M17.6585 26.8281C17.6028 26.8847 17.5446 26.9435 17.4839 27.0048L18.4455 27.2191C18.4522 27.1223 18.4909 27.0281 18.5669 26.9522C18.6653 26.8537 18.7404 26.8327 20.7009 26.8281H17.6585Z" fill="#112235"/>
<path d="M20.8573 27.7564C19.695 27.7563 18.8858 27.7489 18.8336 27.7358C18.5804 27.6722 18.4303 27.439 18.4455 27.2191L17.4839 27.0048C17.2675 27.223 17.0184 27.4716 16.7317 27.7564H20.8573Z" fill="#112235"/>
<path fill-rule="evenodd" clip-rule="evenodd" d="M9.02984 4.45259C9.28857 3.355 10.0597 2.50345 11.1231 2.14084C11.5236 2.00432 11.5899 2.00169 14.7231 2.00013C18.1802 1.99838 18.3199 2.00982 18.9385 2.34654C19.6333 2.72466 20.2069 3.41961 20.4504 4.17804C20.5578 4.51288 20.5899 4.80419 20.6151 5.67276L20.6465 6.75158L23.5311 6.75208C25.2023 6.75233 26.5867 6.7796 26.8222 6.81693C28.0952 7.01863 29.2121 8.08726 29.4823 9.36221C29.5388 9.62882 29.5723 10.1627 29.5729 10.8088L29.574 11.8327L29.9492 12.2338C31.3513 13.7326 32.0984 15.79 31.9896 17.8525C31.8917 19.7077 31.2335 21.305 29.9925 22.6994L29.575 23.1685L29.5734 23.9502C29.5725 24.3836 29.5319 24.9203 29.4823 25.1546C29.2389 26.303 28.3861 27.2213 27.1975 27.615C26.8825 27.7193 26.5222 27.7307 22.9159 27.7505C22.1715 27.7546 21.466 27.7565 20.8573 27.7564C19.695 27.7563 18.8858 27.7489 18.8336 27.7358C18.5804 27.6722 18.4303 27.439 18.4455 27.2191C18.4522 27.1223 18.4909 27.0281 18.5669 26.9522C18.6653 26.8537 18.7404 26.8327 20.7009 26.8281C21.1773 26.8269 21.7649 26.8268 22.4913 26.8267C24.6569 26.8265 26.4505 26.8002 26.6624 26.7655C27.4542 26.6358 28.179 26.0586 28.4504 25.3415C28.5832 24.9907 28.7016 23.9502 28.6088 23.9502C28.5841 23.9502 28.3761 24.0614 28.1465 24.1973C27.216 24.748 26.1255 25.0933 24.9353 25.2138C23.325 25.377 21.5597 24.9607 20.129 24.0804L19.8346 23.8992L19.343 24.3937C18.8982 24.841 18.8532 24.9086 18.87 25.1036C18.901 25.4636 18.7957 25.6727 17.6585 26.8281C17.6028 26.8847 17.5446 26.9435 17.4839 27.0048C17.2675 27.223 17.0184 27.4716 16.7317 27.7564C16.685 27.8029 16.6373 27.8503 16.5885 27.8987C15.2808 29.1972 14.4306 29.9934 14.2516 30.0874C14.0131 30.2126 13.8794 30.2352 13.376 30.2352C12.6985 30.2352 12.4279 30.1317 12.0083 29.7121C11.6198 29.3236 11.4685 28.9446 11.4685 28.3593C11.4685 28.1185 11.4707 27.9437 11.5308 27.7602C11.6049 27.5334 11.7675 27.2932 12.1235 26.8985C12.1453 26.8742 12.1679 26.8494 12.1913 26.8239C12.5546 26.428 13.1006 25.883 13.9209 25.0657C16.14 22.8549 16.2382 22.7765 16.6824 22.8624C16.8229 22.8896 16.9192 22.8213 17.3412 22.395L17.8354 21.8958L17.6409 21.5926C16.98 20.5626 16.6355 19.4504 16.4681 17.8056L16.4315 17.446H12.5323H8.63308L8.61213 18.5561C8.58874 19.7913 8.54108 19.9628 8.09773 20.4062C7.25475 21.2491 5.81682 21.0074 5.28122 19.9325C5.12769 19.6243 5.12068 19.5638 5.12068 18.5404V17.4704L4.64956 17.3912C3.21395 17.15 1.90654 16.359 1.07062 15.2258L0.93222 15.0382L0.946979 20.0414L0.961739 25.0447L1.14317 25.4375C1.37369 25.9367 1.90673 26.4453 2.41362 26.6496L2.77541 26.7954L6.51014 26.8144L8.37754 26.8239L10.2449 26.8334L10.372 26.9951C10.4314 27.0705 10.469 27.1473 10.4859 27.2215C10.5325 27.4258 10.4225 27.611 10.1785 27.6961C10.0804 27.7303 9.03356 27.7518 7.75502 27.7602C5.76795 27.7732 3.22121 27.7544 2.80668 27.7017C1.65294 27.555 0.604195 26.6984 0.166161 25.545L0.0236316 25.1697L0.00480693 17.4773C-0.00876435 11.9387 0.00574504 9.68141 0.0567155 9.41555C0.273293 8.28613 1.07994 7.35697 2.19904 6.94783L2.65033 6.78285L5.79299 6.76352L8.93565 6.7442L8.93659 5.79415C8.93715 5.17819 8.96999 4.70644 9.02984 4.45259ZM19.4625 4.24052C19.2234 3.73131 18.8561 3.35269 18.3885 3.13349L18.0353 2.96788L14.8457 2.95412C12.3339 2.9433 11.6076 2.95794 11.4275 3.02292C10.7151 3.28008 10.212 3.79335 10.0001 4.47942C9.89727 4.81232 9.87376 5.06211 9.87376 5.82004V6.75158H10.3686H10.8634L10.8845 5.76657C10.9083 4.6581 10.9517 4.52207 11.3961 4.16278L11.6364 3.96853L14.6943 3.9512C17.656 3.93438 17.7599 3.93782 17.9995 4.06002C18.2973 4.212 18.5303 4.50494 18.6229 4.84409C18.6605 4.98168 18.6914 5.46718 18.6916 5.92292L18.692 6.75158H19.1995H19.7071L19.6825 5.70403C19.6585 4.68549 19.6525 4.64496 19.4625 4.24052ZM17.7539 5.93442C17.7539 5.48501 17.7247 5.06286 17.6891 4.99632C17.6266 4.87949 17.5283 4.87536 14.7935 4.87536C12.6751 4.87536 11.9437 4.89425 11.8876 4.95041C11.8365 5.00151 11.8125 5.30064 11.8125 5.88852V6.75158H14.7832H17.7539V5.93442ZM27.9222 8.4034C27.6538 8.1351 27.4307 7.97818 27.1662 7.8718L26.791 7.72096L14.9083 7.70901C3.31101 7.69741 2.74446 7.68834 2.2937 7.9123C2.25347 7.93229 2.21416 7.95413 2.16802 7.978C1.80172 8.16737 1.32966 8.67551 1.14148 9.08296C0.962489 9.4704 0.961676 9.47828 0.941788 10.9016C0.918523 12.5734 0.98713 13.0495 1.36906 13.8659C1.66463 14.4977 2.08321 15.0411 2.61318 15.481C3.23258 15.9952 4.17901 16.4108 4.83925 16.4585L5.08941 16.4766L5.12462 16.0388C5.16546 15.5316 5.30618 15.2008 5.61069 14.8963C6.30463 14.2024 7.39434 14.2079 8.09542 14.909C8.46034 15.274 8.62295 15.6643 8.62295 16.1756V16.5088L12.5721 16.4927L16.5212 16.4766L16.6383 15.8969C17.064 13.7896 18.3753 11.9468 20.2513 10.8192C22.7416 9.32249 25.9346 9.36321 28.4058 10.9232L28.6514 11.0782L28.6218 10.3064C28.5827 9.28903 28.452 8.93324 27.9222 8.4034ZM29.6542 13.331C28.7042 12.0857 27.2289 11.1449 25.715 10.8191C25.0358 10.6729 24.0646 10.6198 23.4526 10.6954C22.263 10.8424 21.0005 11.3668 20.0346 12.1154C17.6036 13.9993 16.752 17.3119 17.9614 20.1795C18.5487 21.5722 19.7974 22.9026 21.1623 23.5897C23.8161 24.9256 27.0435 24.3801 29.1148 22.2455C29.7142 21.6279 30.0581 21.1314 30.4292 20.3479C31.5024 18.0823 31.2017 15.3595 29.6542 13.331ZM19.129 15.1558C19.8886 13.5155 21.334 12.3496 23.0698 11.9771C23.6186 11.8593 24.8291 11.857 25.3792 11.9728C27.4425 12.4068 29.1733 14.0428 29.6728 16.0311C29.7566 16.3648 29.7722 16.4387 29.7109 16.5412C29.6965 16.5653 29.6778 16.591 29.6547 16.622C29.5129 16.8127 29.1707 16.8771 29.0005 16.7452C28.943 16.7007 28.8081 16.3984 28.7005 16.0735C28.2639 14.7544 27.4482 13.8268 26.2111 13.2427C25.484 12.8992 24.9581 12.8006 24.0392 12.8348C22.7383 12.8834 21.8733 13.2631 20.9434 14.1935C20.0165 15.1211 19.6274 16.0064 19.5806 17.2945C19.5495 18.1518 19.6704 18.7825 20.0018 19.4907C20.6025 20.7743 21.7991 21.7345 23.229 22.0801C23.7036 22.1948 24.8379 22.1774 25.3525 22.0475C25.9296 21.9019 26.7045 21.5237 27.1488 21.1708C27.8687 20.5991 28.5754 19.5319 28.7665 18.7281C28.7682 18.7207 28.77 18.7133 28.7718 18.7061C28.8732 18.2982 29.0438 18.123 29.3157 18.1466C29.4645 18.1595 29.57 18.2186 29.6599 18.3395C29.7055 18.4009 29.7349 18.4415 29.7488 18.4873C29.7739 18.5695 29.7494 18.6684 29.6806 18.9336C29.5562 19.4135 29.171 20.2527 28.8832 20.6709C28.3365 21.4656 27.5402 22.1368 26.6301 22.5703C24.4646 23.6015 21.9091 23.1391 20.2142 21.4092C19.1035 20.2755 18.5817 18.8966 18.6465 17.2666C18.6825 16.3634 18.7923 15.883 19.129 15.1558ZM7.68459 16.805C7.68434 15.8114 7.62067 15.6066 7.25294 15.4165C6.88989 15.2288 6.49488 15.3113 6.22565 15.6312C6.06116 15.8267 6.05879 15.8428 6.05879 16.7629V17.6962H6.87181H7.68484L7.68459 16.805ZM6.8493 19.9684C7.36007 19.9684 7.68422 19.5903 7.68459 18.9939L7.68484 18.6343H6.87181H6.05879V19.0126C6.05879 19.6365 6.33334 19.9684 6.8493 19.9684ZM18.288 24.139L18.692 23.7313L19.096 23.3237L18.752 22.9797L18.408 22.6357L18.004 23.0434L17.6 23.451L17.944 23.795L18.288 24.139ZM17.9415 25.1504C17.9415 25.1227 17.6361 24.7991 17.2629 24.4313C16.8897 24.0635 16.5718 23.7626 16.5567 23.7626C16.5415 23.7626 16.4045 23.8896 16.2521 24.0448L15.9751 24.327L15.3119 25.0134C15.2225 25.0134 12.4989 27.8216 12.4419 27.9725C12.3416 28.2379 12.3614 28.5105 12.5014 28.793C12.6564 29.1059 12.8731 29.2693 13.1893 29.3117C13.7561 29.3877 13.7956 29.3608 15.2961 27.8736C16.0631 27.1134 16.6907 26.461 16.6907 26.4237L17.4172 25.7013C17.4953 25.7013 17.9415 25.2325 17.9415 25.1504Z" fill="#112235"/>
<path d="M29.6599 18.3395C29.7055 18.4009 29.7349 18.4415 29.7488 18.4873C29.7837 17.9609 29.7514 17.1615 29.7109 16.5412C29.6965 16.5653 29.6778 16.591 29.6547 16.622C29.5129 16.8127 29.1707 16.8771 29.0005 16.7452C28.943 16.7007 28.8081 16.3984 28.7005 16.0735C28.827 16.5272 29.0166 17.6846 28.7718 18.7061C28.8732 18.2982 29.0438 18.123 29.3157 18.1466C29.4645 18.1595 29.57 18.2186 29.6599 18.3395Z" fill="#112235"/>
</g>
<defs>
<clipPath id="clip0_1_22946">
<rect width="32" height="32" fill="white"/>
</clipPath>
</defs>
</svg>
