<svg width="32" height="32" viewBox="0 0 32 32" fill="none" xmlns="http://www.w3.org/2000/svg">
<mask id="path-1-inside-1_1_15276" fill="white">
<path d="M0 13.7428H3.19206C3.28072 13.7442 3.36712 13.7149 3.4366 13.6598C3.50608 13.6046 3.55435 13.5272 3.5732 13.4405C3.85989 12.3278 4.30089 11.2608 4.88337 10.2705C4.9284 10.1943 4.94656 10.1051 4.93496 10.0173C4.92336 9.92956 4.88267 9.84821 4.8194 9.78631L2.56454 7.52952L6.49506 3.59684L8.74992 5.86111C8.81299 5.92265 8.89425 5.96214 8.98159 5.97367C9.06892 5.98521 9.15764 5.96818 9.23451 5.92513C10.2236 5.34092 11.2902 4.89959 12.4028 4.61423C12.4873 4.59149 12.5624 4.54215 12.6168 4.47348C12.6712 4.40482 12.7021 4.32047 12.7049 4.23288V1.03226H18.2628V4.22607C18.2614 4.31478 18.2907 4.40123 18.3458 4.47075C18.4009 4.54027 18.4784 4.58856 18.565 4.60742C19.6771 4.89427 20.7435 5.33552 21.7332 5.91832C21.8095 5.96327 21.8986 5.98144 21.9864 5.96997C22.0742 5.9585 22.1556 5.91803 22.2178 5.85498L24.4727 3.59071L28.4032 7.52339L26.1483 9.78154C26.0868 9.84464 26.0474 9.92595 26.0358 10.0133C26.0243 10.1007 26.0413 10.1895 26.0844 10.2664C26.6681 11.2549 27.1092 12.3209 27.3945 13.433C27.4174 13.5175 27.4668 13.5924 27.5354 13.6467C27.604 13.701 27.6882 13.7318 27.7757 13.7346H30.9677V19.2962H27.7757C27.6871 19.2948 27.6008 19.3241 27.5313 19.379C27.4619 19.434 27.4135 19.5114 27.3945 19.5979C27.1079 20.7106 26.6668 21.7776 26.0844 22.7679C26.0394 22.8443 26.0213 22.9335 26.0329 23.0214C26.0445 23.1092 26.0851 23.1907 26.1483 23.2528L28.4032 25.5123L24.4727 29.4415L22.2178 27.1773C22.1547 27.1158 22.0734 27.0765 21.986 27.0651C21.8987 27.0537 21.81 27.0708 21.7332 27.1139C20.744 27.6979 19.6774 28.1392 18.565 28.4248C18.4804 28.4476 18.4054 28.4969 18.351 28.5656C18.2965 28.6342 18.2656 28.7186 18.2628 28.8062V32H12.7049V28.8062C12.7063 28.7175 12.677 28.631 12.6219 28.5615C12.5668 28.492 12.4894 28.4437 12.4028 28.4248C11.2907 28.138 10.2243 27.6967 9.23451 27.1139C9.15823 27.069 9.06913 27.0508 8.98134 27.0623C8.89355 27.0738 8.81211 27.1142 8.74992 27.1773L6.49506 29.4415L2.56454 25.5123L4.8194 23.2562C4.8809 23.1931 4.92037 23.1118 4.9319 23.0244C4.94343 22.937 4.92641 22.8482 4.88337 22.7713C4.29908 21.7807 3.85798 20.7123 3.5732 19.5979C3.55035 19.5134 3.50098 19.4385 3.43236 19.3842C3.36375 19.3299 3.27951 19.299 3.19206 19.2962H0V13.7428Z"/>
</mask>
<path d="M0 13.7428H3.19206C3.28072 13.7442 3.36712 13.7149 3.4366 13.6598C3.50608 13.6046 3.55435 13.5272 3.5732 13.4405C3.85989 12.3278 4.30089 11.2608 4.88337 10.2705C4.9284 10.1943 4.94656 10.1051 4.93496 10.0173C4.92336 9.92956 4.88267 9.84821 4.8194 9.78631L2.56454 7.52952L6.49506 3.59684L8.74992 5.86111C8.81299 5.92265 8.89425 5.96214 8.98159 5.97367C9.06892 5.98521 9.15764 5.96818 9.23451 5.92513C10.2236 5.34092 11.2902 4.89959 12.4028 4.61423C12.4873 4.59149 12.5624 4.54215 12.6168 4.47348C12.6712 4.40482 12.7021 4.32047 12.7049 4.23288V1.03226H18.2628V4.22607C18.2614 4.31478 18.2907 4.40123 18.3458 4.47075C18.4009 4.54027 18.4784 4.58856 18.565 4.60742C19.6771 4.89427 20.7435 5.33552 21.7332 5.91832C21.8095 5.96327 21.8986 5.98144 21.9864 5.96997C22.0742 5.9585 22.1556 5.91803 22.2178 5.85498L24.4727 3.59071L28.4032 7.52339L26.1483 9.78154C26.0868 9.84464 26.0474 9.92595 26.0358 10.0133C26.0243 10.1007 26.0413 10.1895 26.0844 10.2664C26.6681 11.2549 27.1092 12.3209 27.3945 13.433C27.4174 13.5175 27.4668 13.5924 27.5354 13.6467C27.604 13.701 27.6882 13.7318 27.7757 13.7346H30.9677V19.2962H27.7757C27.6871 19.2948 27.6008 19.3241 27.5313 19.379C27.4619 19.434 27.4135 19.5114 27.3945 19.5979C27.1079 20.7106 26.6668 21.7776 26.0844 22.7679C26.0394 22.8443 26.0213 22.9335 26.0329 23.0214C26.0445 23.1092 26.0851 23.1907 26.1483 23.2528L28.4032 25.5123L24.4727 29.4415L22.2178 27.1773C22.1547 27.1158 22.0734 27.0765 21.986 27.0651C21.8987 27.0537 21.81 27.0708 21.7332 27.1139C20.744 27.6979 19.6774 28.1392 18.565 28.4248C18.4804 28.4476 18.4054 28.4969 18.351 28.5656C18.2965 28.6342 18.2656 28.7186 18.2628 28.8062V32H12.7049V28.8062C12.7063 28.7175 12.677 28.631 12.6219 28.5615C12.5668 28.492 12.4894 28.4437 12.4028 28.4248C11.2907 28.138 10.2243 27.6967 9.23451 27.1139C9.15823 27.069 9.06913 27.0508 8.98134 27.0623C8.89355 27.0738 8.81211 27.1142 8.74992 27.1773L6.49506 29.4415L2.56454 25.5123L4.8194 23.2562C4.8809 23.1931 4.92037 23.1118 4.9319 23.0244C4.94343 22.937 4.92641 22.8482 4.88337 22.7713C4.29908 21.7807 3.85798 20.7123 3.5732 19.5979C3.55035 19.5134 3.50098 19.4385 3.43236 19.3842C3.36375 19.3299 3.27951 19.299 3.19206 19.2962H0V13.7428Z" fill="#D1F960"/>
<path d="M0 13.7428V12.9428H-0.8V13.7428H0ZM3.19206 13.7428L3.20469 12.9428H3.19206V13.7428ZM3.5732 13.4405L2.7985 13.2409L2.79471 13.2556L2.79148 13.2704L3.5732 13.4405ZM4.88337 10.2705L4.19454 9.86365L4.19382 9.86489L4.88337 10.2705ZM4.8194 9.78631L4.25343 10.3518L4.25994 10.3582L4.8194 9.78631ZM2.56454 7.52952L1.9987 6.96399L1.43356 7.52944L1.99861 8.09497L2.56454 7.52952ZM6.49506 3.59684L7.06192 3.03234L6.49608 2.46414L5.92922 3.03131L6.49506 3.59684ZM8.74992 5.86111L8.183 6.42568L8.19121 6.43369L8.74992 5.86111ZM9.23451 5.92513L9.62546 6.6231L9.63347 6.61861L9.64138 6.61394L9.23451 5.92513ZM12.4028 4.61423L12.6015 5.3892L12.6104 5.3868L12.4028 4.61423ZM12.7049 4.23288L13.5045 4.2588L13.5049 4.24584V4.23288H12.7049ZM12.7049 1.03226V0.232257H11.9049V1.03226H12.7049ZM18.2628 1.03226H19.0628V0.232257H18.2628V1.03226ZM18.2628 4.22607L19.0628 4.23869V4.22607H18.2628ZM18.565 4.60742L18.7648 3.83278L18.7501 3.82898L18.7352 3.82574L18.565 4.60742ZM21.7332 5.91832L22.1393 5.22906L22.1392 5.22895L21.7332 5.91832ZM22.2178 5.85498L21.651 5.29047L21.6483 5.29319L22.2178 5.85498ZM24.4727 3.59071L25.0385 3.02518L24.4717 2.45801L23.9058 3.02621L24.4727 3.59071ZM28.4032 7.52339L28.9693 8.08867L29.534 7.52314L28.969 6.95786L28.4032 7.52339ZM26.1483 9.78154L25.5822 9.21622L25.5755 9.22314L26.1483 9.78154ZM26.0844 10.2664L25.3862 10.657L25.3908 10.6652L25.3955 10.6732L26.0844 10.2664ZM27.3945 13.433L26.6196 13.6318L26.6223 13.6418L27.3945 13.433ZM27.7757 13.7346L27.7501 14.5342L27.7629 14.5346H27.7757V13.7346ZM30.9677 13.7346H31.7677V12.9346H30.9677V13.7346ZM30.9677 19.2962V20.0962H31.7677V19.2962H30.9677ZM27.7757 19.2962L27.7627 20.0962H27.7757V19.2962ZM27.3945 19.5979L28.1692 19.7975L28.1729 19.7835L28.176 19.7694L27.3945 19.5979ZM26.0844 22.7679L26.7738 23.1738L26.7739 23.1735L26.0844 22.7679ZM26.1483 23.2528L26.7146 22.6876L26.7088 22.6819L26.1483 23.2528ZM28.4032 25.5123L28.9688 26.078L29.5341 25.5129L28.9695 24.9472L28.4032 25.5123ZM24.4727 29.4415L23.9058 30.006L24.4714 30.574L25.0383 30.0073L24.4727 29.4415ZM22.2178 27.1773L22.7848 26.6127L22.7757 26.6038L22.2178 27.1773ZM21.7332 27.1139L21.3414 26.4165L21.3339 26.4207L21.3266 26.425L21.7332 27.1139ZM18.565 28.4248L18.366 27.6499L18.3573 27.6523L18.565 28.4248ZM18.2628 28.8062L17.4632 28.7803L17.4628 28.7932V28.8062H18.2628ZM18.2628 32V32.8H19.0628V32H18.2628ZM12.7049 32H11.9049V32.8H12.7049V32ZM12.7049 28.8062L11.9049 28.7936V28.8062H12.7049ZM12.4028 28.4248L12.2029 29.1995L12.2177 29.2033L12.2325 29.2065L12.4028 28.4248ZM9.23451 27.1139L8.8284 27.8032L8.82859 27.8033L9.23451 27.1139ZM8.74992 27.1773L9.31679 27.7418L9.31947 27.7391L8.74992 27.1773ZM6.49506 29.4415L5.92946 30.0073L6.49633 30.574L7.06192 30.006L6.49506 29.4415ZM2.56454 25.5123L1.9987 24.9467L1.43323 25.5125L1.99894 26.078L2.56454 25.5123ZM4.8194 23.2562L5.38528 23.8217L5.39228 23.8146L4.8194 23.2562ZM4.88337 22.7713L5.58153 22.3807L5.57707 22.3727L5.57244 22.3649L4.88337 22.7713ZM3.5732 19.5979L4.34837 19.3998L4.34547 19.3891L3.5732 19.5979ZM3.19206 19.2962L3.21764 18.4967L3.20485 18.4962H3.19206V19.2962ZM0 19.2962H-0.8V20.0962H0V19.2962ZM0 14.5428H3.19206V12.9428H0V14.5428ZM3.17943 14.5427C3.45297 14.547 3.71952 14.4565 3.93379 14.2865L2.93941 13.033C3.01473 12.9733 3.10846 12.9414 3.20469 12.9429L3.17943 14.5427ZM3.93379 14.2865C4.14805 14.1165 4.29682 13.8776 4.35492 13.6105L2.79148 13.2704C2.81187 13.1767 2.86411 13.0927 2.93941 13.033L3.93379 14.2865ZM4.3479 13.6401C4.61596 12.5997 5.02831 11.602 5.57293 10.6761L4.19382 9.86489C3.57348 10.9195 3.10381 12.0559 2.7985 13.2409L4.3479 13.6401ZM5.5722 10.6773C5.70824 10.447 5.76311 10.1777 5.72807 9.91254L4.14186 10.1221C4.13002 10.0325 4.14855 9.94153 4.19455 9.86365L5.5722 10.6773ZM5.72807 9.91254C5.69303 9.64738 5.5701 9.40156 5.37885 9.21446L4.25994 10.3582C4.19524 10.2949 4.1537 10.2117 4.14186 10.1221L5.72807 9.91254ZM5.38532 9.22086L3.13046 6.96408L1.99861 8.09497L4.25347 10.3517L5.38532 9.22086ZM3.13038 8.09505L7.0609 4.16237L5.92922 3.03131L1.9987 6.96399L3.13038 8.09505ZM5.9282 4.16135L8.18306 6.42562L9.31678 5.29661L7.06192 3.03234L5.9282 4.16135ZM8.19121 6.43369C8.37779 6.61576 8.61829 6.73263 8.87682 6.76678L9.08635 5.18056C9.17021 5.19164 9.24818 5.22955 9.30863 5.28854L8.19121 6.43369ZM8.87682 6.76678C9.13535 6.80094 9.39797 6.75052 9.62546 6.6231L8.84357 5.22716C8.91732 5.18585 9.00249 5.16949 9.08635 5.18056L8.87682 6.76678ZM9.64138 6.61394C10.5655 6.0681 11.562 5.65576 12.6015 5.38915L12.204 3.83932C11.0183 4.14342 9.88165 4.61374 8.82765 5.23631L9.64138 6.61394ZM12.6104 5.3868C12.8608 5.3195 13.0828 5.17347 13.2438 4.97034L11.9898 3.97663C12.0419 3.91083 12.1139 3.86349 12.1951 3.84166L12.6104 5.3868ZM13.2438 4.97034C13.4047 4.76722 13.4961 4.51776 13.5045 4.2588L11.9054 4.20696C11.9081 4.12317 11.9376 4.04242 11.9898 3.97663L13.2438 4.97034ZM13.5049 4.23288V1.03226H11.9049V4.23288H13.5049ZM12.7049 1.83226H18.2628V0.232257H12.7049V1.83226ZM17.4628 1.03226V4.22607H19.0628V1.03226H17.4628ZM17.4629 4.21346C17.4586 4.4868 17.549 4.75327 17.7188 4.9676L18.9728 3.97389C19.0325 4.04919 19.0642 4.14275 19.0627 4.23869L17.4629 4.21346ZM17.7188 4.9676C17.8887 5.18193 18.1275 5.33091 18.3948 5.38911L18.7352 3.82574C18.8292 3.84621 18.9132 3.8986 18.9728 3.97389L17.7188 4.9676ZM18.3652 5.38207C19.4049 5.65025 20.4019 6.06279 21.3273 6.60768L22.1392 5.22895C21.085 4.60824 19.9492 4.13828 18.7648 3.83278L18.3652 5.38207ZM21.3271 6.60757C21.557 6.74301 21.8255 6.7978 22.0901 6.76323L21.8827 5.17672C21.9717 5.16509 22.0621 5.18353 22.1393 5.22906L21.3271 6.60757ZM22.0901 6.76323C22.3547 6.72865 22.6 6.60669 22.7874 6.41678L21.6483 5.29319C21.7112 5.22937 21.7937 5.18835 21.8827 5.17672L22.0901 6.76323ZM22.7847 6.41949L25.0395 4.15522L23.9058 3.02621L21.651 5.29048L22.7847 6.41949ZM23.9068 4.15624L27.8374 8.08892L28.969 6.95786L25.0385 3.02518L23.9068 4.15624ZM27.8371 6.95812L25.5822 9.21626L26.7144 10.3468L28.9693 8.08867L27.8371 6.95812ZM25.5755 9.22314C25.3935 9.40982 25.2768 9.6503 25.2427 9.90868L26.829 10.118C26.8179 10.2016 26.7802 10.2795 26.7212 10.3399L25.5755 9.22314ZM25.2427 9.90868C25.2086 10.1671 25.2589 10.4296 25.3862 10.657L26.7825 9.87578C26.8237 9.94942 26.84 10.0344 26.829 10.118L25.2427 9.90868ZM25.3955 10.6732C25.9409 11.5967 26.353 12.5928 26.6197 13.6318L28.1694 13.2341C27.8653 12.0491 27.3953 10.913 26.7732 9.85962L25.3955 10.6732ZM26.6223 13.6418C26.6898 13.8917 26.8358 14.1133 27.0389 14.274L28.0319 13.0194C28.0977 13.0715 28.1449 13.1433 28.1668 13.2242L26.6223 13.6418ZM27.0389 14.274C27.2419 14.4347 27.4912 14.526 27.7501 14.5342L27.8013 12.9351C27.8852 12.9377 27.9661 12.9673 28.0319 13.0194L27.0389 14.274ZM27.7757 14.5346H30.9677V12.9346H27.7757V14.5346ZM30.1677 13.7346V19.2962H31.7677V13.7346H30.1677ZM30.9677 18.4962H27.7757V20.0962H30.9677V18.4962ZM27.7886 18.4963C27.5154 18.4919 27.2491 18.5822 27.0348 18.7518L28.0278 20.0063C27.9525 20.0659 27.8589 20.0977 27.7627 20.0961L27.7886 18.4963ZM27.0348 18.7518C26.8206 18.9213 26.6717 19.1597 26.6131 19.4265L28.176 19.7694C28.1554 19.863 28.1031 19.9467 28.0278 20.0063L27.0348 18.7518ZM26.6198 19.3983C26.3518 20.4387 25.9394 21.4364 25.3948 22.3623L26.7739 23.1735C27.3943 22.1188 27.8639 20.9825 28.1692 19.7975L26.6198 19.3983ZM25.395 22.362C25.2594 22.5923 25.2048 22.8612 25.2398 23.126L26.826 22.9167C26.8378 23.0058 26.8194 23.0963 26.7738 23.1738L25.395 22.362ZM25.2398 23.126C25.2747 23.3908 25.3972 23.6364 25.5879 23.8236L26.7088 22.6819C26.773 22.745 26.8142 22.8276 26.826 22.9167L25.2398 23.126ZM25.5821 23.8179L27.8369 26.0774L28.9695 24.9472L26.7146 22.6877L25.5821 23.8179ZM27.8376 24.9465L23.9071 28.8758L25.0383 30.0073L28.9688 26.078L27.8376 24.9465ZM25.0395 28.877L22.7847 26.6128L21.651 27.7418L23.9058 30.006L25.0395 28.877ZM22.7757 26.6038C22.5888 26.4221 22.3482 26.3056 22.0897 26.2718L21.8824 27.8583C21.7985 27.8474 21.7205 27.8096 21.66 27.7507L22.7757 26.6038ZM22.0897 26.2718C21.8312 26.238 21.5687 26.2888 21.3414 26.4165L22.125 27.8114C22.0514 27.8528 21.9662 27.8693 21.8824 27.8583L22.0897 26.2718ZM21.3266 26.425C20.4022 26.9707 19.4055 27.383 18.366 27.65L18.764 29.1997C19.9494 28.8953 21.0859 28.4251 22.1399 27.8029L21.3266 26.425ZM18.3573 27.6523C18.1069 27.7196 17.8849 27.8656 17.724 28.0687L18.978 29.0624C18.9258 29.1282 18.8539 29.1756 18.7727 29.1974L18.3573 27.6523ZM17.724 28.0687C17.563 28.2718 17.4716 28.5213 17.4632 28.7803L19.0624 28.8321C19.0597 28.9159 19.0301 28.9966 18.978 29.0624L17.724 28.0687ZM17.4628 28.8062V32H19.0628V28.8062H17.4628ZM18.2628 31.2H12.7049V32.8H18.2628V31.2ZM13.5049 32V28.8062H11.9049V32H13.5049ZM13.5048 28.8188C13.5092 28.5454 13.4188 28.279 13.2489 28.0647L11.9949 29.0584C11.9353 28.9831 11.9035 28.8895 11.905 28.7936L13.5048 28.8188ZM13.2489 28.0647C13.0791 27.8503 12.8403 27.7013 12.573 27.6431L12.2325 29.2065C12.1385 29.186 12.0546 29.1337 11.9949 29.0584L13.2489 28.0647ZM12.6026 27.6502C11.5629 27.382 10.5658 26.9695 9.64044 26.4246L8.82859 27.8033C9.8827 28.424 11.0185 28.894 12.2029 29.1995L12.6026 27.6502ZM9.64063 26.4247C9.41077 26.2892 9.14225 26.2344 8.87767 26.269L9.08501 27.8555C8.996 27.8672 8.90568 27.8487 8.8284 27.8032L9.64063 26.4247ZM8.87767 26.269C8.61308 26.3036 8.36769 26.4256 8.18037 26.6155L9.31947 27.7391C9.25652 27.8029 9.17402 27.8439 9.08501 27.8555L8.87767 26.269ZM8.18306 26.6128L5.9282 28.877L7.06192 30.006L9.31678 27.7418L8.18306 26.6128ZM7.06065 28.8758L3.13013 24.9465L1.99894 26.078L5.92946 30.0073L7.06065 28.8758ZM3.13038 26.0778L5.38524 23.8217L4.25356 22.6906L1.9987 24.9467L3.13038 26.0778ZM5.39228 23.8146C5.57423 23.6279 5.69093 23.3874 5.72502 23.129L4.13877 22.9197C4.1498 22.8361 4.18757 22.7582 4.24651 22.6978L5.39228 23.8146ZM5.72502 23.129C5.75911 22.8707 5.70879 22.6082 5.58153 22.3807L4.18522 23.1619C4.14402 23.0883 4.12774 23.0033 4.13877 22.9197L5.72502 23.129ZM5.57244 22.3649C5.02652 21.4393 4.61437 20.4411 4.34829 19.3998L2.79811 19.796C3.10158 20.9835 3.57165 22.1221 4.19431 23.1777L5.57244 22.3649ZM4.34547 19.3891C4.2779 19.1392 4.1319 18.9176 3.92886 18.7569L2.93586 20.0115C2.87007 19.9594 2.8228 19.8876 2.80093 19.8067L4.34547 19.3891ZM3.92886 18.7569C3.72582 18.5962 3.47651 18.5049 3.21764 18.4967L3.16647 20.0958C3.08251 20.0931 3.00167 20.0635 2.93586 20.0115L3.92886 18.7569ZM3.19206 18.4962H0V20.0962H3.19206V18.4962ZM0.8 19.2962V13.7428H-0.8V19.2962H0.8Z" fill="#112235" mask="url(#path-1-inside-1_1_15276)"/>
<circle cx="15.3806" cy="16.4129" r="10.2194" fill="#F9F8F8"/>
<path d="M15.6387 27.1484C14.1935 27.1484 12.8339 26.8722 11.5597 26.3198C10.2848 25.7683 9.17562 25.0208 8.23225 24.0774C7.28888 23.1341 6.54101 22.0249 5.98864 20.7499C5.43707 19.4758 5.16129 18.1161 5.16129 16.671C5.16129 15.2258 5.43707 13.8658 5.98864 12.5908C6.54101 11.3166 7.28888 10.2079 8.23225 9.26452C9.17562 8.32115 10.2848 7.57328 11.5597 7.0209C12.8339 6.46934 14.1935 6.19355 15.6387 6.19355C17.0839 6.19355 18.4439 6.46934 19.7189 7.0209C20.993 7.57328 22.1018 8.32115 23.0452 9.26452C23.9885 10.2079 24.7364 11.3166 25.2888 12.5908C25.8403 13.8658 26.1161 15.2258 26.1161 16.671C26.1161 18.1161 25.8403 19.4758 25.2888 20.7499C24.7364 22.0249 23.9885 23.1341 23.0452 24.0774C22.1018 25.0208 20.993 25.7683 19.7189 26.3198C18.4439 26.8722 17.0839 27.1484 15.6387 27.1484ZM19.5527 12.8774H24.4903C23.7477 11.1914 22.7092 9.85663 21.3748 8.87312C20.0396 7.88961 18.4788 7.28746 16.6925 7.06667C17.3147 7.82939 17.8767 8.72258 18.3785 9.74624C18.8803 10.7699 19.2717 11.8136 19.5527 12.8774ZM12.5978 12.8774H18.6796C18.3383 11.6731 17.9221 10.5941 17.4307 9.64026C16.9385 8.68726 16.3412 7.80932 15.6387 7.00645C14.9362 7.80932 14.3389 8.68726 13.8467 9.64026C13.3553 10.5941 12.9391 11.6731 12.5978 12.8774ZM6.45591 19.6215H11.5441C11.4437 19.0996 11.3735 18.593 11.3333 18.1017C11.2932 17.6095 11.2731 17.1326 11.2731 16.671C11.2731 16.2093 11.2932 15.7324 11.3333 15.2403C11.3735 14.7489 11.4437 14.2423 11.5441 13.7204H6.45591C6.31541 14.1419 6.20501 14.6136 6.12473 15.1355C6.04444 15.6573 6.0043 16.1692 6.0043 16.671C6.0043 17.1728 6.04444 17.6846 6.12473 18.2065C6.20501 18.7283 6.31541 19.2 6.45591 19.6215ZM14.5849 26.2452C13.9627 25.5828 13.3907 24.7245 12.8688 23.6704C12.3469 22.617 11.9656 21.5484 11.7247 20.4645H6.78709C7.50967 22.1104 8.56344 23.4452 9.94838 24.4688C11.3333 25.4925 12.8788 26.0846 14.5849 26.2452ZM6.78709 12.8774H11.7247C12.0057 11.8136 12.3971 10.7699 12.8989 9.74624C13.4007 8.72258 13.9627 7.82939 14.5849 7.06667C12.7785 7.28746 11.2129 7.89442 9.88817 8.88757C8.56344 9.88152 7.52974 11.2115 6.78709 12.8774ZM15.6387 26.3355C16.4014 25.372 17.0237 24.4387 17.5054 23.5355C17.9871 22.6323 18.3785 21.6086 18.6796 20.4645H12.5978C12.9391 21.6889 13.3405 22.7527 13.8021 23.6559C14.2638 24.5591 14.876 25.4523 15.6387 26.3355ZM12.3871 19.6215H18.8903C18.9907 19.0996 19.0609 18.6027 19.1011 18.1306C19.1412 17.6593 19.1613 17.1728 19.1613 16.671C19.1613 16.1692 19.1412 15.6822 19.1011 15.2102C19.0609 14.7389 18.9907 14.2423 18.8903 13.7204H12.3871C12.2867 14.2423 12.2165 14.7389 12.1763 15.2102C12.1362 15.6822 12.1161 16.1692 12.1161 16.671C12.1161 17.1728 12.1362 17.6593 12.1763 18.1306C12.2165 18.6027 12.2867 19.0996 12.3871 19.6215ZM16.6925 26.2452C18.3986 26.0846 19.9441 25.4925 21.329 24.4688C22.714 23.4452 23.7677 22.1104 24.4903 20.4645H19.5527C19.2115 21.5685 18.7799 22.6471 18.2581 23.7005C17.7362 24.7546 17.2143 25.6029 16.6925 26.2452ZM19.7333 19.6215H24.8215C24.962 19.2 25.0724 18.7283 25.1527 18.2065C25.233 17.6846 25.2731 17.1728 25.2731 16.671C25.2731 16.1692 25.233 15.6573 25.1527 15.1355C25.0724 14.6136 24.962 14.1419 24.8215 13.7204H19.7333C19.8337 14.2423 19.9039 14.7489 19.9441 15.2403C19.9842 15.7324 20.0043 16.2093 20.0043 16.671C20.0043 17.1326 19.9842 17.6095 19.9441 18.1017C19.9039 18.593 19.8337 19.0996 19.7333 19.6215Z" fill="#1C1B1F"/>
</svg>
