<svg width="32" height="32" viewBox="0 0 32 32" fill="none" xmlns="http://www.w3.org/2000/svg">
<g clip-path="url(#clip0_1_7670)">
<path d="M2.64359 8.28868L16 0.57735L29.3564 8.28868V23.7113L16 31.4227L2.64359 23.7113V8.28868Z" stroke="#112235"/>
<path fill-rule="evenodd" clip-rule="evenodd" d="M23.1966 8.06119C20.0582 8.73817 17.9269 9.74601 16.4452 11.2539C15.657 12.0559 15.2021 12.786 14.8478 13.8173C14.7918 13.9805 14.7369 14.114 14.7258 14.114C14.6959 14.114 14.6455 14.0742 14.4438 13.8909C13.5561 13.0845 12.2184 12.6704 10.2993 12.6078C9.24639 12.5735 7.67176 12.684 7.26677 12.8207C7.16095 12.8563 7.0343 12.9951 7.00728 13.105C6.9842 13.1987 7.01001 13.3094 7.172 13.8109C7.3903 14.4868 7.55428 14.9026 7.83129 15.4827C8.27124 16.404 8.69839 17.0431 9.25565 17.6137C9.62422 17.9912 9.97083 18.2519 10.3786 18.4584C10.7879 18.6657 11.1258 18.7638 11.5548 18.7998C11.991 18.8364 12.4567 18.7915 12.8258 18.6773C13.3541 18.5137 13.7912 18.2986 14.3208 17.9412C14.614 17.7435 14.714 17.6871 14.7335 17.7087C14.7411 17.7171 14.7686 17.9017 14.7946 18.1189C14.8695 18.7445 15.0385 19.5619 15.3301 20.7093C15.4637 21.2351 15.5111 21.7149 15.4926 22.3547C15.4686 23.1806 15.3662 23.9442 15.1427 24.9622C14.9986 25.6184 14.9922 25.6934 15.0696 25.8192C15.163 25.9711 15.2808 26.0216 15.4726 25.9919C15.6518 25.9642 15.7257 25.8223 15.8631 25.2415C16.1218 24.1487 16.247 23.1317 16.2471 22.1219C16.2473 21.3309 16.2146 21.0604 16.0341 20.3557C15.8646 19.6937 15.804 19.438 15.7297 19.0715C15.5701 18.2832 15.4733 17.5311 15.5315 17.5311C15.5394 17.5311 15.7057 17.5979 15.901 17.6795C16.6862 18.0077 17.582 18.2679 18.1707 18.3386C18.4335 18.3702 19.2516 18.3835 19.5065 18.3604C19.917 18.323 20.4117 18.1737 20.8566 17.9529C21.6314 17.5684 22.2573 16.958 22.7447 16.1117C23.4527 14.8825 23.8472 13.2573 23.9788 11.0277C24.0197 10.3342 23.9986 8.94385 23.94 8.46492C23.9051 8.17989 23.8585 8.09952 23.6854 8.02581C23.5897 7.98508 23.5291 7.98947 23.1966 8.06119ZM23.2026 8.92879C23.226 9.01662 23.2331 10.5722 23.212 10.9909C23.0813 13.5882 22.4839 15.5092 21.467 16.6012C20.994 17.1092 20.4871 17.4035 19.8187 17.5581C19.5186 17.6275 19.3026 17.642 18.854 17.6228C17.9662 17.5849 17.3927 17.4464 16.3452 17.0173C16.0253 16.8862 15.6195 16.7032 15.5924 16.6777C15.5746 16.661 15.5953 16.6126 15.6913 16.4462C15.9904 15.9278 16.254 15.5627 16.5794 15.2163C17.088 14.6748 17.3537 14.4913 18.111 14.1587C19.1051 13.722 20.0357 13.1602 21.0086 12.4095C21.3445 12.1504 21.4733 12.0315 21.5017 11.9543C21.5266 11.8867 21.5232 11.7346 21.4951 11.6655C21.4348 11.5172 21.2951 11.4135 21.1555 11.4135C21.0848 11.4135 21.0509 11.4307 20.8654 11.5605C20.7498 11.6414 20.5471 11.7904 20.4149 11.8916C19.556 12.5487 18.7724 13.0079 17.6899 13.4885C17.2435 13.6867 16.9924 13.8248 16.741 14.0103C16.3503 14.2986 15.8411 14.8345 15.4991 15.3173C15.4276 15.4184 15.3613 15.5093 15.3519 15.5194C15.3222 15.5514 15.3506 15.0026 15.3904 14.7754C15.5159 14.0586 15.7373 13.4544 16.0838 12.8832C16.3386 12.4632 16.4567 12.3136 16.8944 11.8568C17.3855 11.3443 17.6841 11.0937 18.1921 10.7677C19.4281 9.97456 20.9011 9.39692 22.8202 8.95278C22.9911 8.91323 23.1441 8.88029 23.1601 8.87957C23.1772 8.8788 23.1947 8.89897 23.2026 8.92879ZM10.8595 13.3977C12.1815 13.5157 13.1192 13.8113 13.7656 14.3137C14.1327 14.5991 14.4643 15.0616 14.5296 15.3792C14.5558 15.507 14.5641 15.8716 14.5415 15.9081C14.5324 15.9229 14.4479 15.8933 14.2613 15.8099C13.3438 15.3995 11.6853 15.0246 10.9162 15.0537C10.7498 15.06 10.7442 15.0617 10.683 15.1229C10.4982 15.3077 10.5065 15.5945 10.7006 15.7355C10.7748 15.7894 10.9066 15.8142 11.5007 15.8861C12.3984 15.9946 13.3129 16.2272 13.8772 16.4903C14.13 16.6082 14.4172 16.769 14.4579 16.8153C14.4843 16.8454 14.4761 16.8556 14.3381 16.9662C13.8089 17.3902 13.1709 17.77 12.7451 17.9146C12.3521 18.048 11.7835 18.1005 11.4124 18.0375C10.5173 17.8856 9.63393 17.1114 8.86424 15.8042C8.72431 15.5665 8.45236 15.0198 8.32959 14.7295C8.11994 14.2335 7.8616 13.5352 7.88055 13.5156C7.90458 13.4908 8.95214 13.3925 9.40796 13.3722C9.66732 13.3607 10.6352 13.3776 10.8595 13.3977Z" fill="#D1F960"/>
<path d="M10.8595 13.3977C12.1815 13.5157 13.1192 13.8113 13.7656 14.3137C14.1327 14.5991 14.4643 15.0616 14.5296 15.3792C14.5558 15.507 14.5641 15.8716 14.5415 15.9081C14.5324 15.9229 14.4479 15.8933 14.2613 15.8099C13.3438 15.3995 11.6853 15.0246 10.9162 15.0537C10.7498 15.06 10.7442 15.0617 10.683 15.1229C10.4982 15.3077 10.5065 15.5945 10.7006 15.7355C10.7748 15.7894 10.9066 15.8142 11.5007 15.8861C12.3984 15.9946 13.3129 16.2272 13.8772 16.4903C14.13 16.6082 14.4172 16.769 14.4579 16.8153C14.4843 16.8454 14.4761 16.8556 14.3381 16.9662C13.8089 17.3902 13.1709 17.77 12.7451 17.9146C12.3521 18.048 11.7835 18.1005 11.4124 18.0375C10.5173 17.8856 9.63393 17.1114 8.86424 15.8042C8.72431 15.5665 8.45236 15.0198 8.32959 14.7295C8.11994 14.2335 7.8616 13.5352 7.88055 13.5156C7.90458 13.4908 8.95214 13.3925 9.40796 13.3722C9.66732 13.3607 10.6352 13.3776 10.8595 13.3977Z" fill="#D1F960"/>
<path fill-rule="evenodd" clip-rule="evenodd" d="M23.1966 8.06119C20.0582 8.73817 17.9269 9.74601 16.4452 11.2539C15.657 12.0559 15.2021 12.786 14.8478 13.8173C14.7918 13.9805 14.7369 14.114 14.7258 14.114C14.6959 14.114 14.6455 14.0742 14.4438 13.8909C13.5561 13.0845 12.2184 12.6704 10.2993 12.6078C9.24639 12.5735 7.67176 12.684 7.26677 12.8207C7.16095 12.8563 7.0343 12.9951 7.00728 13.105C6.9842 13.1987 7.01001 13.3094 7.172 13.8109C7.3903 14.4868 7.55428 14.9026 7.83129 15.4827C8.27124 16.404 8.69839 17.0431 9.25565 17.6137C9.62422 17.9912 9.97083 18.2519 10.3786 18.4584C10.7879 18.6657 11.1258 18.7638 11.5548 18.7998C11.991 18.8364 12.4567 18.7915 12.8258 18.6773C13.3541 18.5137 13.7912 18.2986 14.3208 17.9412C14.614 17.7435 14.714 17.6871 14.7335 17.7087C14.7411 17.7171 14.7686 17.9017 14.7946 18.1189C14.8695 18.7445 15.0385 19.5619 15.3301 20.7093C15.4637 21.2351 15.5111 21.7149 15.4926 22.3547C15.4686 23.1806 15.3662 23.9442 15.1427 24.9622C14.9987 25.6184 14.9922 25.6934 15.0696 25.8192C15.163 25.9711 15.2808 26.0216 15.4726 25.9919C15.6518 25.9642 15.7257 25.8223 15.8631 25.2415C16.1218 24.1487 16.247 23.1317 16.2471 22.1219C16.2473 21.3309 16.2146 21.0604 16.0341 20.3557C15.8646 19.6937 15.804 19.438 15.7297 19.0715C15.5701 18.2832 15.4733 17.5311 15.5315 17.5311C15.5394 17.5311 15.7057 17.5979 15.901 17.6795C16.6862 18.0077 17.582 18.2679 18.1707 18.3386C18.4336 18.3702 19.2516 18.3835 19.5065 18.3604C19.917 18.323 20.4117 18.1737 20.8566 17.9529C21.6314 17.5684 22.2573 16.958 22.7447 16.1117C23.4527 14.8825 23.8472 13.2573 23.9788 11.0277C24.0197 10.3342 23.9986 8.94385 23.94 8.46492C23.9051 8.17989 23.8585 8.09952 23.6854 8.02581C23.5897 7.98508 23.5291 7.98947 23.1966 8.06119ZM23.2026 8.92879C23.226 9.01662 23.2331 10.5722 23.212 10.9909C23.0813 13.5882 22.4839 15.5092 21.467 16.6012C20.994 17.1092 20.4871 17.4035 19.8187 17.5581C19.5186 17.6275 19.3026 17.642 18.854 17.6228C17.9662 17.5849 17.3927 17.4464 16.3452 17.0173C16.0253 16.8862 15.6195 16.7032 15.5924 16.6777C15.5746 16.661 15.5953 16.6126 15.6913 16.4462C15.9904 15.9278 16.254 15.5627 16.5794 15.2163C17.088 14.6748 17.3537 14.4913 18.111 14.1587C19.1051 13.722 20.0357 13.1602 21.0086 12.4095C21.3445 12.1504 21.4733 12.0315 21.5017 11.9543C21.5266 11.8867 21.5232 11.7346 21.4951 11.6655C21.4348 11.5172 21.2951 11.4135 21.1555 11.4135C21.0848 11.4135 21.0509 11.4307 20.8654 11.5605C20.7498 11.6414 20.5471 11.7904 20.4149 11.8916C19.556 12.5487 18.7724 13.0079 17.6899 13.4885C17.2435 13.6867 16.9924 13.8248 16.741 14.0103C16.3503 14.2986 15.8411 14.8345 15.4991 15.3173C15.4276 15.4184 15.3613 15.5093 15.3519 15.5194C15.3222 15.5514 15.3506 15.0026 15.3904 14.7754C15.5159 14.0586 15.7373 13.4544 16.0838 12.8832C16.3386 12.4632 16.4567 12.3136 16.8944 11.8568C17.3855 11.3443 17.6841 11.0937 18.1921 10.7677C19.4281 9.97456 20.9011 9.39692 22.8202 8.95278C22.9911 8.91323 23.1441 8.88029 23.1601 8.87957C23.1772 8.8788 23.1947 8.89897 23.2026 8.92879ZM10.8595 13.3977C12.1815 13.5157 13.1192 13.8113 13.7656 14.3137C14.1327 14.5991 14.4643 15.0616 14.5296 15.3792C14.5558 15.507 14.5641 15.8716 14.5415 15.9081C14.5324 15.9229 14.4479 15.8933 14.2613 15.8099C13.3438 15.3995 11.6853 15.0246 10.9162 15.0537C10.7498 15.06 10.7442 15.0617 10.683 15.1229C10.4982 15.3077 10.5065 15.5945 10.7006 15.7355C10.7748 15.7894 10.9066 15.8142 11.5007 15.8861C12.3984 15.9946 13.3129 16.2272 13.8772 16.4903C14.13 16.6082 14.4172 16.769 14.4579 16.8153C14.4843 16.8454 14.4761 16.8556 14.3381 16.9662C13.8089 17.3902 13.1709 17.77 12.7451 17.9146C12.3521 18.048 11.7835 18.1005 11.4124 18.0375C10.5173 17.8856 9.63393 17.1114 8.86424 15.8042C8.72431 15.5665 8.45236 15.0198 8.32959 14.7295C8.11994 14.2335 7.8616 13.5352 7.88055 13.5156C7.90458 13.4908 8.95214 13.3925 9.40796 13.3722C9.66732 13.3607 10.6352 13.3776 10.8595 13.3977Z" fill="#112235"/>
</g>
<defs>
<clipPath id="clip0_1_7670">
<rect width="32" height="32" fill="white"/>
</clipPath>
</defs>
</svg>
