<svg xmlns="http://www.w3.org/2000/svg">

  <symbol
    id="mail"
    viewBox="0 0 16 16"
    fill="currentColor"
  >
    <path
      d="M2.649 13.245c-.364 0-.676-.13-.935-.389-.26-.26-.39-.572-.39-.936V3.973c0-.364.13-.676.39-.935.259-.26.57-.39.935-.39h10.596c.364 0 .676.13.936.39.259.26.388.571.388.935v7.947c0 .364-.13.676-.389.936-.26.26-.571.389-.935.389H2.649zm5.298-4.636L2.649 5.298v6.622h10.596V5.298L7.947 8.609zm0-1.324l5.298-3.312H2.649l5.298 3.312z"
    />
  </symbol>

  <symbol
    id="linkedin"
    viewBox="0 0 16 16"
    fill="currentColor"
  >
    <path
      d="M1.99995 14.4H4.39995V5.51998H1.99995V14.4ZM3.19995 1.59998C2.39995 1.59998 1.75995 2.23998 1.75995 3.03998C1.75995 3.83998 2.39995 4.47998 3.19995 4.47998C3.99995 4.47998 4.63995 3.83998 4.63995 3.03998C4.63995 2.23998 3.99995 1.59998 3.19995 1.59998ZM8.47995 6.87998V5.51998H6.07995V14.4H8.47995V9.83998C8.47995 7.27998 11.7599 7.11998 11.7599 9.83998V14.4H14.1599V8.95997C14.1599 4.63998 9.59995 4.79998 8.47995 6.87998Z"
    />
  </symbol>

</svg>