<svg width="32" height="32" viewBox="0 0 32 32" fill="none" xmlns="http://www.w3.org/2000/svg">
<path fill-rule="evenodd" clip-rule="evenodd" d="M23.4172 0.123151L23.2525 0.252707V2.58203V4.91134L23.3971 5.04734C23.6019 5.23967 23.8969 5.22692 24.0607 5.01852C24.1865 4.8587 24.1904 4.78567 24.1904 2.57715V0.300477L24.0369 0.147036C23.8493 -0.0405452 23.6357 -0.0487987 23.4172 0.123151ZM17.8584 2.41645C17.8042 2.4766 17.7399 2.60554 17.7156 2.70289C17.6741 2.8694 17.7664 2.97501 19.267 4.47897C20.7388 5.95405 20.8789 6.0776 21.0723 6.0721C21.3281 6.06484 21.5017 5.87395 21.5017 5.59977C21.5017 5.42857 21.3137 5.21691 19.9528 3.85595C18.5073 2.41045 18.3889 2.30703 18.1804 2.30703C18.047 2.30703 17.9173 2.35105 17.8584 2.41645ZM27.362 3.98232C25.549 5.79992 25.5244 5.83518 25.8445 6.15526C26.1646 6.4754 26.1999 6.45076 28.0174 4.63773C29.5282 3.13076 29.6927 2.94656 29.6927 2.76192C29.6927 2.49536 29.5044 2.30703 29.2379 2.30703C29.0532 2.30703 28.869 2.47154 27.362 3.98232ZM16.4057 5.33572C16.3026 5.38249 15.7839 5.85813 15.2532 6.39274L14.2883 7.36478L13.3014 10.6636L12.3145 13.9625L6.22591 20.0618C0.931558 25.3654 0.127835 26.1947 0.0648706 26.4184C-0.0950736 26.9865 0.0360456 27.414 0.510626 27.8721L0.793435 28.1451L0.587159 28.4153C0.274461 28.825 0.148282 29.2132 0.151345 29.7564C0.155972 30.5874 0.590348 31.2694 1.35455 31.6456C2.07724 32.0014 2.92973 31.9124 3.58433 31.4127L3.85438 31.2066L4.1562 31.513C4.64629 32.0106 5.18402 32.1279 5.74789 31.8603C5.86713 31.8037 6.56799 31.1536 7.30544 30.4156C7.4959 30.2249 7.65943 30.061 7.7998 29.9192C7.82052 29.8983 7.84073 29.8778 7.86045 29.8578C8.59012 29.1189 8.64614 29.0223 8.64614 28.8442C8.64614 28.6799 8.60512 28.5816 8.50164 28.4978C8.25165 28.2954 8.07604 28.3428 7.67309 28.7353C7.66131 28.7468 7.64932 28.7586 7.63714 28.7707L7.24385 29.1604L5.04071 26.9574L2.83763 24.7543L7.74575 19.8459C10.4452 17.1463 12.6819 14.9375 12.7161 14.9375C12.7976 14.9375 17.0623 19.2007 17.0623 19.2821C17.0623 19.3163 15.3178 21.0896 13.1856 23.2228C11.9477 24.4613 10.8404 25.5851 10.1294 26.3212C9.61577 26.8529 9.30893 27.1824 9.30893 27.2067C9.30893 27.5519 9.67865 27.8254 9.95602 27.6854C9.98727 27.6696 10.3351 27.3366 10.8912 26.7928C11.6511 26.0497 12.7999 24.9128 14.061 23.6539L18.0314 19.6904L21.2655 18.7239C23.0443 18.1923 24.5496 17.7297 24.6107 17.6958C24.8301 17.5743 26.6242 15.7153 26.6884 15.5431C26.7819 15.2921 26.7695 15.025 26.6539 14.7937C26.5241 14.5344 17.6816 5.66429 17.3158 5.4265C17.0082 5.22654 16.7118 5.19703 16.4057 5.33572ZM25.1131 15.9219L24.411 16.6259L21.2198 13.437C20.3755 12.5933 19.753 11.9721 19.2896 11.5149C18.0944 10.3359 17.9576 10.248 17.8052 10.248C17.5543 10.248 17.4082 10.3726 17.3403 10.6446C17.3109 10.7622 17.3761 10.8775 18.4142 11.9333C18.8688 12.3956 19.5099 13.0382 20.4113 13.9403C22.4769 16.0074 23.4964 17.0692 23.4365 17.091C23.3869 17.1091 22.1223 17.4895 20.6263 17.9362L17.9064 18.7484L15.5789 16.4209L13.2515 14.0934L14.0647 11.3734C14.512 9.87749 14.8918 8.61394 14.9089 8.56561C14.9297 8.50671 15.1326 8.66659 15.5237 9.05019C16.0879 9.6035 16.2197 9.67815 16.4655 9.58386C16.6123 9.52746 16.7583 9.20989 16.7155 9.03957C16.6988 8.97295 16.484 8.71648 16.2074 8.42754C16.1493 8.36692 16.0886 8.30487 16.0263 8.24285L15.3739 7.59269L16.0768 6.88776L16.7797 6.18283L21.2975 10.7003L25.8152 15.2177L25.1131 15.9219ZM26.9813 7.93903C26.7659 8.10841 26.7567 8.41917 26.9612 8.61138C27.1044 8.74588 27.1306 8.74731 29.4026 8.74731H31.6993L31.8527 8.59381C31.9371 8.5094 32.0062 8.36746 32.0062 8.27836C32.0062 8.18926 31.9371 8.04732 31.8527 7.96291L31.6993 7.80941H29.4226C27.2141 7.80941 27.1411 7.81329 26.9813 7.93903ZM26.0662 10.6231C25.992 10.6973 25.9411 10.8315 25.9411 10.953C25.9411 11.1375 26.099 11.3153 27.5307 12.743C29.0246 14.2327 29.1311 14.3255 29.2971 14.2841C29.5681 14.2164 29.6927 14.07 29.6927 13.8193C29.6927 13.6109 29.5893 13.4925 28.1438 12.047C26.7601 10.6633 26.5733 10.4981 26.3931 10.4981C26.2746 10.4981 26.1396 10.5497 26.0662 10.6231ZM11.81 17.6185C11.2465 17.8034 10.7179 18.2738 10.4788 18.8032C10.381 19.0196 10.3459 19.2257 10.3437 19.5969C10.341 20.0408 10.3642 20.1461 10.5465 20.5165C10.7703 20.9715 11.0901 21.289 11.5551 21.5181C11.7879 21.6328 11.9464 21.6591 12.404 21.6591C12.9265 21.6591 12.9951 21.6438 13.3628 21.4444C13.9539 21.1239 14.2945 20.661 14.4328 19.9898C14.6094 19.1327 14.1667 18.2207 13.3609 17.7816C13.0809 17.629 12.9466 17.5983 12.4978 17.5841C12.2055 17.5748 11.896 17.5903 11.81 17.6185ZM12.9365 18.6174C13.0563 18.6812 13.2356 18.8479 13.3349 18.9879C13.8419 19.703 13.2883 20.7525 12.404 20.7525C11.8577 20.7525 11.338 20.301 11.2659 19.7638C11.2045 19.3059 11.4966 18.7655 11.9007 18.5895C12.1802 18.4678 12.6804 18.4812 12.9365 18.6174ZM4.40087 27.6318L6.589 29.8216L5.95773 30.4455C5.51122 30.8869 5.28263 31.0695 5.17652 31.0695C4.96005 31.0695 0.930307 27.0412 0.930307 26.8249C0.930307 26.7195 1.1102 26.492 1.53601 26.0585C1.86915 25.7195 2.15771 25.442 2.17728 25.442C2.19679 25.442 3.19741 26.4275 4.40087 27.6318ZM2.32066 29.6774C2.7596 30.1153 3.11875 30.506 3.11875 30.5455C3.11875 30.6496 2.85445 30.8069 2.53669 30.8919C1.71352 31.112 0.887726 30.2862 1.10788 29.4631C1.1923 29.1473 1.34999 28.881 1.45247 28.881C1.49105 28.881 1.88172 29.2394 2.32066 29.6774Z" fill="#D1F960"/>
<path d="M17.3403 10.6446C17.4082 10.3726 17.5543 10.248 17.8052 10.248C17.9576 10.248 18.0944 10.3359 19.2896 11.5149L16.2074 8.42754C16.484 8.71648 16.6988 8.97295 16.7155 9.03957C16.7583 9.20989 16.6123 9.52746 16.4655 9.58386C16.2197 9.67815 16.0879 9.6035 15.5237 9.05019C15.1326 8.66659 14.9297 8.50671 14.9089 8.56561L18.4142 11.9333C17.3761 10.8775 17.3109 10.7622 17.3403 10.6446Z" fill="#D1F960"/>
<path d="M8.50164 28.4978C8.60512 28.5816 8.64614 28.6799 8.64614 28.8442C8.64614 29.0223 8.59012 29.1189 7.86045 29.8578L10.8912 26.7928C10.3351 27.3366 9.98727 27.6696 9.95602 27.6854C9.67865 27.8254 9.30893 27.5519 9.30893 27.2067C9.30893 27.1824 9.61577 26.8529 10.1294 26.3212L7.67309 28.7353C8.07604 28.3428 8.25165 28.2954 8.50164 28.4978Z" fill="#D1F960"/>
<path d="M24.411 16.6259L25.1131 15.9219L25.8152 15.2177L21.2975 10.7003L16.7797 6.18283L16.0768 6.88776L15.3739 7.59269L16.0263 8.24285C16.0886 8.30487 16.1493 8.36692 16.2074 8.42754L19.2896 11.5149C19.753 11.9721 20.3755 12.5933 21.2198 13.437L24.411 16.6259Z" fill="#D1F960"/>
<path d="M12.9365 18.6174C13.0563 18.6812 13.2356 18.8479 13.3349 18.9879C13.8419 19.703 13.2883 20.7525 12.404 20.7525C11.8577 20.7525 11.338 20.301 11.2659 19.7638C11.2045 19.3059 11.4966 18.7655 11.9007 18.5895C12.1802 18.4678 12.6804 18.4812 12.9365 18.6174Z" fill="#D1F960"/>
<path d="M4.40087 27.6318L6.589 29.8216L5.95773 30.4455C5.51122 30.8869 5.28263 31.0695 5.17652 31.0695C4.96005 31.0695 0.930307 27.0412 0.930307 26.8249C0.930307 26.7195 1.1102 26.492 1.53601 26.0585C1.86915 25.7195 2.15771 25.442 2.17728 25.442C2.19679 25.442 3.19741 26.4275 4.40087 27.6318Z" fill="#D1F960"/>
<path fill-rule="evenodd" clip-rule="evenodd" d="M23.4172 0.123151L23.2525 0.252707V2.58203V4.91134L23.3971 5.04734C23.6019 5.23967 23.8969 5.22692 24.0607 5.01852C24.1865 4.8587 24.1904 4.78567 24.1904 2.57715V0.300477L24.0369 0.147036C23.8493 -0.0405452 23.6357 -0.0487987 23.4172 0.123151ZM17.8584 2.41645C17.8042 2.4766 17.7399 2.60554 17.7156 2.70289C17.6741 2.8694 17.7664 2.97501 19.267 4.47897C20.7388 5.95405 20.8789 6.0776 21.0723 6.0721C21.3281 6.06484 21.5017 5.87395 21.5017 5.59977C21.5017 5.42857 21.3137 5.21691 19.9528 3.85595C18.5073 2.41045 18.3889 2.30703 18.1804 2.30703C18.047 2.30703 17.9173 2.35105 17.8584 2.41645ZM27.362 3.98232C25.549 5.79992 25.5244 5.83518 25.8445 6.15526C26.1646 6.4754 26.1999 6.45076 28.0174 4.63773C29.5282 3.13076 29.6927 2.94656 29.6927 2.76192C29.6927 2.49536 29.5044 2.30703 29.2379 2.30703C29.0532 2.30703 28.869 2.47154 27.362 3.98232ZM16.4057 5.33572C16.3026 5.38249 15.7839 5.85813 15.2532 6.39274L14.2883 7.36478L13.3014 10.6636L12.3145 13.9625L6.22591 20.0618C0.931558 25.3654 0.127835 26.1947 0.0648706 26.4184C-0.0950736 26.9865 0.0360456 27.414 0.510626 27.8721L0.793435 28.1451L0.587159 28.4153C0.274461 28.825 0.148282 29.2132 0.151345 29.7564C0.155972 30.5874 0.590348 31.2694 1.35455 31.6456C2.07724 32.0014 2.92973 31.9124 3.58433 31.4127L3.85438 31.2066L4.1562 31.513C4.64629 32.0106 5.18402 32.1279 5.74789 31.8603C5.86713 31.8037 6.56799 31.1536 7.30544 30.4156C7.4959 30.2249 7.65943 30.061 7.7998 29.9192C7.82052 29.8983 7.84073 29.8778 7.86045 29.8578C8.59012 29.1189 8.64614 29.0223 8.64614 28.8442C8.64614 28.6799 8.60512 28.5816 8.50164 28.4978C8.25165 28.2954 8.07604 28.3428 7.67309 28.7353C7.66131 28.7468 7.64932 28.7586 7.63714 28.7707L7.24385 29.1604L5.04071 26.9574L2.83763 24.7543L7.74575 19.8459C10.4452 17.1463 12.6819 14.9375 12.7161 14.9375C12.7976 14.9375 17.0623 19.2007 17.0623 19.2821C17.0623 19.3163 15.3178 21.0896 13.1856 23.2228C11.9477 24.4613 10.8404 25.5851 10.1294 26.3212C9.61577 26.8529 9.30893 27.1824 9.30893 27.2067C9.30893 27.5519 9.67865 27.8254 9.95602 27.6854C9.98727 27.6696 10.3351 27.3366 10.8912 26.7928C11.6511 26.0497 12.7999 24.9128 14.061 23.6539L18.0314 19.6904L21.2655 18.7239C23.0443 18.1923 24.5496 17.7297 24.6107 17.6958C24.8301 17.5743 26.6242 15.7153 26.6884 15.5431C26.7819 15.2921 26.7695 15.025 26.6539 14.7937C26.5241 14.5344 17.6816 5.66429 17.3158 5.4265C17.0082 5.22654 16.7118 5.19703 16.4057 5.33572ZM25.1131 15.9219L24.411 16.6259L21.2198 13.437C20.3755 12.5933 19.753 11.9721 19.2896 11.5149C18.0944 10.3359 17.9576 10.248 17.8052 10.248C17.5543 10.248 17.4082 10.3726 17.3403 10.6446C17.3109 10.7622 17.3761 10.8775 18.4142 11.9333C18.8688 12.3956 19.5099 13.0382 20.4113 13.9403C22.4769 16.0074 23.4964 17.0692 23.4365 17.091C23.3869 17.1091 22.1223 17.4895 20.6263 17.9362L17.9064 18.7484L15.5789 16.4209L13.2515 14.0934L14.0647 11.3734C14.512 9.87749 14.8918 8.61394 14.9089 8.56561C14.9297 8.50671 15.1326 8.66659 15.5237 9.05019C16.0879 9.6035 16.2197 9.67815 16.4655 9.58386C16.6123 9.52746 16.7583 9.20989 16.7155 9.03957C16.6988 8.97295 16.484 8.71648 16.2074 8.42754C16.1493 8.36692 16.0886 8.30487 16.0263 8.24285L15.3739 7.59269L16.0768 6.88776L16.7797 6.18283L21.2975 10.7003L25.8152 15.2177L25.1131 15.9219ZM26.9813 7.93903C26.7659 8.10841 26.7567 8.41917 26.9612 8.61138C27.1044 8.74588 27.1306 8.74731 29.4026 8.74731H31.6993L31.8527 8.59381C31.9371 8.5094 32.0062 8.36746 32.0062 8.27836C32.0062 8.18926 31.9371 8.04732 31.8527 7.96291L31.6993 7.80941H29.4226C27.2141 7.80941 27.1411 7.81329 26.9813 7.93903ZM26.0662 10.6231C25.992 10.6973 25.9411 10.8315 25.9411 10.953C25.9411 11.1375 26.099 11.3153 27.5307 12.743C29.0246 14.2327 29.1311 14.3255 29.2971 14.2841C29.5681 14.2164 29.6927 14.07 29.6927 13.8193C29.6927 13.6109 29.5893 13.4925 28.1438 12.047C26.7601 10.6633 26.5733 10.4981 26.3931 10.4981C26.2746 10.4981 26.1396 10.5497 26.0662 10.6231ZM11.81 17.6185C11.2465 17.8034 10.7179 18.2738 10.4788 18.8032C10.381 19.0196 10.3459 19.2257 10.3437 19.5969C10.341 20.0408 10.3642 20.1461 10.5465 20.5165C10.7703 20.9715 11.0901 21.289 11.5551 21.5181C11.7879 21.6328 11.9464 21.6591 12.404 21.6591C12.9265 21.6591 12.9951 21.6438 13.3628 21.4444C13.9539 21.1239 14.2945 20.661 14.4328 19.9898C14.6094 19.1327 14.1667 18.2207 13.3609 17.7816C13.0809 17.629 12.9466 17.5983 12.4978 17.5841C12.2055 17.5748 11.896 17.5903 11.81 17.6185ZM12.9365 18.6174C13.0563 18.6812 13.2356 18.8479 13.3349 18.9879C13.8419 19.703 13.2883 20.7525 12.404 20.7525C11.8577 20.7525 11.338 20.301 11.2659 19.7638C11.2045 19.3059 11.4966 18.7655 11.9007 18.5895C12.1802 18.4678 12.6804 18.4812 12.9365 18.6174ZM4.40087 27.6318L6.589 29.8216L5.95773 30.4455C5.51122 30.8869 5.28263 31.0695 5.17652 31.0695C4.96005 31.0695 0.930307 27.0412 0.930307 26.8249C0.930307 26.7195 1.1102 26.492 1.53601 26.0585C1.86915 25.7195 2.15771 25.442 2.17728 25.442C2.19679 25.442 3.19741 26.4275 4.40087 27.6318ZM2.32066 29.6774C2.7596 30.1153 3.11875 30.506 3.11875 30.5455C3.11875 30.6496 2.85445 30.8069 2.53669 30.8919C1.71352 31.112 0.887726 30.2862 1.10788 29.4631C1.1923 29.1473 1.34999 28.881 1.45247 28.881C1.49105 28.881 1.88172 29.2394 2.32066 29.6774Z" fill="#112235"/>
<path d="M17.3403 10.6446C17.4082 10.3726 17.5543 10.248 17.8052 10.248C17.9576 10.248 18.0944 10.3359 19.2896 11.5149L16.2074 8.42754C16.484 8.71648 16.6988 8.97295 16.7155 9.03957C16.7583 9.20989 16.6123 9.52746 16.4655 9.58386C16.2197 9.67815 16.0879 9.6035 15.5237 9.05019C15.1326 8.66659 14.9297 8.50671 14.9089 8.56561L18.4142 11.9333C17.3761 10.8775 17.3109 10.7622 17.3403 10.6446Z" fill="#112235"/>
<path d="M8.50164 28.4978C8.60512 28.5816 8.64614 28.6799 8.64614 28.8442C8.64614 29.0223 8.59012 29.1189 7.86045 29.8578L10.8912 26.7928C10.3351 27.3366 9.98727 27.6696 9.95602 27.6854C9.67865 27.8254 9.30893 27.5519 9.30893 27.2067C9.30893 27.1824 9.61577 26.8529 10.1294 26.3212L7.67309 28.7353C8.07604 28.3428 8.25165 28.2954 8.50164 28.4978Z" fill="#112235"/>
</svg>
