<svg width="32" height="32" viewBox="0 0 32 32" fill="none" xmlns="http://www.w3.org/2000/svg">
<path fill-rule="evenodd" clip-rule="evenodd" d="M8.07245 2.02856C7.5341 2.17007 7.06115 2.55845 6.81855 3.05831C6.69815 3.30635 6.67327 3.45738 6.65348 4.06132L6.63018 4.77231L5.18763 4.79135L3.74513 4.81039L3.30412 5.02852C2.77295 5.29122 2.44183 5.6296 2.1848 6.17233L2 6.56246V16.4647V26.367L2.21808 26.8083C2.48072 27.3398 2.81879 27.6709 3.36163 27.9281L3.75167 28.113L10.6577 28.1287L17.5636 28.1445L17.7081 28C17.8989 27.8092 17.8994 27.5412 17.7092 27.3511L17.566 27.2077H10.8407C5.73123 27.2077 4.0578 27.1907 3.87522 27.1367C3.55449 27.0419 3.07079 26.5581 2.97603 26.2373C2.92196 26.0542 2.90503 24.2497 2.90503 18.6596V11.3223H15.9841H29.0633V15.3839V19.4455L29.2066 19.5888C29.3967 19.7791 29.6646 19.7785 29.8554 19.5876L30 19.443L29.9841 13.0027L29.9683 6.56246L29.7835 6.17233C29.5265 5.6296 29.1953 5.29122 28.6642 5.02852L28.2232 4.81039L26.7817 4.79135L25.3402 4.77231L25.316 4.06132C25.293 3.38741 25.2815 3.33105 25.0942 2.98093C24.8802 2.5807 24.6327 2.34347 24.2188 2.14186C23.8289 1.95194 23.0747 1.95819 22.6697 2.15465C22.2975 2.33523 21.9469 2.68588 21.7661 3.05831C21.6455 3.3067 21.6209 3.45726 21.6009 4.06576L21.5775 4.78119H19.7221H17.8667L17.8423 4.06576C17.8193 3.38689 17.8079 3.33146 17.6204 2.98093C17.4064 2.5807 17.1589 2.34347 16.745 2.14186C16.3551 1.95194 15.6009 1.95819 15.1959 2.15465C14.8237 2.33523 14.4731 2.68588 14.2923 3.05831C14.1718 3.3067 14.1471 3.45726 14.1271 4.06576L14.1037 4.78119H12.2483H10.3929L10.3685 4.06576C10.3455 3.38689 10.3341 3.33146 10.1467 2.98093C9.82172 2.37331 9.31339 2.0455 8.63374 2.00532C8.42138 1.99276 8.16879 2.00321 8.07245 2.02856ZM9.02203 3.06836C9.10593 3.13102 9.22878 3.2549 9.295 3.34361C9.41031 3.49808 9.41539 3.57856 9.41539 5.24841C9.41539 6.91825 9.41031 6.99873 9.295 7.1532C9.06623 7.45964 8.87962 7.5553 8.51037 7.5553C8.14117 7.5553 7.95462 7.45976 7.72573 7.15332C7.61217 7.00136 7.60434 6.9019 7.58747 5.40487C7.57766 4.53187 7.58531 3.73292 7.6044 3.62943C7.64749 3.39629 7.89191 3.09838 8.12792 2.99121C8.36428 2.88398 8.82876 2.92405 9.02203 3.06836ZM16.4958 3.06836C16.5797 3.13102 16.7026 3.2549 16.7688 3.34361C16.8841 3.49808 16.8892 3.57856 16.8892 5.24841C16.8892 6.91825 16.8841 6.99873 16.7688 7.1532C16.54 7.45964 16.3534 7.5553 15.9841 7.5553C15.615 7.5553 15.4284 7.45976 15.1995 7.15332C15.086 7.00136 15.0781 6.9019 15.0613 5.40487C15.0514 4.53187 15.0591 3.73292 15.0782 3.62943C15.1213 3.39629 15.3657 3.09838 15.6017 2.99121C15.8381 2.88398 16.3025 2.92405 16.4958 3.06836ZM23.9696 3.06836C24.0535 3.13102 24.1763 3.2549 24.2426 3.34361C24.3579 3.49808 24.363 3.57856 24.363 5.24841C24.363 6.91825 24.3579 6.99873 24.2426 7.1532C24.0138 7.45964 23.8272 7.5553 23.4579 7.5553C23.0887 7.5553 22.9022 7.45976 22.6733 7.15332C22.5597 7.00136 22.5519 6.9019 22.535 5.40487C22.5252 4.53187 22.5329 3.73292 22.552 3.62943C22.5951 3.39629 22.8395 3.09838 23.0755 2.99121C23.3118 2.88398 23.7763 2.92405 23.9696 3.06836ZM6.65401 6.43106C6.6752 7.00965 6.70451 7.19712 6.80745 7.41111C7.00527 7.8225 7.24321 8.07182 7.64475 8.28837C7.9823 8.47041 8.05674 8.48758 8.51037 8.48758C8.96364 8.48758 9.03861 8.47035 9.37458 8.28913C9.78523 8.06761 9.96279 7.88335 10.1883 7.44475C10.323 7.1827 10.3448 7.05958 10.3673 6.43106L10.3929 5.71563H12.2473H14.1016L14.1278 6.43106C14.149 7.00965 14.1783 7.19712 14.2812 7.41111C14.4791 7.8225 14.717 8.07182 15.1185 8.28837C15.457 8.47094 15.5293 8.48747 15.9841 8.4863C16.4059 8.48519 16.5252 8.46171 16.7786 8.33001C17.2194 8.10096 17.4022 7.92394 17.6212 7.51448C17.8078 7.16559 17.8193 7.10934 17.8423 6.43106L17.8667 5.71563H19.721H21.5754L21.6016 6.43106C21.6228 7.00965 21.6521 7.19712 21.755 7.41111C21.9528 7.8225 22.1908 8.07182 22.5923 8.28837C22.9299 8.47041 23.0043 8.48758 23.4579 8.48758C23.9112 8.48758 23.9862 8.47035 24.3221 8.28913C24.7328 8.06761 24.9104 7.88335 25.1359 7.44475C25.2706 7.1827 25.2924 7.05958 25.3149 6.43106L25.3404 5.71563H26.5966C27.4122 5.71563 27.9371 5.74056 28.0931 5.78664C28.4138 5.88143 28.8975 6.36524 28.9923 6.68604C29.041 6.85109 29.0633 7.46899 29.0633 8.65713V10.3878H15.9841H2.90503V8.65713C2.90503 7.46899 2.92727 6.85109 2.97603 6.68604C3.0639 6.38854 3.55268 5.88231 3.83925 5.79196C3.95977 5.754 4.57384 5.72509 5.3357 5.72158L6.62785 5.71563L6.65401 6.43106ZM6.25947 13.7388C6.02335 13.844 5.77934 14.1416 5.73485 14.3788C5.71511 14.4841 5.70746 14.9677 5.71792 15.4535C5.73858 16.415 5.76574 16.5006 6.1389 16.7793C6.29024 16.8923 6.37847 16.8997 7.57614 16.8997C8.77382 16.8997 8.86204 16.8923 9.01339 16.7793C9.40121 16.4897 9.41539 16.4372 9.41539 15.2936C9.41539 14.3316 9.40605 14.2385 9.295 14.0897C9.002 13.6971 8.96948 13.6889 7.64504 13.6735C6.72944 13.6629 6.39453 13.6787 6.25947 13.7388ZM11.8648 13.7388C11.6287 13.844 11.3847 14.1416 11.3402 14.3788C11.3204 14.4841 11.3128 14.9677 11.3233 15.4535C11.3439 16.415 11.3711 16.5006 11.7442 16.7793C11.8956 16.8923 11.9838 16.8997 13.1815 16.8997C14.3792 16.8997 14.4674 16.8923 14.6187 16.7793C15.0065 16.4897 15.0207 16.4372 15.0207 15.2936C15.0207 14.3316 15.0114 14.2385 14.9003 14.0897C14.6073 13.6971 14.5748 13.6889 13.2504 13.6735C12.3348 13.6629 11.9999 13.6787 11.8648 13.7388ZM17.4701 13.7388C17.234 13.844 16.99 14.1416 16.9455 14.3788C16.9258 14.4841 16.9181 14.9677 16.9286 15.4535C16.9493 16.415 16.9764 16.5006 17.3496 16.7793C17.5009 16.8923 17.5891 16.8997 18.7868 16.8997C19.9845 16.8997 20.0727 16.8923 20.2241 16.7793C20.6119 16.4897 20.6261 16.4372 20.6261 15.2936C20.6261 14.3316 20.6167 14.2385 20.5057 14.0897C20.2127 13.6971 20.1802 13.6889 18.8557 13.6735C17.9401 13.6629 17.6052 13.6787 17.4701 13.7388ZM23.0755 13.7388C22.8394 13.844 22.5954 14.1416 22.5509 14.3788C22.5311 14.4841 22.5235 14.9677 22.5339 15.4535C22.5546 16.415 22.5817 16.5006 22.9549 16.7793C23.1063 16.8923 23.1945 16.8997 24.3922 16.8997C25.5898 16.8997 25.6781 16.8923 25.8294 16.7793C26.2172 16.4897 26.2314 16.4372 26.2314 15.2936C26.2314 14.3316 26.2221 14.2385 26.111 14.0897C25.818 13.6971 25.7855 13.6889 24.4611 13.6735C23.5455 13.6629 23.2105 13.6787 23.0755 13.7388ZM8.51037 15.2936V15.9945H7.57614H6.64192V15.2936V14.5928H7.57614H8.51037V15.2936ZM14.1157 15.2936V15.9945H13.1815H12.2473V15.2936V14.5928H13.1815H14.1157V15.2936ZM19.721 15.2936V15.9945H18.7868H17.8526V15.2936V14.5928H18.7868H19.721V15.2936ZM25.3264 15.2936V15.9945H24.3922H23.4579V15.2936V14.5928H24.3922H25.3264V15.2936ZM6.25947 17.9438C6.02335 18.0489 5.77934 18.3466 5.73485 18.5838C5.71511 18.6891 5.70746 19.1727 5.71792 19.6585C5.73858 20.62 5.76574 20.7056 6.1389 20.9843C6.29024 21.0973 6.37847 21.1047 7.57614 21.1047C8.77382 21.1047 8.86204 21.0973 9.01339 20.9843C9.40121 20.6946 9.41539 20.6422 9.41539 19.4986C9.41539 18.5366 9.40605 18.4435 9.295 18.2946C9.002 17.9021 8.96948 17.8939 7.64504 17.8785C6.72944 17.8679 6.39453 17.8837 6.25947 17.9438ZM11.8648 17.9438C11.6287 18.0489 11.3847 18.3466 11.3402 18.5838C11.3204 18.6891 11.3128 19.1727 11.3233 19.6585C11.3439 20.62 11.3711 20.7056 11.7442 20.9843C11.8956 21.0973 11.9838 21.1047 13.1815 21.1047C14.3792 21.1047 14.4674 21.0973 14.6187 20.9843C15.0065 20.6946 15.0207 20.6422 15.0207 19.4986C15.0207 18.5366 15.0114 18.4435 14.9003 18.2946C14.6073 17.9021 14.5748 17.8939 13.2504 17.8785C12.3348 17.8679 11.9999 17.8837 11.8648 17.9438ZM17.4701 17.9455C17.2349 18.048 16.9901 18.3457 16.9455 18.5838C16.9258 18.6891 16.9181 19.1727 16.9286 19.6585C16.9454 20.4421 16.9612 20.5599 17.068 20.7028C17.2597 20.9593 17.469 21.0861 17.7539 21.1182C17.9826 21.144 18.0395 21.1275 18.1693 20.9976C18.3661 20.8008 18.369 20.5354 18.1764 20.3428C18.0975 20.264 17.9924 20.1994 17.9428 20.1994C17.8664 20.1994 17.8526 20.0918 17.8526 19.4986V18.7978H18.877C19.8869 18.7978 19.9036 18.7957 20.0448 18.6544C20.1352 18.5641 20.1882 18.4443 20.1882 18.3306C20.1882 18.2168 20.1352 18.0971 20.0448 18.0067C19.9024 17.8642 19.8946 17.8633 18.7748 17.8656C17.9708 17.8673 17.5973 17.8901 17.4701 17.9455ZM22.922 17.9508C20.7602 18.3147 18.9058 19.8807 18.1961 21.9418C17.7615 23.204 17.753 24.6271 18.1726 25.8611C18.864 27.8944 20.5785 29.4231 22.6697 29.8708C24.3067 30.2212 26.0917 29.8491 27.4576 28.8726C27.87 28.5776 28.5737 27.8759 28.858 27.4759C29.374 26.7501 29.8007 25.6792 29.9352 24.7728C30.1578 23.2728 29.7214 21.5537 28.8103 20.3415C28.4993 19.9278 27.7458 19.1933 27.36 18.9278C26.1114 18.0685 24.4263 17.6976 22.922 17.9508ZM8.51037 19.4986V20.1994H7.57614H6.64192V19.4986V18.7978H7.57614H8.51037V19.4986ZM14.1157 19.4986V20.1994H13.1815H12.2473V19.4986V18.7978H13.1815H14.1157V19.4986ZM25.1804 18.9607C27.0806 19.4812 28.414 20.8297 28.9223 22.7449C29.0822 23.3475 29.0733 24.5685 28.9044 25.1929C28.3993 27.0595 27.0466 28.4125 25.1804 28.9177C24.5562 29.0867 23.3355 29.0956 22.733 28.9356C20.4777 28.3368 18.9513 26.5097 18.8038 24.2326C18.71 22.7845 19.2517 21.3745 20.3073 20.3186C21.0765 19.5492 21.9512 19.085 23.02 18.8791C23.5678 18.7735 24.6456 18.8143 25.1804 18.9607ZM26.7861 21.8749C26.7379 21.8919 25.8644 22.7372 24.8448 23.7532L22.9912 25.6006L22.1298 24.7409C21.1348 23.7479 21.0153 23.6848 20.7092 23.9911C20.3922 24.3082 20.4465 24.3992 21.6953 25.6455C22.6903 26.6384 22.8112 26.7405 22.992 26.7405C23.176 26.7405 23.348 26.5843 25.2264 24.711C26.3457 23.5948 27.299 22.6106 27.3449 22.5239C27.4658 22.2953 27.4493 22.197 27.2577 22.0054C27.0938 21.8414 26.9743 21.8084 26.7861 21.8749ZM6.25947 22.1487C6.02335 22.2539 5.77934 22.5516 5.73485 22.7888C5.71511 22.8941 5.70746 23.3776 5.71792 23.8634C5.73858 24.825 5.76574 24.9106 6.1389 25.1892C6.29024 25.3022 6.37847 25.3097 7.57614 25.3097C8.77382 25.3097 8.86204 25.3022 9.01339 25.1892C9.40121 24.8996 9.41539 24.8472 9.41539 23.7036C9.41539 22.7416 9.40605 22.6484 9.295 22.4996C9.002 22.1071 8.96948 22.0989 7.64504 22.0835C6.72944 22.0729 6.39453 22.0886 6.25947 22.1487ZM11.8648 22.1487C11.6287 22.2539 11.3847 22.5516 11.3402 22.7888C11.3204 22.8941 11.3128 23.3776 11.3233 23.8634C11.3439 24.825 11.3711 24.9106 11.7442 25.1892C11.8956 25.3022 11.9838 25.3097 13.1815 25.3097C14.3792 25.3097 14.4674 25.3022 14.6187 25.1892C15.0065 24.8996 15.0207 24.8472 15.0207 23.7036C15.0207 22.7416 15.0114 22.6484 14.9003 22.4996C14.6073 22.1071 14.5748 22.0989 13.2504 22.0835C12.3348 22.0729 11.9999 22.0886 11.8648 22.1487ZM8.51037 23.7036V24.4044H7.57614H6.64192V23.7036V23.0028H7.57614H8.51037V23.7036ZM14.1157 23.7036V24.4044H13.1815H12.2473V23.7036V23.0028H13.1815H14.1157V23.7036Z" fill="#D1F960"/>
<path d="M9.02203 3.06836C9.10593 3.13102 9.22878 3.2549 9.295 3.34361C9.41031 3.49808 9.41539 3.57856 9.41539 5.24841C9.41539 6.91825 9.41031 6.99873 9.295 7.1532C9.06623 7.45964 8.87962 7.5553 8.51037 7.5553C8.14117 7.5553 7.95462 7.45976 7.72573 7.15332C7.61217 7.00136 7.60434 6.9019 7.58747 5.40487C7.57766 4.53187 7.58531 3.73292 7.6044 3.62943C7.64749 3.39629 7.89191 3.09838 8.12792 2.99121C8.36428 2.88398 8.82876 2.92405 9.02203 3.06836Z" fill="#D1F960"/>
<path d="M16.4958 3.06836C16.5797 3.13102 16.7026 3.2549 16.7688 3.34361C16.8841 3.49808 16.8892 3.57856 16.8892 5.24841C16.8892 6.91825 16.8841 6.99873 16.7688 7.1532C16.54 7.45964 16.3534 7.5553 15.9841 7.5553C15.615 7.5553 15.4284 7.45976 15.1995 7.15332C15.086 7.00136 15.0781 6.9019 15.0613 5.40487C15.0514 4.53187 15.0591 3.73292 15.0782 3.62943C15.1213 3.39629 15.3657 3.09838 15.6017 2.99121C15.8381 2.88398 16.3025 2.92405 16.4958 3.06836Z" fill="#D1F960"/>
<path d="M23.9696 3.06836C24.0535 3.13102 24.1763 3.2549 24.2426 3.34361C24.3579 3.49808 24.363 3.57856 24.363 5.24841C24.363 6.91825 24.3579 6.99873 24.2426 7.1532C24.0138 7.45964 23.8272 7.5553 23.4579 7.5553C23.0887 7.5553 22.9022 7.45976 22.6733 7.15332C22.5597 7.00136 22.5519 6.9019 22.535 5.40487C22.5252 4.53187 22.5329 3.73292 22.552 3.62943C22.5951 3.39629 22.8395 3.09838 23.0755 2.99121C23.3118 2.88398 23.7763 2.92405 23.9696 3.06836Z" fill="#D1F960"/>
<path fill-rule="evenodd" clip-rule="evenodd" d="M25.1804 18.9607C27.0806 19.4812 28.414 20.8297 28.9223 22.7449C29.0822 23.3475 29.0733 24.5685 28.9044 25.1929C28.3993 27.0595 27.0466 28.4125 25.1804 28.9177C24.5562 29.0867 23.3355 29.0956 22.733 28.9356C20.4777 28.3368 18.9513 26.5097 18.8038 24.2326C18.71 22.7845 19.2517 21.3745 20.3073 20.3186C21.0765 19.5492 21.9512 19.085 23.02 18.8791C23.5678 18.7735 24.6456 18.8143 25.1804 18.9607ZM24.8448 23.7532C25.8644 22.7372 26.7379 21.8919 26.7861 21.8749C26.9743 21.8084 27.0938 21.8414 27.2577 22.0054C27.4493 22.197 27.4658 22.2953 27.3449 22.5239C27.299 22.6106 26.3457 23.5948 25.2264 24.711C23.348 26.5843 23.176 26.7405 22.992 26.7405C22.8112 26.7405 22.6903 26.6384 21.6953 25.6455C20.4465 24.3992 20.3922 24.3082 20.7092 23.9911C21.0153 23.6848 21.1348 23.7479 22.1298 24.7409L22.9912 25.6006L24.8448 23.7532Z" fill="#D1F960"/>
<path fill-rule="evenodd" clip-rule="evenodd" d="M8.07245 2.02856C7.5341 2.17007 7.06115 2.55845 6.81855 3.05831C6.69815 3.30635 6.67327 3.45738 6.65348 4.06132L6.63018 4.77231L5.18763 4.79135L3.74513 4.81039L3.30412 5.02852C2.77295 5.29122 2.44183 5.6296 2.1848 6.17233L2 6.56246V16.4647V26.367L2.21808 26.8083C2.48072 27.3398 2.81879 27.6709 3.36163 27.9281L3.75167 28.113L10.6577 28.1287L17.5636 28.1445L17.7081 28C17.8989 27.8092 17.8994 27.5412 17.7092 27.3511L17.566 27.2077H10.8407C5.73123 27.2077 4.0578 27.1907 3.87522 27.1367C3.55449 27.0419 3.07079 26.5581 2.97603 26.2373C2.92196 26.0542 2.90503 24.2497 2.90503 18.6596V11.3223H15.9841H29.0633V15.3839V19.4455L29.2066 19.5888C29.3967 19.7791 29.6646 19.7785 29.8554 19.5876L30 19.443L29.9841 13.0027L29.9683 6.56246L29.7835 6.17233C29.5265 5.6296 29.1953 5.29122 28.6642 5.02852L28.2232 4.81039L26.7817 4.79135L25.3402 4.77231L25.316 4.06132C25.293 3.38741 25.2815 3.33105 25.0942 2.98093C24.8802 2.5807 24.6327 2.34347 24.2188 2.14186C23.8289 1.95194 23.0747 1.95819 22.6697 2.15465C22.2975 2.33523 21.9469 2.68588 21.7661 3.05831C21.6455 3.3067 21.6209 3.45726 21.6009 4.06576L21.5775 4.78119H19.7221H17.8667L17.8423 4.06576C17.8193 3.38689 17.8079 3.33146 17.6204 2.98093C17.4064 2.5807 17.1589 2.34347 16.745 2.14186C16.3551 1.95194 15.6009 1.95819 15.1959 2.15465C14.8237 2.33523 14.4731 2.68588 14.2923 3.05831C14.1718 3.3067 14.1471 3.45726 14.1271 4.06576L14.1037 4.78119H12.2483H10.3929L10.3685 4.06576C10.3455 3.38689 10.3341 3.33146 10.1467 2.98093C9.82172 2.37331 9.31339 2.0455 8.63374 2.00532C8.42138 1.99276 8.16879 2.00321 8.07245 2.02856ZM9.02203 3.06836C9.10593 3.13102 9.22878 3.2549 9.295 3.34361C9.41031 3.49808 9.41539 3.57856 9.41539 5.24841C9.41539 6.91825 9.41031 6.99873 9.295 7.1532C9.06623 7.45964 8.87962 7.5553 8.51037 7.5553C8.14117 7.5553 7.95462 7.45976 7.72573 7.15332C7.61217 7.00136 7.60434 6.9019 7.58747 5.40487C7.57766 4.53187 7.58531 3.73292 7.6044 3.62943C7.64749 3.39629 7.89191 3.09838 8.12792 2.99121C8.36428 2.88398 8.82876 2.92405 9.02203 3.06836ZM16.4958 3.06836C16.5797 3.13102 16.7026 3.2549 16.7688 3.34361C16.8841 3.49808 16.8892 3.57856 16.8892 5.24841C16.8892 6.91825 16.8841 6.99873 16.7688 7.1532C16.54 7.45964 16.3534 7.5553 15.9841 7.5553C15.615 7.5553 15.4284 7.45976 15.1995 7.15332C15.086 7.00136 15.0781 6.9019 15.0613 5.40487C15.0514 4.53187 15.0591 3.73292 15.0782 3.62943C15.1213 3.39629 15.3657 3.09838 15.6017 2.99121C15.8381 2.88398 16.3025 2.92405 16.4958 3.06836ZM23.9696 3.06836C24.0535 3.13102 24.1763 3.2549 24.2426 3.34361C24.3579 3.49808 24.363 3.57856 24.363 5.24841C24.363 6.91825 24.3579 6.99873 24.2426 7.1532C24.0138 7.45964 23.8272 7.5553 23.4579 7.5553C23.0887 7.5553 22.9022 7.45976 22.6733 7.15332C22.5597 7.00136 22.5519 6.9019 22.535 5.40487C22.5252 4.53187 22.5329 3.73292 22.552 3.62943C22.5951 3.39629 22.8395 3.09838 23.0755 2.99121C23.3118 2.88398 23.7763 2.92405 23.9696 3.06836ZM6.65401 6.43106C6.6752 7.00965 6.70451 7.19712 6.80745 7.41111C7.00527 7.8225 7.24321 8.07182 7.64475 8.28837C7.9823 8.47041 8.05674 8.48758 8.51037 8.48758C8.96364 8.48758 9.03861 8.47035 9.37458 8.28913C9.78523 8.06761 9.96279 7.88335 10.1883 7.44475C10.323 7.1827 10.3448 7.05958 10.3673 6.43106L10.3929 5.71563H12.2473H14.1016L14.1278 6.43106C14.149 7.00965 14.1783 7.19712 14.2812 7.41111C14.4791 7.8225 14.717 8.07182 15.1185 8.28837C15.457 8.47094 15.5293 8.48747 15.9841 8.4863C16.4059 8.48519 16.5252 8.46171 16.7786 8.33001C17.2194 8.10096 17.4022 7.92394 17.6212 7.51448C17.8078 7.16559 17.8193 7.10934 17.8423 6.43106L17.8667 5.71563H19.721H21.5754L21.6016 6.43106C21.6228 7.00965 21.6521 7.19712 21.755 7.41111C21.9528 7.8225 22.1908 8.07182 22.5923 8.28837C22.9299 8.47041 23.0043 8.48758 23.4579 8.48758C23.9112 8.48758 23.9862 8.47035 24.3221 8.28913C24.7328 8.06761 24.9104 7.88335 25.1359 7.44475C25.2706 7.1827 25.2924 7.05958 25.3149 6.43106L25.3404 5.71563H26.5966C27.4122 5.71563 27.9371 5.74056 28.0931 5.78664C28.4138 5.88143 28.8975 6.36524 28.9923 6.68604C29.041 6.85109 29.0633 7.46899 29.0633 8.65713V10.3878H15.9841H2.90503V8.65713C2.90503 7.46899 2.92727 6.85109 2.97603 6.68604C3.0639 6.38854 3.55268 5.88231 3.83925 5.79196C3.95977 5.754 4.57384 5.72509 5.3357 5.72158L6.62785 5.71563L6.65401 6.43106ZM6.25947 13.7388C6.02335 13.844 5.77934 14.1416 5.73485 14.3788C5.71511 14.4841 5.70746 14.9677 5.71792 15.4535C5.73858 16.415 5.76574 16.5006 6.1389 16.7793C6.29024 16.8923 6.37847 16.8997 7.57614 16.8997C8.77382 16.8997 8.86204 16.8923 9.01339 16.7793C9.40121 16.4897 9.41539 16.4372 9.41539 15.2936C9.41539 14.3316 9.40605 14.2385 9.295 14.0897C9.002 13.6971 8.96948 13.6889 7.64504 13.6735C6.72944 13.6629 6.39453 13.6787 6.25947 13.7388ZM11.8648 13.7388C11.6287 13.844 11.3847 14.1416 11.3402 14.3788C11.3204 14.4841 11.3128 14.9677 11.3233 15.4535C11.3439 16.415 11.3711 16.5006 11.7442 16.7793C11.8956 16.8923 11.9838 16.8997 13.1815 16.8997C14.3792 16.8997 14.4674 16.8923 14.6187 16.7793C15.0065 16.4897 15.0207 16.4372 15.0207 15.2936C15.0207 14.3316 15.0114 14.2385 14.9003 14.0897C14.6073 13.6971 14.5748 13.6889 13.2504 13.6735C12.3348 13.6629 11.9999 13.6787 11.8648 13.7388ZM17.4701 13.7388C17.234 13.844 16.99 14.1416 16.9455 14.3788C16.9258 14.4841 16.9181 14.9677 16.9286 15.4535C16.9493 16.415 16.9764 16.5006 17.3496 16.7793C17.5009 16.8923 17.5891 16.8997 18.7868 16.8997C19.9845 16.8997 20.0727 16.8923 20.2241 16.7793C20.6119 16.4897 20.6261 16.4372 20.6261 15.2936C20.6261 14.3316 20.6167 14.2385 20.5057 14.0897C20.2127 13.6971 20.1802 13.6889 18.8557 13.6735C17.9401 13.6629 17.6052 13.6787 17.4701 13.7388ZM23.0755 13.7388C22.8394 13.844 22.5954 14.1416 22.5509 14.3788C22.5311 14.4841 22.5235 14.9677 22.5339 15.4535C22.5546 16.415 22.5817 16.5006 22.9549 16.7793C23.1063 16.8923 23.1945 16.8997 24.3922 16.8997C25.5898 16.8997 25.6781 16.8923 25.8294 16.7793C26.2172 16.4897 26.2314 16.4372 26.2314 15.2936C26.2314 14.3316 26.2221 14.2385 26.111 14.0897C25.818 13.6971 25.7855 13.6889 24.4611 13.6735C23.5455 13.6629 23.2105 13.6787 23.0755 13.7388ZM8.51037 15.2936V15.9945H7.57614H6.64192V15.2936V14.5928H7.57614H8.51037V15.2936ZM14.1157 15.2936V15.9945H13.1815H12.2473V15.2936V14.5928H13.1815H14.1157V15.2936ZM19.721 15.2936V15.9945H18.7868H17.8526V15.2936V14.5928H18.7868H19.721V15.2936ZM25.3264 15.2936V15.9945H24.3922H23.4579V15.2936V14.5928H24.3922H25.3264V15.2936ZM6.25947 17.9438C6.02335 18.0489 5.77934 18.3466 5.73485 18.5838C5.71511 18.6891 5.70746 19.1727 5.71792 19.6585C5.73858 20.62 5.76574 20.7056 6.1389 20.9843C6.29024 21.0973 6.37847 21.1047 7.57614 21.1047C8.77382 21.1047 8.86204 21.0973 9.01339 20.9843C9.40121 20.6946 9.41539 20.6422 9.41539 19.4986C9.41539 18.5366 9.40605 18.4435 9.295 18.2946C9.002 17.9021 8.96948 17.8939 7.64504 17.8785C6.72944 17.8679 6.39453 17.8837 6.25947 17.9438ZM11.8648 17.9438C11.6287 18.0489 11.3847 18.3466 11.3402 18.5838C11.3204 18.6891 11.3128 19.1727 11.3233 19.6585C11.3439 20.62 11.3711 20.7056 11.7442 20.9843C11.8956 21.0973 11.9838 21.1047 13.1815 21.1047C14.3792 21.1047 14.4674 21.0973 14.6187 20.9843C15.0065 20.6946 15.0207 20.6422 15.0207 19.4986C15.0207 18.5366 15.0114 18.4435 14.9003 18.2946C14.6073 17.9021 14.5748 17.8939 13.2504 17.8785C12.3348 17.8679 11.9999 17.8837 11.8648 17.9438ZM17.4701 17.9455C17.2349 18.048 16.9901 18.3457 16.9455 18.5838C16.9258 18.6891 16.9181 19.1727 16.9286 19.6585C16.9454 20.4421 16.9612 20.5599 17.068 20.7028C17.2597 20.9593 17.469 21.0861 17.7539 21.1182C17.9826 21.144 18.0395 21.1275 18.1693 20.9976C18.3661 20.8008 18.369 20.5354 18.1764 20.3428C18.0975 20.264 17.9924 20.1994 17.9428 20.1994C17.8664 20.1994 17.8526 20.0918 17.8526 19.4986V18.7978H18.877C19.8869 18.7978 19.9036 18.7957 20.0448 18.6544C20.1352 18.5641 20.1882 18.4443 20.1882 18.3306C20.1882 18.2168 20.1352 18.0971 20.0448 18.0067C19.9024 17.8642 19.8946 17.8633 18.7748 17.8656C17.9708 17.8673 17.5973 17.8901 17.4701 17.9455ZM22.922 17.9508C20.7602 18.3147 18.9058 19.8807 18.1961 21.9418C17.7615 23.204 17.753 24.6271 18.1726 25.8611C18.864 27.8944 20.5785 29.4231 22.6697 29.8708C24.3067 30.2212 26.0917 29.8491 27.4576 28.8726C27.87 28.5776 28.5737 27.8759 28.858 27.4759C29.374 26.7501 29.8007 25.6792 29.9352 24.7728C30.1578 23.2728 29.7214 21.5537 28.8103 20.3415C28.4993 19.9278 27.7458 19.1933 27.36 18.9278C26.1114 18.0685 24.4263 17.6976 22.922 17.9508ZM8.51037 19.4986V20.1994H7.57614H6.64192V19.4986V18.7978H7.57614H8.51037V19.4986ZM14.1157 19.4986V20.1994H13.1815H12.2473V19.4986V18.7978H13.1815H14.1157V19.4986ZM25.1804 18.9607C27.0806 19.4812 28.414 20.8297 28.9223 22.7449C29.0822 23.3475 29.0733 24.5685 28.9044 25.1929C28.3993 27.0595 27.0466 28.4125 25.1804 28.9177C24.5562 29.0867 23.3355 29.0956 22.733 28.9356C20.4777 28.3368 18.9513 26.5097 18.8038 24.2326C18.71 22.7845 19.2517 21.3745 20.3073 20.3186C21.0765 19.5492 21.9512 19.085 23.02 18.8791C23.5678 18.7735 24.6456 18.8143 25.1804 18.9607ZM26.7861 21.8749C26.7379 21.8919 25.8644 22.7372 24.8448 23.7532L22.9912 25.6006L22.1298 24.7409C21.1348 23.7479 21.0153 23.6848 20.7092 23.9911C20.3922 24.3082 20.4465 24.3992 21.6953 25.6455C22.6903 26.6384 22.8112 26.7405 22.992 26.7405C23.176 26.7405 23.348 26.5843 25.2264 24.711C26.3457 23.5948 27.299 22.6106 27.3449 22.5239C27.4658 22.2953 27.4493 22.197 27.2577 22.0054C27.0938 21.8414 26.9743 21.8084 26.7861 21.8749ZM6.25947 22.1487C6.02335 22.2539 5.77934 22.5516 5.73485 22.7888C5.71511 22.8941 5.70746 23.3776 5.71792 23.8634C5.73858 24.825 5.76574 24.9106 6.1389 25.1892C6.29024 25.3022 6.37847 25.3097 7.57614 25.3097C8.77382 25.3097 8.86204 25.3022 9.01339 25.1892C9.40121 24.8996 9.41539 24.8472 9.41539 23.7036C9.41539 22.7416 9.40605 22.6484 9.295 22.4996C9.002 22.1071 8.96948 22.0989 7.64504 22.0835C6.72944 22.0729 6.39453 22.0886 6.25947 22.1487ZM11.8648 22.1487C11.6287 22.2539 11.3847 22.5516 11.3402 22.7888C11.3204 22.8941 11.3128 23.3776 11.3233 23.8634C11.3439 24.825 11.3711 24.9106 11.7442 25.1892C11.8956 25.3022 11.9838 25.3097 13.1815 25.3097C14.3792 25.3097 14.4674 25.3022 14.6187 25.1892C15.0065 24.8996 15.0207 24.8472 15.0207 23.7036C15.0207 22.7416 15.0114 22.6484 14.9003 22.4996C14.6073 22.1071 14.5748 22.0989 13.2504 22.0835C12.3348 22.0729 11.9999 22.0886 11.8648 22.1487ZM8.51037 23.7036V24.4044H7.57614H6.64192V23.7036V23.0028H7.57614H8.51037V23.7036ZM14.1157 23.7036V24.4044H13.1815H12.2473V23.7036V23.0028H13.1815H14.1157V23.7036Z" fill="#112235"/>
</svg>
