<svg width="32" height="32" viewBox="0 0 32 32" fill="none" xmlns="http://www.w3.org/2000/svg">
<g clip-path="url(#clip0_1_15176)">
<path d="M22.9151 24.1015C22.8613 24.2092 22.7907 24.237 21.9216 24.244L24.0705 24.2387C24.029 24.2372 23.9829 24.2295 23.9317 24.2158C23.7001 24.1535 23.6252 23.8436 23.7935 23.6444C23.8479 23.58 23.9281 23.525 23.9913 23.5053L20.5768 23.5115C22.4757 23.5263 22.8224 23.5561 22.8777 23.6152C23.0053 23.752 23.0166 23.8984 22.9151 24.1015Z" fill="#D1F960"/>
<path d="M25.1866 23.6496C25.2774 23.5421 25.3461 23.5105 26.1971 23.5013L24.0929 23.5052C24.2641 23.55 24.4025 23.7867 24.3562 23.9845C24.3173 24.1508 24.2367 24.2329 24.1002 24.2386L28.2472 24.2284L25.1919 24.2088L25.1251 24.0052C25.0721 23.8439 25.0849 23.7701 25.1866 23.6496Z" fill="#D1F960"/>
<path d="M8.27708 3.42672L8.27559 4.18352L9.64719 4.1835C10.6238 4.06525 16.2715 4.06521 17.2511 4.18339L18.7266 4.18337L18.726 3.4321L8.27708 3.42672Z" fill="#D1F960"/>
<path d="M19.4239 4.18336L20.8562 4.18334L20.1553 3.43283L19.4239 3.43245V4.18336Z" fill="#D1F960"/>
<path d="M19.188 7.11674C19.0735 7.00221 18.9875 6.90733 18.9228 6.78805L8.27056 6.73669L8.26908 7.48806L9.83146 7.49408C9.72908 7.48317 9.66908 7.47037 9.64142 7.45542C9.44605 7.34994 9.37729 7.07617 9.50488 6.91155C9.57608 6.81962 10.1683 6.80337 13.4496 6.80337L13.7625 6.80336C16.8382 6.80315 17.3895 6.80312 17.4604 7.00081C17.4759 7.04398 17.4684 7.09657 17.4594 7.16065C17.4587 7.16545 17.458 7.17031 17.4574 7.17524C17.4567 7.18023 17.456 7.18528 17.4553 7.19041C17.4281 7.39326 17.3875 7.48168 16.6143 7.52018L22.1153 7.54136L21.7472 7.53597C19.6801 7.50573 19.5564 7.48552 19.188 7.11674Z" fill="#D1F960"/>
<path d="M25.4041 7.49031L24.3849 7.46605V7.52487L26.0632 7.506L25.4041 7.49031Z" fill="#D1F960"/>
<path fill-rule="evenodd" clip-rule="evenodd" d="M21.8361 3.4337L20.1553 3.43283L20.8562 4.18334L21.8361 4.1832L22.3465 4.18331L25.0845 4.18395L28.3329 4.18469L28.6822 4.36114C29.0985 4.57151 29.2883 4.7785 29.4799 5.23127C29.6209 5.56425 29.6225 5.67116 29.624 14.5329L29.6255 23.4976H28.2472H27.4703C26.9174 23.4976 26.5058 23.498 26.1971 23.5013C25.3461 23.5105 25.2774 23.5421 25.1866 23.6496C25.0849 23.7701 25.0721 23.8439 25.1251 24.0052L25.1919 24.2088L28.2472 24.2284L31.3025 24.2478L31.3021 25.4636C31.3019 26.1322 31.2692 26.8047 31.2294 26.9581C31.1188 27.3848 30.75 27.8461 30.3325 28.0797L29.959 28.2888H16H2.04102L1.66747 28.0797C1.24997 27.8461 0.881174 27.3848 0.770562 26.9581C0.730804 26.8047 0.698102 26.1319 0.697893 25.4628L0.697473 24.2463H6.76978H12.8422L12.8663 24.9512C12.8883 25.5919 12.9098 25.6857 13.1011 25.9805C13.2241 26.1701 13.441 26.375 13.6225 26.4734C13.9241 26.6368 13.9954 26.6418 16.0038 26.6418C18.0364 26.6418 18.0799 26.6386 18.3822 26.4676C18.5516 26.3719 18.7845 26.1501 18.8998 25.9748C19.0905 25.685 19.1116 25.5923 19.1337 24.9512L19.1578 24.2463H21.0003C21.3796 24.2463 21.6811 24.2459 21.9216 24.244C22.7907 24.237 22.8613 24.2092 22.9151 24.1015C23.0166 23.8984 23.0053 23.752 22.8777 23.6152C22.8224 23.5561 22.4757 23.5263 20.5768 23.5115C19.0794 23.4999 16.6169 23.4976 12.5712 23.4976H2.37446L2.376 14.5329C2.37754 5.67116 2.37914 5.56425 2.52008 5.23127C2.71168 4.7785 2.90146 4.57151 3.31777 4.36114C3.65848 4.18904 3.71515 4.18462 5.60616 4.18395L6.65428 4.18354L7.54518 4.1832L8.27559 4.18352L8.27708 3.42672L7.54518 3.42634L5.46641 3.44917C3.50804 3.47066 3.36871 3.48136 3.06091 3.63378C2.59988 3.86204 2.15485 4.32888 1.91553 4.83525L1.71065 5.2687L1.69186 14.3832L1.67299 23.4976H0.951537C0.89831 23.4976 0.847353 23.4973 0.799806 23.497C0.473349 23.4951 0.277213 23.4939 0.16095 23.5965C-0.0140255 23.751 -0.00808346 24.1407 0.00680135 25.1169C0.00824754 25.2118 0.00977815 25.3121 0.0112354 25.4184C0.0329664 27.0039 0.0392551 27.0664 0.217785 27.4743C0.467097 28.0439 0.818496 28.4411 1.34256 28.7455L1.78053 29H16H30.2195L30.624 28.7805C31.1169 28.5131 31.5324 28.0453 31.7805 27.4784C31.9612 27.0654 31.967 27.008 31.9888 25.4184C31.9895 25.3625 31.9903 25.3083 31.9911 25.2557C31.9917 25.2141 31.9923 25.1736 31.9929 25.134L31.993 25.1282L31.9931 25.1216L31.9932 25.1184L31.9932 25.1169C32.0081 24.1407 32.014 23.751 31.839 23.5965C31.7228 23.4939 31.5266 23.4951 31.2002 23.497C31.1525 23.4973 31.1019 23.4976 31.0485 23.4976H30.327L30.3081 14.3832L30.2893 5.2687L30.0845 4.83525C29.8451 4.32888 29.4001 3.86204 28.9391 3.63378C28.619 3.4753 28.5366 3.47156 24.8708 3.45082L21.8361 3.4337ZM24.2087 6.72851L23.1971 6.7467C23.1971 6.78709 22.5518 6.80429 21.8361 6.80209C21.789 6.80195 21.7416 6.80172 21.6941 6.80141L18.9228 6.78805C18.9875 6.90733 19.0735 7.00221 19.188 7.11674C19.5564 7.48552 19.6801 7.50573 21.7472 7.53597L22.1153 7.54136L22.4647 7.54647L24.3849 7.52487V7.46605L25.4041 7.49031L26.0632 7.506L26.4231 7.51456L26.6269 7.75906L26.8306 8.00356V14.2498C26.8306 18.9331 26.8097 20.5452 26.7471 20.6924C26.6012 21.0353 26.3706 21.102 25.3317 21.102H25.1251H24.3849H23.6862H22.3226H15.9642H8.24232H7.54518L6.5844 21.1004C5.55781 21.0986 5.42959 21.0579 5.24749 20.6765C5.19187 20.56 5.16944 18.7199 5.16944 14.2672V8.02138L5.31884 7.8179C5.53705 7.52063 5.67031 7.48709 6.65428 7.48185L7.54518 7.47713V7.48528L8.26908 7.48806L8.27056 6.73669L6.5749 6.72851C5.64927 6.72851 5.5875 6.73809 5.23226 6.93693C4.93019 7.10604 4.82287 7.22125 4.66411 7.54675L4.46846 7.94801L4.48705 14.4063L4.50564 20.8646L4.71617 21.1892C4.83929 21.379 5.0559 21.5838 5.23757 21.6822L5.54844 21.8507H16.0038H26.4592L26.7672 21.6765C26.9366 21.5807 27.1694 21.3588 27.2847 21.1834L27.4944 20.8646L27.5129 14.4063L27.5315 7.94801L27.3359 7.54675C27.1771 7.22125 27.0698 7.10604 26.7677 6.93693C26.4066 6.7348 26.3623 6.72851 25.302 6.72851H24.2087ZM19.4239 3.43245V4.18336L18.7266 4.18337L18.726 3.4321L19.4239 3.43245ZM9.64719 4.1835C10.6238 4.06525 16.2715 4.06521 17.2511 4.18339L9.64719 4.1835ZM9.64142 7.45542C9.44605 7.34994 9.37729 7.07617 9.50488 6.91155C9.57608 6.81962 10.1683 6.80337 13.4496 6.80337L13.7625 6.80336C16.8382 6.80315 17.3895 6.80312 17.4604 7.00081C17.4759 7.04398 17.4684 7.09657 17.4594 7.16065L17.4574 7.17524C17.4567 7.18023 17.456 7.18528 17.4553 7.19041C17.4281 7.39326 17.3875 7.48168 16.6143 7.52018C16.0475 7.54842 15.087 7.54982 13.4496 7.54982C11.2414 7.54982 10.2244 7.53592 9.83146 7.49408C9.72908 7.48317 9.66908 7.47037 9.64142 7.45542ZM23.9317 24.2158C23.7001 24.1535 23.6252 23.8436 23.7935 23.6444C23.8479 23.58 23.9281 23.525 23.9913 23.5053C24.0074 23.5003 24.0224 23.4976 24.0356 23.4976C24.0549 23.4976 24.0741 23.5002 24.0929 23.5052C24.2641 23.55 24.4025 23.7867 24.3562 23.9845C24.3173 24.1508 24.2367 24.2329 24.1002 24.2386C24.0937 24.2389 24.0872 24.239 24.0805 24.2389C24.0772 24.2389 24.0739 24.2388 24.0705 24.2387C24.029 24.2372 23.9829 24.2295 23.9317 24.2158ZM18.3621 25.4836C18.408 25.3756 18.4456 25.053 18.4456 24.7668V24.2463H16H13.5544V24.7752C13.5544 25.3389 13.6208 25.5534 13.8595 25.7606C13.9926 25.8761 14.2161 25.8901 15.9511 25.8916C18.0602 25.8934 18.1978 25.8701 18.3621 25.4836Z" fill="#D1F960"/>
<path d="M7.54518 6.72851V5.45585V4.1832L6.65428 4.18354L5.60616 4.18395C3.71515 4.18462 3.65848 4.18904 3.31777 4.36114C2.90146 4.57151 2.71168 4.7785 2.52008 5.23127C2.37914 5.56425 2.37754 5.67116 2.376 14.5329L2.37446 23.4976H12.5712C16.6169 23.4976 19.0794 23.4999 20.5768 23.5115L23.9913 23.5053C24.0074 23.5003 24.0224 23.4976 24.0356 23.4976C24.0549 23.4976 24.0741 23.5002 24.0929 23.5052L26.1971 23.5013C26.5058 23.498 26.9174 23.4976 27.4703 23.4976H28.2472H29.6255L29.624 14.5329C29.6225 5.67116 29.6209 5.56425 29.4799 5.23127C29.2883 4.7785 29.0985 4.57151 28.6822 4.36114L28.3329 4.18469L25.0845 4.18395L22.3465 4.18331L21.8361 4.1832L23.0224 5.45585L24.2087 6.72851H25.302C26.3623 6.72851 26.4066 6.7348 26.7677 6.93693C27.0698 7.10604 27.1771 7.22125 27.3359 7.54675L27.5315 7.94801L27.5129 14.4063L27.4944 20.8646L27.2847 21.1834C27.1694 21.3588 26.9366 21.5807 26.7672 21.6765L26.4592 21.8507H16.0038H5.54844L5.23757 21.6822C5.0559 21.5838 4.83929 21.379 4.71617 21.1892L4.50564 20.8646L4.48705 14.4063L4.46846 7.94801L4.66411 7.54675C4.82287 7.22125 4.93019 7.10604 5.23226 6.93693C5.5875 6.73809 5.64927 6.72851 6.5749 6.72851H7.54518Z" fill="#D1F960"/>
<path d="M7.54518 5.45585V6.72851H6.5749L8.27056 6.73669L8.27559 4.18352L7.54518 4.1832V5.45585Z" fill="#D1F960"/>
<path d="M9.64142 4.76038C9.44605 4.6549 9.37729 4.38113 9.50488 4.21651C9.51408 4.20464 9.56347 4.19363 9.64719 4.1835L8.27559 4.18352L8.27056 6.73669L18.9228 6.78805C18.7414 6.45366 18.7279 5.92755 18.7266 4.23934L18.7266 4.18337L17.2511 4.18339C17.3353 4.19355 17.385 4.20459 17.3943 4.21651C17.5219 4.38113 17.4531 4.6549 17.2577 4.76038C17.0047 4.89708 9.89443 4.89708 9.64142 4.76038Z" fill="#D1F960"/>
<path d="M9.50488 4.21651C9.37729 4.38113 9.44605 4.6549 9.64142 4.76038C9.89443 4.89708 17.0047 4.89708 17.2577 4.76038C17.4531 4.6549 17.5219 4.38113 17.3943 4.21651C17.385 4.20459 17.3353 4.19355 17.2511 4.18339L9.64719 4.1835C9.56347 4.19363 9.51408 4.20464 9.50488 4.21651Z" fill="#D1F960"/>
<path d="M19.9685 6.72552C19.8262 6.68314 19.6454 6.56089 19.5667 6.45384C19.4317 6.2699 19.4239 6.15918 19.4239 4.45435V4.18336L18.7266 4.18337L18.7266 4.23934C18.7279 5.92755 18.7414 6.45366 18.9228 6.78805L21.6941 6.80141C20.9239 6.79636 20.1165 6.76954 19.9685 6.72552Z" fill="#D1F960"/>
<path d="M19.5667 6.45384C19.6454 6.56089 19.8262 6.68314 19.9685 6.72552C20.1165 6.76954 20.9239 6.79636 21.6941 6.80141L21.8361 6.80209C22.5518 6.80429 23.1971 6.78709 23.1971 6.7467C23.1971 6.71556 22.3481 5.7809 21.3105 4.6698L20.8562 4.18334L19.4239 4.18336V4.45435C19.4239 6.15918 19.4317 6.2699 19.5667 6.45384Z" fill="#D1F960"/>
<path d="M21.3105 4.6698C22.3481 5.7809 23.1971 6.71556 23.1971 6.7467L24.2087 6.72851L23.0224 5.45585L21.8361 4.1832L20.8562 4.18334L21.3105 4.6698Z" fill="#D1F960"/>
<path d="M22.9151 24.1015C22.8613 24.2092 22.7907 24.237 21.9216 24.244L24.0705 24.2387C24.029 24.2372 23.9829 24.2295 23.9317 24.2158C23.7001 24.1535 23.6252 23.8436 23.7935 23.6444C23.8479 23.58 23.9281 23.525 23.9913 23.5053L20.5768 23.5115C22.4757 23.5263 22.8224 23.5561 22.8777 23.6152C23.0053 23.752 23.0166 23.8984 22.9151 24.1015Z" fill="#112235"/>
<path d="M25.1866 23.6496C25.2774 23.5421 25.3461 23.5105 26.1971 23.5013L24.0929 23.5052C24.2641 23.55 24.4025 23.7867 24.3562 23.9845C24.3173 24.1508 24.2367 24.2329 24.1002 24.2386L28.2472 24.2284L25.1919 24.2088L25.1251 24.0052C25.0721 23.8439 25.0849 23.7701 25.1866 23.6496Z" fill="#112235"/>
<path d="M8.27708 3.42672L8.27559 4.18352L9.64719 4.1835C10.6238 4.06525 16.2715 4.06521 17.2511 4.18339L18.7266 4.18337L18.726 3.4321L8.27708 3.42672Z" fill="#112235"/>
<path d="M19.4239 4.18336L20.8562 4.18334L20.1553 3.43283L19.4239 3.43245V4.18336Z" fill="#112235"/>
<path d="M19.188 7.11674C19.0735 7.00221 18.9875 6.90733 18.9228 6.78805L8.27056 6.73669L8.26908 7.48806L9.83146 7.49408C9.72908 7.48317 9.66908 7.47037 9.64142 7.45542C9.44605 7.34994 9.37729 7.07617 9.50488 6.91155C9.57608 6.81962 10.1683 6.80337 13.4496 6.80337L13.7625 6.80336C16.8382 6.80315 17.3895 6.80312 17.4604 7.00081C17.4759 7.04398 17.4684 7.09657 17.4594 7.16065C17.4587 7.16545 17.458 7.17031 17.4574 7.17524C17.4567 7.18023 17.456 7.18528 17.4553 7.19041C17.4281 7.39326 17.3875 7.48168 16.6143 7.52018L22.1153 7.54136L21.7472 7.53597C19.6801 7.50573 19.5564 7.48552 19.188 7.11674Z" fill="#112235"/>
<path d="M25.4041 7.49031L24.3849 7.46605V7.52487L26.0632 7.506L25.4041 7.49031Z" fill="#112235"/>
<path fill-rule="evenodd" clip-rule="evenodd" d="M21.8361 3.4337L20.1553 3.43283L20.8562 4.18334L21.8361 4.1832L22.3465 4.18331L25.0845 4.18395L28.3329 4.18469L28.6822 4.36114C29.0985 4.57151 29.2883 4.7785 29.4799 5.23127C29.6209 5.56425 29.6225 5.67116 29.624 14.5329L29.6255 23.4976H28.2472H27.4703C26.9174 23.4976 26.5058 23.498 26.1971 23.5013C25.3461 23.5105 25.2774 23.5421 25.1866 23.6496C25.0849 23.7701 25.0721 23.8439 25.1251 24.0052L25.1919 24.2088L28.2472 24.2284L31.3025 24.2478L31.3021 25.4636C31.3019 26.1322 31.2692 26.8047 31.2294 26.9581C31.1188 27.3848 30.75 27.8461 30.3325 28.0797L29.959 28.2888H16H2.04102L1.66747 28.0797C1.24997 27.8461 0.881174 27.3848 0.770562 26.9581C0.730804 26.8047 0.698102 26.1319 0.697893 25.4628L0.697473 24.2463H6.76978H12.8422L12.8663 24.9512C12.8883 25.5919 12.9098 25.6857 13.1011 25.9805C13.2241 26.1701 13.441 26.375 13.6225 26.4734C13.9241 26.6368 13.9954 26.6418 16.0038 26.6418C18.0364 26.6418 18.0799 26.6386 18.3822 26.4676C18.5516 26.3719 18.7845 26.1501 18.8998 25.9748C19.0905 25.685 19.1116 25.5923 19.1337 24.9512L19.1578 24.2463H21.0003C21.3796 24.2463 21.6811 24.2459 21.9216 24.244C22.7907 24.237 22.8613 24.2092 22.9151 24.1015C23.0166 23.8984 23.0053 23.752 22.8777 23.6152C22.8224 23.5561 22.4757 23.5263 20.5768 23.5115C19.0794 23.4999 16.6169 23.4976 12.5712 23.4976H2.37446L2.376 14.5329C2.37754 5.67116 2.37914 5.56425 2.52008 5.23127C2.71168 4.7785 2.90146 4.57151 3.31777 4.36114C3.65848 4.18904 3.71515 4.18462 5.60616 4.18395L6.65428 4.18354L7.54518 4.1832L8.27559 4.18352L8.27708 3.42672L7.54518 3.42634L5.46641 3.44917C3.50804 3.47066 3.36871 3.48136 3.06091 3.63378C2.59988 3.86204 2.15485 4.32888 1.91553 4.83525L1.71065 5.2687L1.69186 14.3832L1.67299 23.4976H0.951537C0.89831 23.4976 0.847353 23.4973 0.799806 23.497C0.473349 23.4951 0.277213 23.4939 0.16095 23.5965C-0.0140255 23.751 -0.00808346 24.1407 0.00680135 25.1169C0.00824754 25.2118 0.00977815 25.3121 0.0112354 25.4184C0.0329664 27.0039 0.0392551 27.0664 0.217785 27.4743C0.467097 28.0439 0.818496 28.4411 1.34256 28.7455L1.78053 29H16H30.2195L30.624 28.7805C31.1169 28.5131 31.5324 28.0453 31.7805 27.4784C31.9612 27.0654 31.967 27.008 31.9888 25.4184C31.9895 25.3625 31.9903 25.3083 31.9911 25.2557C31.9917 25.2141 31.9923 25.1736 31.9929 25.134L31.993 25.1282L31.9931 25.1216L31.9932 25.1184L31.9932 25.1169C32.0081 24.1407 32.014 23.751 31.839 23.5965C31.7228 23.4939 31.5266 23.4951 31.2002 23.497C31.1525 23.4973 31.1019 23.4976 31.0485 23.4976H30.327L30.3081 14.3832L30.2893 5.2687L30.0845 4.83525C29.8451 4.32888 29.4001 3.86204 28.9391 3.63378C28.619 3.4753 28.5366 3.47156 24.8708 3.45082L21.8361 3.4337ZM24.2087 6.72851L23.1971 6.7467C23.1971 6.78709 22.5518 6.80429 21.8361 6.80209C21.789 6.80195 21.7416 6.80172 21.6941 6.80141L18.9228 6.78805C18.9875 6.90733 19.0735 7.00221 19.188 7.11674C19.5564 7.48552 19.6801 7.50573 21.7472 7.53597L22.1153 7.54136L22.4647 7.54647L24.3849 7.52487V7.46605L25.4041 7.49031L26.0632 7.506L26.4231 7.51456L26.6269 7.75906L26.8306 8.00356V14.2498C26.8306 18.9331 26.8097 20.5452 26.7471 20.6924C26.6012 21.0353 26.3706 21.102 25.3317 21.102H25.1251H24.3849H23.6862H22.3226H15.9642H8.24232H7.54518L6.5844 21.1004C5.55781 21.0986 5.42959 21.0579 5.24749 20.6765C5.19187 20.56 5.16944 18.7199 5.16944 14.2672V8.02138L5.31884 7.8179C5.53705 7.52063 5.67031 7.48709 6.65428 7.48185L7.54518 7.47713V7.48528L8.26908 7.48806L8.27056 6.73669L6.5749 6.72851C5.64927 6.72851 5.5875 6.73809 5.23226 6.93693C4.93019 7.10604 4.82287 7.22125 4.66411 7.54675L4.46846 7.94801L4.48705 14.4063L4.50564 20.8646L4.71617 21.1892C4.83929 21.379 5.0559 21.5838 5.23757 21.6822L5.54844 21.8507H16.0038H26.4592L26.7672 21.6765C26.9366 21.5807 27.1694 21.3588 27.2847 21.1834L27.4944 20.8646L27.5129 14.4063L27.5315 7.94801L27.3359 7.54675C27.1771 7.22125 27.0698 7.10604 26.7677 6.93693C26.4066 6.7348 26.3623 6.72851 25.302 6.72851H24.2087ZM19.4239 3.43245V4.18336L18.7266 4.18337L18.726 3.4321L19.4239 3.43245ZM9.64719 4.1835C10.6238 4.06525 16.2715 4.06521 17.2511 4.18339L9.64719 4.1835ZM9.64142 7.45542C9.44605 7.34994 9.37729 7.07617 9.50488 6.91155C9.57608 6.81962 10.1683 6.80337 13.4496 6.80337L13.7625 6.80336C16.8382 6.80315 17.3895 6.80312 17.4604 7.00081C17.4759 7.04398 17.4684 7.09657 17.4594 7.16065L17.4574 7.17524C17.4567 7.18023 17.456 7.18528 17.4553 7.19041C17.4281 7.39326 17.3875 7.48168 16.6143 7.52018C16.0475 7.54842 15.087 7.54982 13.4496 7.54982C11.2414 7.54982 10.2244 7.53592 9.83146 7.49408C9.72908 7.48317 9.66908 7.47037 9.64142 7.45542ZM23.9317 24.2158C23.7001 24.1535 23.6252 23.8436 23.7935 23.6444C23.8479 23.58 23.9281 23.525 23.9913 23.5053C24.0074 23.5003 24.0224 23.4976 24.0356 23.4976C24.0549 23.4976 24.0741 23.5002 24.0929 23.5052C24.2641 23.55 24.4025 23.7867 24.3562 23.9845C24.3173 24.1508 24.2367 24.2329 24.1002 24.2386C24.0937 24.2389 24.0872 24.239 24.0805 24.2389C24.0772 24.2389 24.0739 24.2388 24.0705 24.2387C24.029 24.2372 23.9829 24.2295 23.9317 24.2158ZM18.3621 25.4836C18.408 25.3756 18.4456 25.053 18.4456 24.7668V24.2463H16H13.5544V24.7752C13.5544 25.3389 13.6208 25.5534 13.8595 25.7606C13.9926 25.8761 14.2161 25.8901 15.9511 25.8916C18.0602 25.8934 18.1978 25.8701 18.3621 25.4836Z" fill="#112235"/>
<rect x="15.1071" y="9.10715" width="9.78571" height="9.78571" stroke="#112235" stroke-width="0.5"/>
<rect x="14.25" y="8.25" width="2.07143" height="2.07143" fill="white" stroke="#112235" stroke-width="0.5"/>
<rect x="23.6786" y="8.25" width="2.07143" height="2.07143" fill="white" stroke="#112235" stroke-width="0.5"/>
<rect x="23.6786" y="17.6786" width="2.07143" height="2.07143" fill="white" stroke="#112235" stroke-width="0.5"/>
<rect x="14.25" y="17.6786" width="2.07143" height="2.07143" fill="white" stroke="#112235" stroke-width="0.5"/>
<line x1="7" y1="12.5" x2="13" y2="12.5" stroke="#112235"/>
<line x1="7" y1="14.5" x2="13" y2="14.5" stroke="#112235"/>
<line x1="7" y1="16.5" x2="11" y2="16.5" stroke="#112235"/>
</g>
<defs>
<clipPath id="clip0_1_15176">
<rect width="32" height="32" fill="white"/>
</clipPath>
</defs>
</svg>
