<svg width="32" height="32" viewBox="0 0 32 32" fill="none" xmlns="http://www.w3.org/2000/svg">
<g clip-path="url(#clip0_1_15241)">
<path fill-rule="evenodd" clip-rule="evenodd" d="M21.9963 0.0334957C20.3771 0.201025 18.6554 0.903526 17.3388 1.93394L16.9213 2.26072L16.1369 2.18353C14.6629 2.03857 12.8313 2.19041 11.237 2.58983C6.03715 3.89254 1.80805 8.07683 0.461611 13.2511C0.105587 14.6192 0.00322639 15.4617 8.81446e-05 17.048C-0.00311688 18.7038 0.0797463 19.3821 0.467955 20.8769C1.82809 26.1141 5.99101 30.2428 11.2446 31.565C12.6055 31.9075 13.3992 32.0015 14.9185 32C16.4713 31.9985 17.2904 31.8982 18.6887 31.5382C21.3044 30.8649 23.7464 29.4464 25.6046 27.521C26.4187 26.6775 26.724 26.299 27.3666 25.3367C28.5811 23.5182 29.3737 21.4603 29.7106 19.2515C29.8485 18.3471 29.9037 16.6539 29.8206 15.8795C29.7556 15.2744 29.7596 15.2329 29.9064 14.9781C30.2749 14.3386 31.0387 12.7471 31.3098 12.0537C31.8432 10.6894 31.9666 10.1142 31.971 8.9687C31.9738 8.26299 31.94 7.79279 31.8567 7.37694C31.2841 4.52039 29.4907 2.17832 26.9155 0.923958C26.0068 0.481398 25.224 0.237682 24.2331 0.0889828C23.6256 -0.00222682 22.5899 -0.0279338 21.9963 0.0334957ZM24.6671 1.24807C27.7496 1.9531 30.1174 4.36034 30.7837 7.46634C30.9652 8.31267 30.9508 9.65864 30.7524 10.4043C30.085 12.9119 27.8961 16.6575 24.3726 21.3214C23.3749 22.642 22.9743 23.1501 22.9311 23.1501C22.8863 23.1501 22.4762 22.6282 21.3896 21.1882C17.9499 16.6298 15.776 12.8978 15.1078 10.4043C14.9088 9.66178 14.8956 8.31861 15.0788 7.46634C15.7721 4.24276 18.3852 1.70091 21.5289 1.19211C21.8043 1.14751 22.0747 1.1001 22.1298 1.08675C22.4091 1.01904 24.1497 1.12968 24.6671 1.24807ZM15.8787 3.2468C15.897 3.27638 15.7334 3.55034 15.5152 3.85562C14.2321 5.65063 13.6153 8.09399 13.9527 10.045C14.3405 12.2862 16.2393 15.8976 19.208 20.0403L19.869 20.9627L19.5707 21.2422C19.1891 21.5998 19.1066 21.8088 18.9316 22.8621C18.7302 24.0745 18.8023 24.0256 17.2163 24.0256C16.3102 24.0256 15.9255 24.0503 15.7677 24.1185C15.5058 24.2317 12.9788 26.3521 12.7969 26.6112C12.392 27.1884 12.4288 27.7296 12.9428 28.7546L13.316 29.4987V30.1916V30.8846L12.7362 30.7918C9.85079 30.3297 7.13767 28.9325 5.0898 26.854C3.91442 25.6612 3.24077 24.7307 2.5155 23.2987L2.08889 22.4565L3.57936 22.438C5.15443 22.4185 5.29579 22.4403 5.42465 22.7231C5.46271 22.8066 5.5608 23.2164 5.64266 23.6339C5.72452 24.0513 5.85266 24.5281 5.92744 24.6933C6.0099 24.8756 6.3278 25.2612 6.73511 25.6731C7.27275 26.2169 7.46338 26.3673 7.69054 26.4268C8.20982 26.5631 8.70166 26.3392 8.91486 25.8696C9.02883 25.6187 9.03985 25.3979 9.04119 23.3368C9.04219 21.7531 9.06583 21.0357 9.12018 20.934C9.33171 20.5388 10.3436 19.28 10.4704 19.2543C10.5481 19.2385 10.8916 19.2126 11.2335 19.1967C11.7809 19.1711 11.9133 19.1389 12.3424 18.9268C12.9319 18.6355 13.3144 18.242 13.6055 17.6276L13.8168 17.1816V15.746V14.3104L13.6055 13.8644C13.3115 13.2438 12.9329 12.857 12.3253 12.5567L11.821 12.3073L8.68977 12.2739L5.5586 12.2405L5.431 12.0828C5.25339 11.8634 5.26841 11.5684 5.46739 11.3695C5.62998 11.2068 5.64126 11.2055 6.91192 11.2055C7.72219 11.2055 8.29348 11.1757 8.46735 11.1243C8.83413 11.016 9.38726 10.4628 9.49563 10.0961C9.54912 9.91491 9.57683 9.29354 9.57683 8.27354V6.72578L9.74075 6.56192C9.84598 6.45663 9.98053 6.398 10.1169 6.398C10.4769 6.398 10.8405 6.25231 11.1415 5.98736C11.5903 5.59227 11.6733 5.36091 11.7128 4.39486L11.7469 3.56022L12.3144 3.44551C12.6266 3.38248 13.1374 3.30389 13.4496 3.2709C14.1828 3.19345 15.8356 3.17709 15.8787 3.2468ZM10.6452 4.43125C10.6452 4.94806 10.6297 5.0173 10.4812 5.16574C10.376 5.27104 10.2415 5.32966 10.1051 5.32966C9.691 5.32966 9.35134 5.4839 9.007 5.82818C8.79527 6.03997 8.64083 6.26599 8.58968 6.43913C8.5362 6.62028 8.50849 7.24166 8.50849 8.26165V9.80941L8.34456 9.97327C8.18197 10.1359 8.17069 10.1372 6.90003 10.1372C5.36369 10.1372 5.19282 10.1765 4.73364 10.6357C4.26177 11.1076 4.13136 11.6067 4.31632 12.2327C4.42469 12.5995 4.97782 13.1527 5.3446 13.261C5.54184 13.3193 6.43537 13.3422 8.50849 13.3422C10.5816 13.3422 11.4751 13.3651 11.6724 13.4234C12.0392 13.5318 12.5923 14.0849 12.7007 14.4517C12.8082 14.8158 12.8082 16.6762 12.7007 17.0403C12.5923 17.4071 12.0392 17.9602 11.6724 18.0686C11.5212 18.1132 11.1791 18.1497 10.9123 18.1497C9.97518 18.1497 9.73147 18.3077 8.83306 19.4975C7.9191 20.7078 7.97752 20.4608 7.97578 23.1223L7.97432 25.3906L7.53529 24.9585C6.88841 24.3219 6.85503 24.2589 6.6636 23.3125C6.42162 22.1164 6.22564 21.7903 5.57055 21.4937C5.29265 21.3679 5.1362 21.3576 3.48916 21.3562L1.70816 21.3548L1.63926 21.1378C1.22007 19.8171 1.07043 18.7358 1.07337 17.048C1.07624 15.4198 1.18027 14.6287 1.56928 13.2791C2.66032 9.49325 5.25786 6.37069 8.74219 4.65654C9.35127 4.35687 10.4347 3.90162 10.6285 3.86396C10.6376 3.86216 10.6452 4.11743 10.6452 4.43125ZM21.9963 4.3568C20.5562 4.66255 19.3005 5.61417 18.667 6.87996C18.258 7.6973 18.1573 8.14854 18.1641 9.13562C18.169 9.847 18.1957 10.0492 18.3453 10.5044C18.5966 11.2696 18.9477 11.8298 19.5589 12.441C20.433 13.315 21.4074 13.7693 22.5881 13.8531C25.4884 14.0589 27.9023 11.6544 27.7148 8.74641C27.669 8.03416 27.4224 7.22897 27.0619 6.61427C26.7392 6.06388 25.8611 5.20219 25.3126 4.89758C24.3283 4.35099 23.0247 4.13839 21.9963 4.3568ZM23.6366 5.40104C24.281 5.51709 25.0636 5.93387 25.5494 6.41963C26.2982 7.16841 26.635 7.99023 26.635 9.06885C26.635 10.1399 26.2978 10.9696 25.5648 11.7026C24.8319 12.4356 24.0022 12.7727 22.9311 12.7727C21.8525 12.7727 21.0306 12.4359 20.2819 11.6872C18.7037 10.1089 18.8869 7.46721 20.6682 6.11683C21.5452 5.45205 22.5605 5.2072 23.6366 5.40104ZM28.7423 18.3501C28.7017 18.7724 28.6098 19.4062 28.5382 19.7585C28.4155 20.3626 28.0939 21.5559 28.0391 21.6108C28.0253 21.6246 27.9173 21.5258 27.7991 21.3912C27.496 21.046 27.1194 20.8732 26.5868 20.835C26.339 20.8172 26.1361 20.7944 26.1361 20.7844C26.1361 20.7744 26.3912 20.4104 26.7031 19.9754C27.0149 19.5405 27.6083 18.6718 28.0218 18.045L28.7736 16.9053L28.7949 17.2437C28.8067 17.4299 28.7831 17.9277 28.7423 18.3501ZM20.8308 22.2382C21.3154 22.879 22.4224 24.2574 22.5745 24.4096C22.6669 24.502 22.8059 24.5598 22.9358 24.5598C23.1953 24.5598 23.3092 24.4409 24.4544 22.9741L25.3015 21.8891L26.0141 21.8891C26.6689 21.8889 26.7421 21.9019 26.9155 22.0488C27.0194 22.1367 27.1938 22.3753 27.3031 22.579L27.502 22.9493L27.3474 23.2705C26.3009 25.4441 24.2096 27.6976 22.0339 28.9959C19.9471 30.241 17.3511 30.9698 15.0024 30.9698H14.3844V30.1008V29.2317L13.9837 28.4325C13.5774 27.6219 13.5225 27.4123 13.6687 27.2286C13.7134 27.1723 14.2956 26.669 14.9625 26.1102L16.175 25.094L17.3329 25.0936C18.6257 25.0932 18.8642 25.0497 19.2689 24.7407C19.6622 24.4405 19.8217 24.067 19.9873 23.0574C20.11 22.3098 20.1532 22.1686 20.2989 22.0392C20.3919 21.9565 20.4902 21.8889 20.5173 21.8889C20.5445 21.8889 20.6855 22.0461 20.8308 22.2382Z" fill="#D1F960"/>
<path fill-rule="evenodd" clip-rule="evenodd" d="M24.6671 1.24807C27.7496 1.9531 30.1174 4.36034 30.7837 7.46634C30.9652 8.31267 30.9508 9.65864 30.7524 10.4043C30.085 12.9119 27.8961 16.6575 24.3726 21.3214C23.3749 22.642 22.9743 23.1501 22.9311 23.1501C22.8863 23.1501 22.4762 22.6282 21.3896 21.1882C17.9499 16.6298 15.776 12.8978 15.1078 10.4043C14.9088 9.66178 14.8956 8.31861 15.0788 7.46634C15.7721 4.24276 18.3852 1.70091 21.5289 1.19211C21.8043 1.14751 22.0747 1.1001 22.1298 1.08675C22.4091 1.01904 24.1497 1.12968 24.6671 1.24807ZM18.667 6.87996C19.3005 5.61417 20.5562 4.66255 21.9963 4.3568C23.0247 4.13839 24.3283 4.35099 25.3126 4.89758C25.8611 5.20219 26.7392 6.06388 27.0619 6.61427C27.4224 7.22897 27.669 8.03416 27.7148 8.74641C27.9023 11.6544 25.4884 14.0589 22.5881 13.8531C21.4074 13.7693 20.433 13.315 19.5589 12.441C18.9477 11.8298 18.5966 11.2696 18.3453 10.5044C18.1957 10.0492 18.169 9.847 18.1641 9.13562C18.1573 8.14854 18.258 7.6973 18.667 6.87996Z" fill="#D1F960"/>
<path fill-rule="evenodd" clip-rule="evenodd" d="M21.9963 0.0334957C20.3771 0.201025 18.6554 0.903526 17.3388 1.93394L16.9213 2.26072L16.1369 2.18353C14.6629 2.03857 12.8313 2.19041 11.237 2.58983C6.03715 3.89254 1.80805 8.07683 0.461611 13.2511C0.105587 14.6192 0.00322639 15.4617 8.81446e-05 17.048C-0.00311688 18.7038 0.0797463 19.3821 0.467955 20.8769C1.82809 26.1141 5.99101 30.2428 11.2446 31.565C12.6055 31.9075 13.3992 32.0015 14.9185 32C16.4713 31.9985 17.2904 31.8982 18.6887 31.5382C21.3044 30.8649 23.7464 29.4464 25.6046 27.521C26.4187 26.6775 26.724 26.299 27.3666 25.3367C28.5811 23.5182 29.3737 21.4603 29.7106 19.2515C29.8485 18.3471 29.9037 16.6539 29.8206 15.8795C29.7556 15.2744 29.7596 15.2329 29.9064 14.9781C30.2749 14.3386 31.0387 12.7471 31.3098 12.0537C31.8432 10.6894 31.9666 10.1142 31.971 8.9687C31.9738 8.26299 31.94 7.79279 31.8567 7.37694C31.2841 4.52039 29.4907 2.17832 26.9155 0.923958C26.0068 0.481398 25.224 0.237682 24.2331 0.0889828C23.6256 -0.00222682 22.5899 -0.0279338 21.9963 0.0334957ZM24.6671 1.24807C27.7496 1.9531 30.1174 4.36034 30.7837 7.46634C30.9652 8.31267 30.9508 9.65864 30.7524 10.4043C30.085 12.9119 27.8961 16.6575 24.3726 21.3214C23.3749 22.642 22.9743 23.1501 22.9311 23.1501C22.8863 23.1501 22.4762 22.6282 21.3896 21.1882C17.9499 16.6298 15.776 12.8978 15.1078 10.4043C14.9088 9.66178 14.8956 8.31861 15.0788 7.46634C15.7721 4.24276 18.3852 1.70091 21.5289 1.19211C21.8043 1.14751 22.0747 1.1001 22.1298 1.08675C22.4091 1.01904 24.1497 1.12968 24.6671 1.24807ZM15.8787 3.2468C15.897 3.27638 15.7334 3.55034 15.5152 3.85562C14.2321 5.65063 13.6153 8.09399 13.9527 10.045C14.3405 12.2862 16.2393 15.8976 19.208 20.0403L19.869 20.9627L19.5707 21.2422C19.1891 21.5998 19.1066 21.8088 18.9316 22.8621C18.7302 24.0745 18.8023 24.0256 17.2163 24.0256C16.3102 24.0256 15.9255 24.0503 15.7677 24.1185C15.5058 24.2317 12.9788 26.3521 12.7969 26.6112C12.392 27.1884 12.4288 27.7296 12.9428 28.7546L13.316 29.4987V30.1916V30.8846L12.7362 30.7918C9.85079 30.3297 7.13767 28.9325 5.0898 26.854C3.91442 25.6612 3.24077 24.7307 2.5155 23.2987L2.08889 22.4565L3.57936 22.438C5.15443 22.4185 5.29579 22.4403 5.42465 22.7231C5.46271 22.8066 5.5608 23.2164 5.64266 23.6339C5.72452 24.0513 5.85266 24.5281 5.92744 24.6933C6.0099 24.8756 6.3278 25.2612 6.73511 25.6731C7.27275 26.2169 7.46338 26.3673 7.69054 26.4268C8.20982 26.5631 8.70166 26.3392 8.91486 25.8696C9.02883 25.6187 9.03985 25.3979 9.04119 23.3368C9.04219 21.7531 9.06583 21.0357 9.12018 20.934C9.33171 20.5388 10.3436 19.28 10.4704 19.2543C10.5481 19.2385 10.8916 19.2126 11.2335 19.1967C11.7809 19.1711 11.9133 19.1389 12.3424 18.9268C12.9319 18.6355 13.3144 18.242 13.6055 17.6276L13.8168 17.1816V15.746V14.3104L13.6055 13.8644C13.3115 13.2438 12.9329 12.857 12.3253 12.5567L11.821 12.3073L8.68977 12.2739L5.5586 12.2405L5.431 12.0828C5.25339 11.8634 5.26841 11.5684 5.46739 11.3695C5.62998 11.2068 5.64126 11.2055 6.91192 11.2055C7.72219 11.2055 8.29348 11.1757 8.46735 11.1243C8.83413 11.016 9.38726 10.4628 9.49563 10.0961C9.54912 9.91491 9.57683 9.29354 9.57683 8.27354V6.72578L9.74075 6.56192C9.84598 6.45663 9.98053 6.398 10.1169 6.398C10.4769 6.398 10.8405 6.25231 11.1415 5.98736C11.5903 5.59227 11.6733 5.36091 11.7128 4.39486L11.7469 3.56022L12.3144 3.44551C12.6266 3.38248 13.1374 3.30389 13.4496 3.2709C14.1828 3.19345 15.8356 3.17709 15.8787 3.2468ZM10.6452 4.43125C10.6452 4.94806 10.6297 5.0173 10.4812 5.16574C10.376 5.27104 10.2415 5.32966 10.1051 5.32966C9.691 5.32966 9.35134 5.4839 9.007 5.82818C8.79527 6.03997 8.64083 6.26599 8.58968 6.43913C8.5362 6.62028 8.50849 7.24166 8.50849 8.26165V9.80941L8.34456 9.97327C8.18197 10.1359 8.17069 10.1372 6.90003 10.1372C5.36369 10.1372 5.19282 10.1765 4.73364 10.6357C4.26177 11.1076 4.13136 11.6067 4.31632 12.2327C4.42469 12.5995 4.97782 13.1527 5.3446 13.261C5.54184 13.3193 6.43537 13.3422 8.50849 13.3422C10.5816 13.3422 11.4751 13.3651 11.6724 13.4234C12.0392 13.5318 12.5923 14.0849 12.7007 14.4517C12.8082 14.8158 12.8082 16.6762 12.7007 17.0403C12.5923 17.4071 12.0392 17.9602 11.6724 18.0686C11.5212 18.1132 11.1791 18.1497 10.9123 18.1497C9.97518 18.1497 9.73147 18.3077 8.83306 19.4975C7.9191 20.7078 7.97752 20.4608 7.97578 23.1223L7.97432 25.3906L7.53529 24.9585C6.88841 24.3219 6.85503 24.2589 6.6636 23.3125C6.42162 22.1164 6.22564 21.7903 5.57055 21.4937C5.29265 21.3679 5.1362 21.3576 3.48916 21.3562L1.70816 21.3548L1.63926 21.1378C1.22007 19.8171 1.07043 18.7358 1.07337 17.048C1.07624 15.4198 1.18027 14.6287 1.56928 13.2791C2.66032 9.49325 5.25786 6.37069 8.74219 4.65654C9.35127 4.35687 10.4347 3.90162 10.6285 3.86396C10.6376 3.86216 10.6452 4.11743 10.6452 4.43125ZM21.9963 4.3568C20.5562 4.66255 19.3005 5.61417 18.667 6.87996C18.258 7.6973 18.1573 8.14854 18.1641 9.13562C18.169 9.84701 18.1957 10.0492 18.3453 10.5044C18.5966 11.2696 18.9477 11.8298 19.5589 12.441C20.433 13.315 21.4074 13.7693 22.5881 13.8531C25.4884 14.0589 27.9023 11.6544 27.7148 8.74641C27.669 8.03417 27.4224 7.22897 27.0619 6.61427C26.7392 6.06388 25.8611 5.20219 25.3126 4.89758C24.3283 4.35099 23.0247 4.13839 21.9963 4.3568ZM23.6366 5.40104C24.281 5.51709 25.0636 5.93387 25.5494 6.41963C26.2982 7.16841 26.635 7.99023 26.635 9.06885C26.635 10.1399 26.2978 10.9696 25.5648 11.7026C24.8319 12.4356 24.0022 12.7727 22.9311 12.7727C21.8525 12.7727 21.0306 12.4359 20.2819 11.6872C18.7037 10.1089 18.8869 7.46721 20.6682 6.11683C21.5452 5.45205 22.5605 5.2072 23.6366 5.40104ZM28.7423 18.3501C28.7017 18.7724 28.6098 19.4062 28.5382 19.7585C28.4155 20.3626 28.0939 21.5559 28.0391 21.6108C28.0253 21.6246 27.9173 21.5258 27.7991 21.3912C27.496 21.046 27.1194 20.8732 26.5868 20.835C26.339 20.8172 26.1361 20.7944 26.1361 20.7844C26.1361 20.7744 26.3912 20.4104 26.7031 19.9754C27.0149 19.5405 27.6083 18.6718 28.0218 18.045L28.7736 16.9053L28.7949 17.2437C28.8067 17.4299 28.7831 17.9277 28.7423 18.3501ZM20.8308 22.2382C21.3154 22.879 22.4224 24.2574 22.5745 24.4096C22.6669 24.502 22.8059 24.5598 22.9358 24.5598C23.1953 24.5598 23.3092 24.4409 24.4544 22.9741L25.3015 21.8891L26.0141 21.8891C26.6689 21.8889 26.7421 21.9019 26.9155 22.0488C27.0194 22.1367 27.1938 22.3753 27.3031 22.579L27.502 22.9493L27.3474 23.2705C26.3009 25.4441 24.2096 27.6976 22.0339 28.9959C19.9471 30.241 17.3511 30.9698 15.0024 30.9698H14.3844V30.1008V29.2317L13.9837 28.4325C13.5774 27.6219 13.5225 27.4123 13.6687 27.2286C13.7134 27.1723 14.2956 26.669 14.9625 26.1102L16.175 25.094L17.3329 25.0936C18.6257 25.0932 18.8642 25.0497 19.2689 24.7407C19.6622 24.4405 19.8217 24.067 19.9873 23.0574C20.11 22.3098 20.1532 22.1686 20.2989 22.0392C20.3919 21.9565 20.4902 21.8889 20.5173 21.8889C20.5445 21.8889 20.6855 22.0461 20.8308 22.2382Z" fill="#112235"/>
</g>
<defs>
<clipPath id="clip0_1_15241">
<rect width="32" height="32" fill="white"/>
</clipPath>
</defs>
</svg>
