<svg width="225" height="36" viewBox="0 0 225 36" fill="none" xmlns="http://www.w3.org/2000/svg">
<g clip-path="url(#clip0_89_107)">
<path d="M134.717 8.40542C135.155 8.4114 135.582 8.26502 135.924 7.99135C136.266 7.71768 136.503 7.33373 136.593 6.90523C136.683 6.47673 136.621 6.03032 136.417 5.64242C136.214 5.25453 135.882 4.94927 135.478 4.77891C135.074 4.60854 134.624 4.58366 134.204 4.70853C133.784 4.83339 133.42 5.10023 133.175 5.46338C132.93 5.82652 132.819 6.26338 132.862 6.69918C132.904 7.13497 133.096 7.5426 133.406 7.85228C133.575 8.02918 133.779 8.16955 134.004 8.26469C134.23 8.35984 134.472 8.40774 134.717 8.40542Z" fill="black"/>
<path d="M70.5321 11.5469C71.7744 11.5469 72.8909 11.8187 73.8814 12.3623C74.872 12.9059 75.6632 13.7592 76.2551 14.9221C76.8479 16.0855 77.1441 17.5983 77.1436 19.4607C77.1432 21.323 76.847 22.8309 76.2551 23.9843C75.6623 25.1386 74.8711 25.9871 73.8814 26.5298C72.8918 27.0725 71.7753 27.3443 70.5321 27.3453C69.3076 27.3453 68.1963 27.0734 67.1985 26.5298C66.2007 25.9862 65.4047 25.1377 64.8106 23.9843C64.2178 22.8305 63.9216 21.3226 63.9221 19.4607C63.9225 17.5988 64.2187 16.0859 64.8106 14.9221C65.4002 13.7587 66.1962 12.9055 67.1985 12.3623C68.2009 11.8191 69.3121 11.5473 70.5321 11.5469ZM70.5321 12.1286C69.4255 12.1286 68.5184 12.7007 67.8108 13.845C67.1033 14.9894 66.7491 16.861 66.7481 19.46C66.7481 22.0594 67.1024 23.9261 67.8108 25.06C68.5193 26.1939 69.4264 26.7602 70.5321 26.7588C71.6388 26.7588 72.5459 26.1925 73.2535 25.06C73.961 23.9274 74.3152 22.0608 74.3162 19.46C74.3162 16.8615 73.9619 14.9898 73.2535 13.845C72.545 12.7003 71.6379 12.1281 70.5321 12.1286Z" fill="black"/>
<path d="M114.97 11.5469C115.579 11.5456 116.187 11.6239 116.776 11.78C117.335 11.925 117.866 12.1608 118.349 12.4778C118.759 12.7325 119.108 13.0754 119.369 13.4815C119.6 13.8524 119.721 14.2809 119.719 14.7176C119.719 15.2417 119.573 15.6442 119.282 15.9251C118.991 16.206 118.622 16.3466 118.175 16.3471C117.769 16.3544 117.373 16.2209 117.054 15.9693C116.733 15.7169 116.573 15.3581 116.573 14.8929C116.573 14.4462 116.694 14.0874 116.937 13.8165C117.161 13.5561 117.462 13.3728 117.796 13.2926C117.602 12.9433 117.258 12.6525 116.762 12.4201C116.266 12.1868 115.724 12.0674 115.175 12.0708C114.669 12.0755 114.172 12.1949 113.719 12.4201C113.233 12.6525 112.787 13.0355 112.379 13.5692C111.971 14.1028 111.641 14.8302 111.389 15.7511C111.136 16.6717 111.01 17.8205 111.01 19.1977C111.01 20.9047 111.204 22.2624 111.593 23.2708C111.982 24.2792 112.491 25.0016 113.122 25.4378C113.731 25.8677 114.459 26.0967 115.204 26.0929C116.336 26.0851 117.42 25.6422 118.233 24.8562C118.699 24.4199 119.097 23.8332 119.427 23.0962L119.981 23.3C119.761 23.9717 119.436 24.6048 119.02 25.1762C118.56 25.818 117.963 26.3498 117.272 26.733C116.553 27.1407 115.669 27.3446 114.619 27.3446C113.465 27.3583 112.331 27.035 111.358 26.4143C110.386 25.7932 109.615 24.9058 109.045 23.7519C108.474 22.5981 108.188 21.2259 108.185 19.6353C108.185 18.0457 108.472 16.6447 109.045 15.4324C109.617 14.2202 110.418 13.2688 111.447 12.5784C112.476 11.8912 113.65 11.5473 114.97 11.5469Z" fill="black"/>
<path d="M125.75 7.12512V11.9831H130.062V12.5648H125.75V23.8232C125.75 24.7351 125.916 25.3752 126.246 25.7436C126.577 26.1119 127.033 26.296 127.615 26.296C128.197 26.296 128.702 26.0586 129.13 25.5839C129.557 25.1091 129.926 24.3091 130.236 23.1838L130.819 23.3292C130.624 24.4536 130.241 25.4038 129.669 26.1798C129.096 26.9558 128.217 27.3436 127.032 27.3432C126.372 27.3432 125.828 27.2609 125.399 27.0965C124.978 26.9352 124.592 26.693 124.263 26.3837C123.835 25.9352 123.529 25.3841 123.375 24.7834C123.21 24.1632 123.128 23.3389 123.128 22.3106V12.5648H120.332V11.9831H123.128V7.53216C123.613 7.51313 124.079 7.4744 124.526 7.41596C124.944 7.3649 125.354 7.26735 125.75 7.12512Z" fill="black"/>
<path d="M151.856 11.9546V12.5363C151.47 12.5827 151.111 12.7568 150.836 13.031C150.525 13.3218 150.233 13.8358 149.962 14.5728L145.185 27.0816H144.69L139.331 14.1943C139.02 13.4382 138.714 12.9775 138.414 12.8122C138.113 12.6468 137.856 12.5644 137.642 12.5648V11.9532C138.03 11.9727 138.433 11.9967 138.851 12.0253C139.268 12.0538 139.72 12.0685 140.205 12.0694C140.806 12.0694 141.441 12.0597 142.11 12.0402C142.779 12.0207 143.405 11.9918 143.988 11.9532V12.5648C143.555 12.5612 143.123 12.5953 142.696 12.6668C142.317 12.7352 142.075 12.9243 141.968 13.2342C141.861 13.544 141.953 14.0775 142.245 14.8345L145.888 23.8233L145.713 23.9694L149.033 15.2714C149.286 14.6313 149.388 14.1221 149.339 13.7438C149.32 13.5642 149.256 13.3921 149.155 13.2425C149.053 13.0929 148.917 12.9704 148.757 12.8856C148.417 12.6926 147.897 12.5764 147.198 12.537V11.9553C147.548 11.975 147.849 11.9886 148.102 11.9988L148.844 12.0273C149.087 12.0377 149.353 12.0427 149.645 12.0423C150.092 12.0423 150.495 12.0325 150.854 12.013C151.212 11.9936 151.547 11.9741 151.856 11.9546Z" fill="black"/>
<path d="M157.53 11.5469C159.239 11.5469 160.574 12.0656 161.535 13.103C162.496 14.1404 162.977 15.7552 162.977 17.9474H152.696L152.666 17.3942H160.181C160.225 16.5102 160.147 15.6242 159.947 14.7617C159.754 13.9572 159.448 13.3123 159.03 12.8271C158.612 12.3419 158.074 12.0996 157.414 12.1C156.52 12.1 155.729 12.546 155.04 13.438C154.351 14.33 153.939 15.7457 153.802 17.6851L153.89 17.8013C153.85 18.093 153.821 18.4131 153.802 18.7614C153.784 19.1098 153.774 19.4591 153.773 19.8093C153.773 21.1285 153.987 22.2628 154.413 23.2124C154.84 24.1619 155.399 24.8844 156.088 25.3801C156.778 25.8747 157.491 26.1221 158.229 26.1221C158.794 26.125 159.356 26.0315 159.889 25.8455C160.435 25.6479 160.931 25.3352 161.345 24.9288C161.792 24.503 162.18 23.9308 162.511 23.2124L163.093 23.4454C162.858 24.1237 162.503 24.7544 162.045 25.3073C161.543 25.921 160.917 26.4215 160.208 26.7758C159.469 27.1545 158.615 27.3437 157.645 27.3432C156.247 27.3432 155.048 27.0234 154.048 26.3837C153.048 25.7441 152.281 24.8568 151.747 23.722C151.212 22.5895 150.945 21.2852 150.946 19.8093C150.946 18.1023 151.218 16.6332 151.762 15.4018C152.306 14.1705 153.073 13.2192 154.063 12.5478C155.053 11.881 156.209 11.5473 157.53 11.5469Z" fill="black"/>
<path d="M175.311 6.01949C176.282 6.01949 177.02 6.13093 177.525 6.35382C177.994 6.55785 178.443 6.80633 178.865 7.09586C179.097 7.23177 179.287 7.3337 179.433 7.40165C179.564 7.46636 179.709 7.50117 179.855 7.50358C180.049 7.50358 180.19 7.39689 180.277 7.18352C180.365 6.97015 180.437 6.65009 180.495 6.22335H181.166C181.146 6.55269 181.122 6.94546 181.093 7.40165C181.064 7.85784 181.044 8.459 181.034 9.20512C181.025 9.95215 181.02 10.9363 181.02 12.1577H180.35C180.294 11.2381 180.087 10.334 179.738 9.48169C179.415 8.66481 178.889 7.94373 178.209 7.3867C177.539 6.84308 176.66 6.57126 175.573 6.57126C174.543 6.57126 173.694 6.88181 173.025 7.5029C172.356 8.12399 172.021 8.93943 172.019 9.94921C172.019 10.8217 172.243 11.5538 172.689 12.1454C173.136 12.7371 173.733 13.2703 174.481 13.7451C175.228 14.2207 176.039 14.7299 176.912 15.2726C177.843 15.8393 178.743 16.4561 179.607 17.1203C180.344 17.6777 180.975 18.3623 181.471 19.1419C181.925 19.8789 182.151 20.7712 182.151 21.8186C182.151 23.0594 181.87 24.087 181.307 24.9016C180.748 25.7134 179.969 26.3497 179.062 26.7363C178.13 27.144 177.101 27.3479 175.975 27.3479C174.945 27.3479 174.128 27.2317 173.525 26.9993C172.992 26.799 172.475 26.5556 171.981 26.2715C171.554 25.9997 171.224 25.8638 170.991 25.8638C170.797 25.8638 170.657 25.9705 170.569 26.1838C170.482 26.3972 170.409 26.7173 170.35 27.144H169.681C169.719 26.7363 169.744 26.2563 169.754 25.7041C169.764 25.1519 169.773 24.4293 169.782 23.5364C169.792 22.6449 169.797 21.52 169.797 20.1619H170.467C170.533 21.2741 170.754 22.3718 171.122 23.4236C171.481 24.432 172.035 25.2418 172.783 25.8529C173.53 26.464 174.526 26.7694 175.768 26.7689C176.396 26.7719 177.017 26.6378 177.588 26.3762C178.171 26.1055 178.662 25.6706 179.001 25.1251C179.37 24.5534 179.554 23.8118 179.555 22.9004C179.555 22.1053 179.365 21.4117 178.986 20.8196C178.608 20.2275 178.079 19.6749 177.399 19.1616C176.633 18.5901 175.835 18.0609 175.011 17.5762C174.098 17.0145 173.243 16.4423 172.448 15.8598C171.688 15.3156 171.041 14.629 170.543 13.8382C170.067 13.0725 169.829 12.1466 169.829 11.0602C169.829 9.91591 170.086 8.97023 170.601 8.2232C171.102 7.48792 171.805 6.91232 172.625 6.56515C173.473 6.20082 174.388 6.01507 175.311 6.01949Z" fill="black"/>
<path d="M203.834 11.5469C205.076 11.5469 206.193 11.8187 207.183 12.3623C208.174 12.9059 208.965 13.7592 209.557 14.9221C210.147 16.0855 210.443 17.5983 210.446 19.4607C210.448 21.323 210.152 22.8309 209.557 23.9843C208.964 25.1386 208.173 25.9871 207.183 26.5298C206.194 27.0725 205.077 27.3443 203.834 27.3453C202.609 27.3453 201.498 27.0734 200.5 26.5298C199.502 25.9862 198.706 25.1377 198.111 23.9843C197.518 22.8305 197.223 21.3226 197.223 19.4607C197.224 17.5988 197.52 16.0859 198.111 14.9221C198.704 13.7587 199.5 12.9055 200.5 12.3623C201.5 11.8191 202.611 11.5473 203.834 11.5469ZM203.834 12.1286C202.727 12.1286 201.82 12.7007 201.112 13.845C200.404 14.9894 200.05 16.861 200.049 19.46C200.049 22.0594 200.403 23.9261 201.112 25.06C201.821 26.1939 202.728 26.7602 203.834 26.7588C204.94 26.7588 205.847 26.1925 206.555 25.06C207.262 23.9274 207.617 22.0608 207.618 19.46C207.618 16.8615 207.263 14.9898 206.555 13.845C205.846 12.7003 204.939 12.1281 203.834 12.1286Z" fill="black"/>
<path d="M63.1161 12.696C62.8801 12.3459 62.5595 12.0607 62.1841 11.8669C61.7569 11.647 61.2815 11.537 60.801 11.5469C60.1342 11.5429 59.4828 11.7462 58.9369 12.1286C58.3727 12.5175 57.8839 13.0056 57.4946 13.5692C57.1205 14.0959 56.8125 14.6664 56.5775 15.268V11.6345C56.1164 11.7779 55.6436 11.88 55.1644 11.9396C54.6285 12.0093 54.0885 12.0434 53.548 12.0416C52.9656 12.0416 52.3637 12.0126 51.7424 11.9546V12.5662C52.5969 12.5662 53.1795 12.7748 53.4901 13.192C53.8008 13.6092 53.9562 14.2541 53.9562 15.1266V24.2323C53.9562 25.0478 53.7863 25.6004 53.4466 25.8904C53.1069 26.1803 52.5399 26.3257 51.7458 26.3266V26.9654H59.6648V26.3266C58.7124 26.3266 57.9599 26.1667 57.4075 25.8469C56.8551 25.5271 56.5784 24.8928 56.5775 23.9442V17.7768C56.5861 17.1789 56.6843 16.5857 56.8687 16.0168C57.0623 15.3877 57.3367 14.7863 57.6851 14.2276C58.0151 13.6859 58.4507 13.2158 58.9661 12.8455C59.4481 12.4944 60.0296 12.3058 60.6261 12.3073C60.8983 12.3073 61.1024 12.4042 61.2384 12.5981C60.9759 12.7643 60.7455 12.9763 60.5581 13.224C60.3512 13.495 60.2431 13.8285 60.2519 14.1692C60.2519 14.6544 60.4073 15.0277 60.718 15.289C61.0173 15.5467 61.4005 15.6863 61.7956 15.6818C62.3004 15.6818 62.7034 15.4977 63.0046 15.1294C63.3019 14.7694 63.4618 14.3158 63.4556 13.8491C63.4601 13.4395 63.3419 13.0379 63.1161 12.696Z" fill="black"/>
<path d="M91.5404 26.0201C91.2197 25.6029 91.0594 24.958 91.0594 24.0855V4.12842C90.5989 4.27198 90.1264 4.37432 89.6477 4.43421C89.1115 4.50352 88.5713 4.53757 88.0306 4.53614C87.4482 4.53614 86.8463 4.50691 86.225 4.44847V5.06005C87.0795 5.06005 87.6621 5.26844 87.9727 5.68522C88.2834 6.102 88.4388 6.74687 88.4388 7.61984V13.2321C88.1816 12.7795 87.8032 12.4075 87.3462 12.1577C86.6102 11.7533 85.7832 11.5428 84.9432 11.5462C83.8018 11.5398 82.6799 11.8415 81.696 12.4194C80.6959 13.001 79.89 13.8785 79.2781 15.0519C78.6663 16.2252 78.3606 17.6943 78.361 19.4593C78.361 21.2261 78.5989 22.6902 79.0747 23.8518C79.5505 25.0133 80.2399 25.886 81.1429 26.47C82.0455 27.0517 83.0986 27.3425 84.3024 27.3425C85.6426 27.3425 86.7057 26.945 87.4917 26.1499C87.8998 25.7306 88.2216 25.2354 88.4388 24.6923V27.2555H93.2732V26.6439C92.4387 26.6471 91.8611 26.4392 91.5404 26.0201ZM87.3611 25.4235C86.7003 26.1221 85.9624 26.4711 85.1473 26.4707C84.2928 26.4707 83.5696 26.2138 82.9777 25.7001C82.3859 25.1864 81.9391 24.4106 81.6375 23.3727C81.3368 22.3353 81.1864 21.031 81.1864 19.46C81.1669 16.9969 81.5407 15.1737 82.3076 13.9904C83.0746 12.8071 84.0309 12.2157 85.1766 12.2162C85.9531 12.2162 86.6277 12.4003 87.2006 12.7686C87.755 13.1261 88.166 13.6962 88.4388 14.4715V23.1151C88.2456 24.093 87.8884 24.8656 87.3611 25.4255V25.4235Z" fill="black"/>
<path d="M106.668 26.0861C106.347 25.6693 106.187 25.0244 106.188 24.1515V11.6345C105.727 11.7778 105.254 11.8799 104.775 11.9396C104.239 12.0093 103.699 12.0434 103.158 12.0416C102.576 12.0416 101.974 12.0126 101.353 11.9546V12.5662C102.207 12.5662 102.789 12.7748 103.1 13.192C103.41 13.6092 103.566 14.2541 103.566 15.1266V21.1445C103.566 22.133 103.396 23.025 103.056 23.8205C102.716 24.616 102.25 25.2464 101.658 25.7117C101.084 26.1708 100.369 26.4176 99.634 26.4102C98.9346 26.4102 98.4298 26.2548 98.1196 25.9441C97.8093 25.6333 97.615 25.2256 97.5365 24.7209C97.4558 24.1717 97.4169 23.6172 97.4202 23.0622V11.6345C96.9594 11.7778 96.4867 11.88 96.0078 11.9396C95.4719 12.0093 94.9318 12.0434 94.3914 12.0416C93.809 12.0416 93.2071 12.0126 92.5858 11.9546V12.5662C93.4398 12.5662 94.0222 12.7748 94.3328 13.192C94.6435 13.6092 94.7989 14.2541 94.7989 15.1266V22.4282C94.7989 23.3401 94.8669 24.1064 95.003 24.727C95.139 25.3476 95.3914 25.8519 95.7602 26.2396C96.1107 26.6024 96.5389 26.8812 97.0127 27.0551C97.5175 27.2494 98.1098 27.3464 98.7897 27.3459C99.7213 27.3459 100.628 27.0793 101.511 26.5461C102.394 26.0129 103.078 25.1159 103.564 23.8552V27.3255H108.403V26.714C107.566 26.7121 106.988 26.5028 106.668 26.0861Z" fill="black"/>
<path d="M136.741 26.2933C136.401 26.0025 136.231 25.4496 136.231 24.6346V11.6345C135.771 11.7778 135.298 11.88 134.819 11.9396C134.283 12.0093 133.743 12.0433 133.203 12.0416C132.62 12.0416 132.018 12.0126 131.396 11.9546V12.5662C132.251 12.5662 132.833 12.7748 133.144 13.192C133.455 13.6092 133.61 14.2541 133.61 15.1266V24.636C133.61 25.4514 133.44 26.0043 133.101 26.2947C132.761 26.5851 132.193 26.7305 131.396 26.7309V27.3425H138.445V26.7309C137.647 26.73 137.079 26.5842 136.741 26.2933Z" fill="black"/>
<path d="M195.924 25.8888C195.585 25.598 195.415 25.0453 195.415 24.2308V16.4631C195.415 15.4741 195.337 14.6888 195.182 14.1072C195.047 13.5628 194.776 13.0615 194.394 12.6502C194.047 12.2899 193.624 12.0114 193.156 11.8348C192.661 11.6414 192.045 11.5444 191.307 11.544C190.311 11.5455 189.332 11.8061 188.467 12.3003C187.564 12.8054 186.861 13.7169 186.358 15.0347V4.15613C185.897 4.2993 185.425 4.40162 184.946 4.46192C184.41 4.53121 183.87 4.56526 183.329 4.56385C182.746 4.56385 182.144 4.53463 181.524 4.47619V5.08776C182.377 5.08776 182.96 5.29615 183.271 5.71293C183.582 6.12971 183.737 6.77458 183.737 7.64755V24.2281C183.737 25.0435 183.567 25.5962 183.227 25.8861C182.888 26.1761 182.321 26.3215 181.527 26.3224V26.9883H188.281V26.9346V26.3231C187.582 26.3231 187.087 26.1776 186.796 25.8868C186.505 25.596 186.359 25.0433 186.359 24.2287V17.7467C186.359 16.7188 186.534 15.8073 186.884 15.0123C187.233 14.2172 187.714 13.5966 188.325 13.1504C188.937 12.7045 189.677 12.4696 190.434 12.481C191.134 12.481 191.653 12.6362 191.993 12.9465C192.34 13.2711 192.57 13.701 192.648 14.1697C192.749 14.7165 192.798 15.2717 192.794 15.8277V24.2355C192.794 25.051 192.648 25.6037 192.357 25.8936C192.066 26.1835 191.571 26.3289 190.872 26.3299V26.9414V26.9951H197.626V26.3305C196.832 26.3269 196.265 26.1797 195.924 25.8888Z" fill="black"/>
<path d="M224.287 14.8051C223.81 13.7387 223.165 12.929 222.35 12.3758C221.534 11.8233 220.568 11.5339 219.583 11.5468C218.243 11.5468 217.093 12.0025 216.132 12.914C215.614 13.413 215.202 14.0117 214.923 14.674V11.6345C214.462 11.7778 213.989 11.8799 213.51 11.9396C212.974 12.0092 212.434 12.0432 211.894 12.0415C211.311 12.0415 210.71 12.0125 210.088 11.9545V12.5661C210.942 12.5661 211.524 12.7747 211.835 13.1919C212.146 13.6092 212.302 14.254 212.301 15.1266V29.7881C212.301 30.4866 212.156 30.9623 211.864 31.2151C211.573 31.4679 211.08 31.5938 210.383 31.5929H210.381V32.2045H217.721V31.5929H217.716C216.844 31.5929 216.161 31.4525 215.668 31.1716C215.174 30.8907 214.926 30.3331 214.925 29.4986V25.7408C215.202 26.1276 215.554 26.4558 215.959 26.7064C216.629 27.1323 217.42 27.3454 218.332 27.3459C219.517 27.3459 220.531 27.0987 221.376 26.6045C222.213 26.117 222.921 25.4381 223.444 24.6237C223.989 23.7744 224.387 22.84 224.623 21.8593C224.875 20.8459 225.003 19.8056 225.002 18.7614C225.001 17.1903 224.762 15.8716 224.287 14.8051ZM221.811 22.9357C221.568 24.0683 221.146 24.9743 220.544 25.6538C219.943 26.3334 219.098 26.6731 218.01 26.6731C217.233 26.6731 216.588 26.489 216.073 26.1207C215.59 25.7793 215.195 25.3276 214.923 24.8031V16.0847C215.188 15.0246 215.615 14.1958 216.204 13.5983C216.98 12.8119 217.844 12.4191 218.796 12.42C219.534 12.42 220.155 12.6624 220.66 13.1471C221.166 13.6318 221.544 14.3687 221.797 15.3576C222.048 16.347 222.174 17.6175 222.175 19.1691C222.175 20.5458 222.054 21.8013 221.811 22.9357Z" fill="black"/>
<path d="M48.9582 7.96165C47.7926 6.89615 46.0353 6.36295 43.6863 6.36204C43.3371 6.36204 42.745 6.37178 41.91 6.39126C41.075 6.41074 40.201 6.42048 39.288 6.42048C38.648 6.42048 37.9976 6.41074 37.3368 6.39126C36.676 6.37178 36.1421 6.35252 35.7353 6.3335V6.9145C36.3952 6.93398 36.8953 7.00691 37.2354 7.1333C37.3953 7.18878 37.5401 7.28074 37.6582 7.40189C37.7763 7.52304 37.8645 7.67003 37.9158 7.83118C38.0328 8.17095 38.0913 8.69939 38.0913 9.41652V23.8456C38.0913 24.5442 38.0328 25.0679 37.9158 25.4167C37.8674 25.5795 37.7803 25.7281 37.6618 25.8497C37.5433 25.9714 37.397 26.0625 37.2354 26.1153C36.8953 26.2317 36.3952 26.3092 35.7353 26.3477V26.9294H43.7448V26.3477C42.9284 26.3096 42.3071 26.2322 41.8807 26.1153C41.4544 25.9984 41.168 25.7655 41.0215 25.4167C40.8759 25.0674 40.8031 24.5438 40.8031 23.8456V18.6133H43.0482C44.5626 18.6133 45.8151 18.4094 46.8056 18.0017C47.7962 17.594 48.5768 17.0651 49.1473 16.415C49.699 15.8026 50.1115 15.0782 50.3563 14.2915C50.5805 13.5806 50.6984 12.8405 50.706 12.0952C50.706 10.4073 50.1234 9.02942 48.9582 7.96165ZM47.4002 15.1769C47.1504 16.0122 46.6272 16.7396 45.9144 17.2427C45.1865 17.7659 44.1331 18.0275 42.7543 18.0275H40.8031V9.41856C40.8031 8.41059 40.9391 7.74171 41.2113 7.41191C41.4834 7.08211 42.066 6.91699 42.9591 6.91653C44.7252 6.91653 45.9725 7.37227 46.7009 8.28375C47.4293 9.19522 47.7921 10.5724 47.7894 12.4153C47.7983 13.3507 47.6671 14.2822 47.4002 15.1789V15.1769Z" fill="black"/>
</g>
<path d="M17.8675 28.0735C18.233 28.0735 18.5293 28.3692 18.5293 28.734C18.5293 29.0988 18.233 29.3946 17.8675 29.3946L7.27901 29.3946C6.91352 29.3946 6.61723 29.0988 6.61723 28.734C6.61723 28.3692 6.91352 28.0735 7.27901 28.0735L17.8675 28.0735Z" fill="#4A49A3"/>
<path d="M16.2132 31.376C16.5786 31.376 16.8749 31.6717 16.8749 32.0365C16.8749 32.4013 16.5786 32.6971 16.2132 32.6971L8.93356 32.6971C8.56807 32.6971 8.27178 32.4013 8.27178 32.0365C8.27178 31.6717 8.56807 31.376 8.93356 31.376L16.2132 31.376Z" fill="#4A49A3"/>
<path d="M14.5587 34.6788C14.9242 34.6788 15.2205 34.9746 15.2205 35.3394C15.2205 35.7042 14.9242 35.9999 14.5587 35.9999L10.5879 35.9999C10.2224 35.9999 9.92607 35.7042 9.92607 35.3394C9.92607 34.9746 10.2224 34.6788 10.5879 34.6788L14.5587 34.6788Z" fill="#4A49A3"/>
<path d="M0 9.72943C0 9.37222 0.296297 9.08264 0.661798 9.08264C1.0273 9.08264 1.3236 9.37222 1.3236 9.72943V16.1973C1.3236 16.5545 1.0273 16.8441 0.661798 16.8441C0.296297 16.8441 0 16.5545 0 16.1973V9.72943Z" fill="#4A49A3"/>
<path d="M23.8235 9.72943C23.8235 9.37222 24.1198 9.08264 24.4853 9.08264C24.8508 9.08264 25.1471 9.37222 25.1471 9.72943V16.1973C25.1471 16.5545 24.8508 16.8441 24.4853 16.8441C24.1198 16.8441 23.8235 16.5545 23.8235 16.1973V9.72943Z" fill="#4A49A3"/>
<path d="M3.97064 3.45715C3.97064 3.09822 4.26694 2.80725 4.63244 2.80725C4.99794 2.80725 5.29424 3.09822 5.29424 3.45715V12.2308C5.29424 12.5897 4.99794 12.8806 4.63244 12.8806C4.26694 12.8806 3.97064 12.5897 3.97064 12.2308V3.45715Z" fill="#4A49A3"/>
<path d="M7.94116 1.30968C7.94116 0.951162 8.23746 0.660522 8.60296 0.660522C8.96846 0.660522 9.26476 0.951162 9.26476 1.30968V9.4242C9.26476 9.78273 8.96846 10.0734 8.60296 10.0734C8.23746 10.0734 7.94116 9.78273 7.94116 9.4242V1.30968Z" fill="#4A49A3"/>
<path d="M11.9117 0.660551C11.9117 0.295739 12.208 0 12.5735 0C12.939 0 13.2353 0.295739 13.2353 0.660551V4.29358C13.2353 4.65839 12.939 4.95413 12.5735 4.95413C12.208 4.95413 11.9117 4.65839 11.9117 4.29358V0.660551Z" fill="#4A49A3"/>
<path d="M15.8824 1.30968C15.8824 0.951162 16.1787 0.660522 16.5442 0.660522C16.9097 0.660522 17.206 0.951162 17.206 1.30968V9.4242C17.206 9.78273 16.9097 10.0734 16.5442 10.0734C16.1787 10.0734 15.8824 9.78273 15.8824 9.4242V1.30968Z" fill="#4A49A3"/>
<path d="M15.8824 11.7171C15.8824 11.3565 16.1787 11.0641 16.5442 11.0641C16.9097 11.0641 17.206 11.3565 17.206 11.7171V24.778C17.206 25.1387 16.9097 25.4311 16.5442 25.4311C16.1787 25.4311 15.8824 25.1387 15.8824 24.778V11.7171Z" fill="#4A49A3"/>
<path d="M11.9117 6.59799C11.9117 6.23732 12.208 5.94495 12.5735 5.94495C12.939 5.94495 13.2353 6.23732 13.2353 6.59799V19.6589C13.2353 20.0195 12.939 20.3119 12.5735 20.3119C12.208 20.3119 11.9117 20.0195 11.9117 19.6589V6.59799Z" fill="#4A49A3"/>
<path d="M11.9117 21.963C11.9117 21.5982 12.208 21.3025 12.5735 21.3025C12.939 21.3025 13.2353 21.5982 13.2353 21.963V25.5961C13.2353 25.9609 12.939 26.2566 12.5735 26.2566C12.208 26.2566 11.9117 25.9609 11.9117 25.5961V21.963Z" fill="#4A49A3"/>
<path d="M7.94116 11.7171C7.94116 11.3565 8.23746 11.0641 8.60296 11.0641C8.96846 11.0641 9.26476 11.3565 9.26476 11.7171V24.778C9.26476 25.1387 8.96846 25.4311 8.60296 25.4311C8.23746 25.4311 7.94116 25.1387 7.94116 24.778V11.7171Z" fill="#4A49A3"/>
<path d="M3.97064 14.5203C3.97064 14.162 4.26694 13.8716 4.63244 13.8716C4.99794 13.8716 5.29424 14.162 5.29424 14.5203V22.3054C5.29424 22.6637 4.99794 22.9542 4.63244 22.9542C4.26694 22.9542 3.97064 22.6637 3.97064 22.3054V14.5203Z" fill="#4A49A3"/>
<path d="M19.8529 3.62243C19.8529 3.2635 20.1492 2.97253 20.5147 2.97253C20.8802 2.97253 21.1765 3.2635 21.1765 3.62243V12.396C21.1765 12.755 20.8802 13.0459 20.5147 13.0459C20.1492 13.0459 19.8529 12.755 19.8529 12.396V3.62243Z" fill="#4A49A3"/>
<path d="M19.8529 14.6854C19.8529 14.3271 20.1492 14.0366 20.5147 14.0366C20.8802 14.0366 21.1765 14.3271 21.1765 14.6854V22.4704C21.1765 22.8287 20.8802 23.1192 20.5147 23.1192C20.1492 23.1192 19.8529 22.8287 19.8529 22.4704V14.6854Z" fill="#4A49A3"/>
<defs>
<clipPath id="clip0_89_107">
<rect width="189.265" height="28.0734" fill="white" transform="translate(35.7353 4.12842)"/>
</clipPath>
</defs>
</svg>
